<?xml version="1.0" encoding="utf-8"?>
<!-- Generator: Adobe Illustrator 24.0.0, SVG Export Plug-In . SVG Version: 6.00 Build 0)  -->
<svg version="1.1" id="Layer_1" xmlns="http://www.w3.org/2000/svg" xmlns:xlink="http://www.w3.org/1999/xlink" x="0px" y="0px"
	 viewBox="-234.4 -63.4 146.8 136.5" style="enable-background:new -234.4 -63.4 146.8 136.5;" xml:space="preserve">
<style type="text/css">
	.st0{fill:url(#SVGID_1_);}
	.st1{fill:url(#SVGID_2_);}
	.st2{fill:url(#SVGID_3_);}
	.st3{fill:url(#SVGID_4_);}
	.st4{fill:url(#SVGID_5_);}
	.st5{fill:url(#SVGID_6_);}
	.st6{fill:url(#SVGID_7_);}
	.st7{fill:url(#SVGID_8_);}
	.st8{fill-rule:evenodd;clip-rule:evenodd;fill:url(#SVGID_9_);}
	.st9{fill:url(#SVGID_10_);}
	.st10{fill:#464747;}
	.st11{fill-rule:evenodd;clip-rule:evenodd;fill:url(#SVGID_11_);}
	.st12{fill:url(#SVGID_12_);}
	.st13{fill-rule:evenodd;clip-rule:evenodd;fill:url(#SVGID_13_);}
	.st14{fill:#FFFFFF;}
	.st15{fill-rule:evenodd;clip-rule:evenodd;fill:#6B6B6B;}
	.st16{fill:url(#SVGID_14_);}
	.st17{fill-rule:evenodd;clip-rule:evenodd;fill:url(#SVGID_17_);}
	.st18{fill:url(#SVGID_18_);}
	.st19{fill-rule:evenodd;clip-rule:evenodd;fill:url(#SVGID_19_);}
	.st20{fill:url(#SVGID_20_);}
</style>
<g>
	<linearGradient id="SVGID_1_" gradientUnits="userSpaceOnUse" x1="-218.8905" y1="-13.6723" x2="-216.328" y2="-13.6723">
		<stop  offset="0" style="stop-color:#FF4454"/>
		<stop  offset="5.405410e-03" style="stop-color:#FF4454"/>
		<stop  offset="0.5946" style="stop-color:#FF7C3B"/>
		<stop  offset="1" style="stop-color:#E5CA18"/>
	</linearGradient>
	<path class="st0" d="M-217.6-15c0.4,0,0.7,0.2,0.9,0.4c0.2,0.2,0.4,0.6,0.4,0.9c0,0.3-0.1,0.7-0.4,0.9c-0.2,0.2-0.5,0.4-0.9,0.4
		c-0.4,0-0.7-0.2-0.9-0.4c-0.2-0.2-0.4-0.6-0.4-0.9c0-0.4,0.1-0.7,0.4-0.9C-218.3-14.8-218-15-217.6-15L-217.6-15z M-217.2-14.1
		c-0.1-0.1-0.2-0.2-0.4-0.2c-0.2,0-0.3,0.1-0.4,0.2c-0.1,0.1-0.1,0.2-0.1,0.4c0,0.1,0,0.3,0.1,0.4c0.1,0.1,0.2,0.2,0.4,0.2
		c0.2,0,0.3-0.1,0.4-0.2c0.1-0.1,0.2-0.2,0.2-0.4C-217.1-13.8-217.2-14-217.2-14.1L-217.2-14.1z"/>
	
		<linearGradient id="SVGID_2_" gradientUnits="userSpaceOnUse" x1="-29.4709" y1="-74.3518" x2="-4.8076" y2="-74.3518" gradientTransform="matrix(-0.8356 -0.5494 0.5494 -0.8356 -74.4888 -17.1085)">
		<stop  offset="0" style="stop-color:#FF4454"/>
		<stop  offset="5.405410e-03" style="stop-color:#FF4454"/>
		<stop  offset="0.5946" style="stop-color:#FF7C3B"/>
		<stop  offset="1" style="stop-color:#E5CA18"/>
	</linearGradient>
	<path class="st1" d="M-90.8,60.7c0.2,0.1,0.2,0.3,0.1,0.5c-0.1,0.2-0.4,0.2-0.5,0.1l-11.9-7.8c-0.2-0.1-0.2-0.4-0.1-0.5
		c0.1-0.2,0.3-0.2,0.5-0.1L-90.8,60.7z M-104.1,52c0.2,0.1,0.2,0.3,0.1,0.5c-0.1,0.2-0.3,0.2-0.5,0.1l-1.9-1.2
		c-0.2-0.1-0.2-0.4-0.1-0.5c0.1-0.2,0.3-0.2,0.5-0.1L-104.1,52z M-107.4,49.8c0.2,0.1,0.2,0.3,0.1,0.5c-0.1,0.2-0.4,0.2-0.5,0.1
		l-3.4-2.2c-0.2-0.1-0.2-0.4-0.1-0.5c0.1-0.2,0.4-0.2,0.5-0.1L-107.4,49.8z"/>
	
		<linearGradient id="SVGID_3_" gradientUnits="userSpaceOnUse" x1="-342.3667" y1="265.4255" x2="-322.5748" y2="265.4255" gradientTransform="matrix(0.4721 0.8816 -0.8816 0.4721 174.9279 111.6768)">
		<stop  offset="0" style="stop-color:#FF4454"/>
		<stop  offset="5.405410e-03" style="stop-color:#FF4454"/>
		<stop  offset="0.5946" style="stop-color:#FF7C3B"/>
		<stop  offset="1" style="stop-color:#E5CA18"/>
	</linearGradient>
	<path class="st2" d="M-223.6-62.7c-0.2-0.1-0.2-0.3-0.1-0.5c0.1-0.2,0.3-0.2,0.5-0.1l13.7,9.5c0.8,0.5,1.2,1.3,1.4,2.1
		c0.2,0.8,0,1.7-0.5,2.5c-0.5,0.7-1.3,1.2-2.1,1.3c-0.8,0.2-1.7,0-2.4-0.5l-7.1-4.9c-0.2-0.1-0.2-0.3-0.1-0.5
		c0.1-0.2,0.3-0.2,0.5-0.1l7.1,4.9c0.6,0.4,1.3,0.5,1.9,0.4c0.7-0.1,1.3-0.5,1.7-1.1c0.4-0.6,0.5-1.3,0.4-2
		c-0.1-0.6-0.5-1.3-1.1-1.7L-223.6-62.7z"/>
	<linearGradient id="SVGID_4_" gradientUnits="userSpaceOnUse" x1="-138.289" y1="-53.0146" x2="-135.6181" y2="-53.0146">
		<stop  offset="0" style="stop-color:#FF4454"/>
		<stop  offset="5.405410e-03" style="stop-color:#FF4454"/>
		<stop  offset="0.5946" style="stop-color:#FF7C3B"/>
		<stop  offset="1" style="stop-color:#E5CA18"/>
	</linearGradient>
	<path class="st3" d="M-136.9-54.3c0.4,0,0.7,0.1,0.9,0.4c0.2,0.2,0.4,0.6,0.4,0.9c0,0.4-0.1,0.7-0.4,0.9c-0.2,0.2-0.6,0.4-0.9,0.4
		s-0.7-0.2-0.9-0.4c-0.2-0.3-0.4-0.6-0.4-0.9c0-0.4,0.2-0.7,0.4-0.9C-137.6-54.2-137.3-54.3-136.9-54.3L-136.9-54.3z M-136.5-53.4
		c-0.1-0.1-0.2-0.2-0.4-0.2c-0.2,0-0.3,0.1-0.4,0.2c-0.1,0.1-0.2,0.2-0.2,0.4c0,0.2,0.1,0.3,0.2,0.4c0.1,0.1,0.3,0.2,0.4,0.2
		c0.2,0,0.3-0.1,0.4-0.2c0.1-0.1,0.2-0.3,0.2-0.4C-136.4-53.2-136.4-53.3-136.5-53.4L-136.5-53.4z"/>
	<linearGradient id="SVGID_5_" gradientUnits="userSpaceOnUse" x1="-127.2479" y1="64.668" x2="-124.869" y2="64.668">
		<stop  offset="0" style="stop-color:#FF4454"/>
		<stop  offset="5.405410e-03" style="stop-color:#FF4454"/>
		<stop  offset="0.5946" style="stop-color:#FF7C3B"/>
		<stop  offset="1" style="stop-color:#E5CA18"/>
	</linearGradient>
	<path class="st4" d="M-126.1,63.5c0.3,0,0.6,0.1,0.8,0.3c0.2,0.2,0.4,0.5,0.4,0.8c0,0.4-0.1,0.6-0.4,0.9c-0.2,0.2-0.5,0.3-0.8,0.3
		c-0.3,0-0.6-0.1-0.9-0.3c-0.2-0.2-0.3-0.5-0.3-0.9c0-0.3,0.1-0.6,0.3-0.8C-126.7,63.6-126.4,63.5-126.1,63.5L-126.1,63.5z
		 M-125.8,64.4c-0.1-0.1-0.2-0.1-0.3-0.1s-0.2,0-0.3,0.1c-0.1,0.1-0.1,0.2-0.1,0.3c0,0.1,0,0.2,0.1,0.3c0.1,0.1,0.2,0.1,0.3,0.1
		s0.2,0,0.3-0.1c0.1-0.1,0.1-0.2,0.1-0.3C-125.6,64.6-125.7,64.4-125.8,64.4L-125.8,64.4z"/>
	
		<linearGradient id="SVGID_6_" gradientUnits="userSpaceOnUse" x1="-264.7602" y1="65.0724" x2="-256.0207" y2="65.0724" gradientTransform="matrix(0.4192 0.9079 -0.9079 0.4192 -62.1267 204.3622)">
		<stop  offset="0" style="stop-color:#FF4454"/>
		<stop  offset="5.405410e-03" style="stop-color:#FF4454"/>
		<stop  offset="0.5946" style="stop-color:#FF7C3B"/>
		<stop  offset="1" style="stop-color:#E5CA18"/>
	</linearGradient>
	<path class="st5" d="M-226.5-2.4c0.2,0.1,0.2,0.4,0.1,0.5c-0.1,0.2-0.4,0.2-0.5,0.1l-3.5-2.6c-0.2-0.1-0.2-0.4-0.1-0.5
		c0.1-0.2,0.3-0.2,0.5-0.1L-226.5-2.4z M-230.9-5.6c0.2,0.1,0.2,0.4,0.1,0.5c-0.1,0.2-0.4,0.2-0.5,0.1l-0.8-0.6
		c-0.2-0.1-0.2-0.4-0.1-0.5c0.1-0.2,0.3-0.2,0.5-0.1L-230.9-5.6z M-232.6-6.9c0.2,0.1,0.2,0.4,0.1,0.5c-0.1,0.2-0.3,0.2-0.5,0.1
		l-1.2-0.9c-0.2-0.1-0.2-0.4-0.1-0.5c0.1-0.2,0.4-0.2,0.5-0.1L-232.6-6.9z"/>
	<linearGradient id="SVGID_7_" gradientUnits="userSpaceOnUse" x1="-89.3876" y1="62.5044" x2="-87.954" y2="62.5044">
		<stop  offset="0" style="stop-color:#FF4454"/>
		<stop  offset="5.405410e-03" style="stop-color:#FF4454"/>
		<stop  offset="0.5946" style="stop-color:#FF7C3B"/>
		<stop  offset="1" style="stop-color:#E5CA18"/>
	</linearGradient>
	<path class="st6" d="M-88.7,61.8c0.2,0,0.4,0.1,0.5,0.2l0,0l0,0l0,0c0.1,0.1,0.2,0.3,0.2,0.5c0,0.2-0.1,0.4-0.2,0.5l0,0l0,0l0,0
		c-0.1,0.1-0.3,0.2-0.5,0.2c-0.2,0-0.4-0.1-0.5-0.2l0,0l0,0l0,0c-0.1-0.1-0.2-0.3-0.2-0.5c0-0.2,0.1-0.4,0.2-0.5l0,0l0,0l0,0
		C-89.1,61.9-88.9,61.8-88.7,61.8L-88.7,61.8z M-88.7,62.5L-88.7,62.5L-88.7,62.5L-88.7,62.5L-88.7,62.5z M-88.7,62.5L-88.7,62.5
		L-88.7,62.5L-88.7,62.5L-88.7,62.5z M-88.7,62.5L-88.7,62.5L-88.7,62.5 M-88.7,62.5L-88.7,62.5L-88.7,62.5"/>
	
		<linearGradient id="SVGID_8_" gradientUnits="userSpaceOnUse" x1="-233.4453" y1="197.9819" x2="-202.3861" y2="197.9819" gradientTransform="matrix(0.8492 0.528 -0.528 0.8492 122.2463 10.4208)">
		<stop  offset="0" style="stop-color:#FF4454"/>
		<stop  offset="5.405410e-03" style="stop-color:#FF4454"/>
		<stop  offset="0.5946" style="stop-color:#FF7C3B"/>
		<stop  offset="1" style="stop-color:#E5CA18"/>
	</linearGradient>
	<path class="st7" d="M-180.4,55.8c-0.2-0.1-0.2-0.4-0.1-0.5c0.1-0.2,0.4-0.2,0.5-0.1l21.7,13.5c0.2,0.1,0.2,0.3,0.1,0.5
		c-0.1,0.2-0.3,0.3-0.5,0.1L-180.4,55.8z M-156.3,70.8c-0.2-0.1-0.2-0.3-0.1-0.5c0.1-0.2,0.3-0.2,0.5-0.1l1.6,1
		c0.2,0.1,0.2,0.4,0.1,0.5c-0.1,0.2-0.4,0.2-0.5,0.1L-156.3,70.8z"/>
	<linearGradient id="SVGID_9_" gradientUnits="userSpaceOnUse" x1="-152.9979" y1="72.8243" x2="-152.3534" y2="72.8243">
		<stop  offset="0" style="stop-color:#FF4454"/>
		<stop  offset="5.405410e-03" style="stop-color:#FF4454"/>
		<stop  offset="0.5946" style="stop-color:#FF7C3B"/>
		<stop  offset="1" style="stop-color:#E5CA18"/>
	</linearGradient>
	<path class="st8" d="M-152.7,73.1c0.2,0,0.3-0.2,0.3-0.3c0-0.2-0.2-0.3-0.3-0.3c-0.2,0-0.3,0.1-0.3,0.3
		C-153,73-152.9,73.1-152.7,73.1L-152.7,73.1z"/>
	
		<linearGradient id="SVGID_10_" gradientUnits="userSpaceOnUse" x1="-175.0361" y1="161.3669" x2="-165.0564" y2="161.3669" gradientTransform="matrix(0.7866 0.6174 -0.6174 0.7866 32.8717 -77.5562)">
		<stop  offset="0" style="stop-color:#FF4454"/>
		<stop  offset="5.405410e-03" style="stop-color:#FF4454"/>
		<stop  offset="0.5946" style="stop-color:#FF7C3B"/>
		<stop  offset="1" style="stop-color:#E5CA18"/>
	</linearGradient>
	<path class="st9" d="M-204.4-58.5c0,0-0.1-0.1,0-0.2c0,0,0.1,0,0.2,0l7.7,6c0,0,0.1,0.1,0,0.2c0,0-0.1,0-0.2,0L-204.4-58.5z"/>
	<g>
		<path class="st10" d="M-147.1,46.7L-147.1,46.7l-4.1,4.1c0,0.2,0.1,0.3,0.1,0.5l4.3-4.3h0l0,0l7.3-7.3c-0.2,0-0.3-0.1-0.5-0.1
			L-147.1,46.7z"/>
		<path class="st10" d="M-149.7,44.2L-149.7,44.2l3-3C-147.9,41.9-148.9,43-149.7,44.2C-149.7,44.2-149.7,44.2-149.7,44.2
			C-149.7,44.2-149.7,44.2-149.7,44.2L-149.7,44.2L-149.7,44.2z"/>
		<path class="st10" d="M-141.5,52.4L-141.5,52.4L-141.5,52.4l-5.5,5.5c0.1,0.1,0.2,0.2,0.3,0.2l5.5-5.5l0,0l8.4-8.4l0,0l0,0
			c-0.1-0.1-0.2-0.2-0.2-0.3l-0.1,0.1l0,0L-141.5,52.4z"/>
		<path class="st10" d="M-140.1,53.8L-140.1,53.8l-5.2,5.2c0.1,0.1,0.3,0.1,0.4,0.2l5-5l0,0l0,0l8-8c-0.1-0.1-0.1-0.3-0.2-0.4
			L-140.1,53.8L-140.1,53.8z"/>
		<path class="st10" d="M-142.9,51L-142.9,51l-5.6,5.6c0.1,0.1,0.2,0.2,0.3,0.3l5.6-5.6l0,0l0,0l8.4-8.4l0,0l0,0l0.2-0.2
			c-0.1-0.1-0.2-0.2-0.3-0.3l-0.2,0.2l0,0l0,0L-142.9,51L-142.9,51z"/>
		<path class="st10" d="M-144.4,49.6L-144.4,49.6l-5.4,5.4c0.1,0.1,0.1,0.2,0.2,0.3l5.5-5.5l0,0l0,0l8.4-8.4l0,0l0,0l0.1-0.1
			c-0.1-0.1-0.2-0.1-0.3-0.2c0,0,0,0,0,0l0,0l0,0L-144.4,49.6L-144.4,49.6z"/>
		<path class="st10" d="M-135.9,58L-135.9,58l-0.7,0.7c0.3-0.1,0.6-0.3,0.8-0.5c0,0,0,0,0,0c0.2-0.2,0.5-0.3,0.7-0.5l1.8-1.8
			c0.4-0.5,0.7-1,1-1.6L-135.9,58L-135.9,58z"/>
		<path class="st10" d="M-145.8,48.2L-145.8,48.2l-4.9,4.9c0.1,0.1,0.1,0.3,0.2,0.4l5.1-5.1l0,0l0,0l8.1-8.1
			c-0.1-0.1-0.3-0.1-0.4-0.2L-145.8,48.2L-145.8,48.2z"/>
		<path class="st10" d="M-148.3,45.6L-148.3,45.6l6-6c-0.2,0-0.4,0.1-0.7,0.1l-5.6,5.6l0,0l0,0l-2.6,2.6c0,0.2-0.1,0.4-0.1,0.7
			L-148.3,45.6L-148.3,45.6z"/>
		<path class="st10" d="M-137.3,56.6L-137.3,56.6l-3.1,3.1c0.2,0,0.4,0,0.6-0.1l2.8-2.8l0,0l5.8-5.8c0-0.2,0.1-0.4,0.1-0.6
			L-137.3,56.6L-137.3,56.6z"/>
		<path class="st10" d="M-138.5,55.5L-138.5,55.5l7.3-7.3c0-0.2,0-0.3-0.1-0.5l-7.4,7.4l0,0l0,0l-4.4,4.4c0.2,0,0.3,0,0.5,0.1
			L-138.5,55.5z"/>
	</g>
	
		<linearGradient id="SVGID_11_" gradientUnits="userSpaceOnUse" x1="-187.7272" y1="394.7098" x2="-116.851" y2="394.7098" gradientTransform="matrix(0.3797 -0.9251 0.9251 0.3797 -463.2931 -296.7411)">
		<stop  offset="0" style="stop-color:#FFC32C"/>
		<stop  offset="5.405410e-03" style="stop-color:#FFC32C"/>
		<stop  offset="1" style="stop-color:#FF64FB"/>
	</linearGradient>
	<path class="st11" d="M-218.2-5.2c-6.7-12.4,39.4-52,83.2-30.3c30.7,15.1,43.4,62.5,19.8,73.5C-136.4,47.9-210.2,9.6-218.2-5.2
		L-218.2-5.2z"/>
	<g>
		
			<linearGradient id="SVGID_12_" gradientUnits="userSpaceOnUse" x1="-252.607" y1="66.4542" x2="-134.0117" y2="66.4542" gradientTransform="matrix(0.986 -0.1666 0.1666 0.986 22.0433 -100.7731)">
			<stop  offset="0" style="stop-color:#72D1AB"/>
			<stop  offset="5.405410e-03" style="stop-color:#72D1AB"/>
			<stop  offset="0.5946" style="stop-color:#6DCCCD"/>
			<stop  offset="1" style="stop-color:#517AAC"/>
		</linearGradient>
		<path class="st12" d="M-189.7,25.2C-189.7,25.2-189.7,25.2-189.7,25.2c-11.6-3-19.2-6.8-22.7-11.3c-5.3-7-5.5-16.2-0.4-25.7
			c4.3-8.1,12.3-15.9,21.7-21.5c10.2-6,21.7-9,32.4-8.6c4.6,0.2,9.1,0.8,13.5,2c29.8,7.6,47.4,35.2,50.4,52.3
			c1.1,6.5,0.1,11.3-2.7,13.1c-5.1,3.3-19.9,5.4-38.5,5.4C-155.5,30.9-175.5,28.8-189.7,25.2z M-145.2-39.8c-4.4-1.1-8.9-1.8-13.5-2
			c-23.3-0.9-45.7,14.5-54,30c-5.1,9.5-4.9,18.6,0.4,25.6c3.4,4.5,11,8.3,22.6,11.3c14.2,3.6,34.3,5.8,53.7,5.7
			c18.6-0.1,33.4-2.1,38.5-5.4c2.8-1.8,3.8-6.5,2.7-13C-97.9-4.7-115.5-32.2-145.2-39.8z"/>
	</g>
	
		<linearGradient id="SVGID_13_" gradientUnits="userSpaceOnUse" x1="58.1357" y1="-1184.5262" x2="69.4993" y2="-1184.5262" gradientTransform="matrix(0 -1 -1 0 -1349.7181 6.1314)">
		<stop  offset="0" style="stop-color:#72D1AB"/>
		<stop  offset="5.405410e-03" style="stop-color:#72D1AB"/>
		<stop  offset="0.5946" style="stop-color:#6DCCCD"/>
		<stop  offset="1" style="stop-color:#517AAC"/>
	</linearGradient>
	<path class="st13" d="M-160.4-61L-160.4-61c-1.7-2.5-5.2-3.1-7.6-1.4l-0.6,0.4c-2.5,1.7-3.1,5.2-1.4,7.6l0,0
		c1.7,2.5,5.1,3.1,7.6,1.4l0.6-0.4C-159.3-55.1-158.7-58.5-160.4-61L-160.4-61z"/>
	<g>
		<path class="st14" d="M-115.1,26.6L-115.1,26.6l-1.8,1.8c0,0.1,0,0.1,0,0.2l1.8-1.8l0,0l0,0l3.1-3.1c-0.1,0-0.1,0-0.2,0
			L-115.1,26.6z"/>
		<path class="st14" d="M-116.2,25.5L-116.2,25.5l1.3-1.3C-115.4,24.5-115.8,25-116.2,25.5C-116.2,25.5-116.2,25.5-116.2,25.5
			C-116.2,25.5-116.2,25.5-116.2,25.5L-116.2,25.5L-116.2,25.5z"/>
		<path class="st14" d="M-112.7,29L-112.7,29L-112.7,29l-2.4,2.4c0,0,0.1,0.1,0.1,0.1l2.3-2.3l0,0l3.6-3.6l0,0l0,0
			c0,0-0.1-0.1-0.1-0.1l-0.1,0.1l0,0L-112.7,29z"/>
		<path class="st14" d="M-112.1,29.6L-112.1,29.6l-2.2,2.2c0.1,0,0.1,0,0.2,0.1l2.1-2.1l0,0l0,0l3.4-3.4c0-0.1,0-0.1-0.1-0.2
			L-112.1,29.6L-112.1,29.6z"/>
		<path class="st14" d="M-113.3,28.4L-113.3,28.4l-2.4,2.4c0,0,0.1,0.1,0.1,0.1l2.4-2.4l0,0l0,0l3.6-3.6l0,0l0,0l0.1-0.1
			c0,0-0.1-0.1-0.1-0.1l-0.1,0.1l0,0l0,0L-113.3,28.4L-113.3,28.4z"/>
		<path class="st14" d="M-113.9,27.8L-113.9,27.8l-2.3,2.3c0,0.1,0.1,0.1,0.1,0.1l2.3-2.3l0,0l0,0l3.6-3.6l0,0l0,0l0,0
			c0,0-0.1-0.1-0.1-0.1c0,0,0,0,0,0l0,0l0,0L-113.9,27.8L-113.9,27.8z"/>
		<path class="st14" d="M-110.3,31.4L-110.3,31.4l-0.3,0.3C-110.4,31.6-110.3,31.6-110.3,31.4C-110.2,31.5-110.2,31.5-110.3,31.4
			c0.2,0,0.3-0.1,0.4-0.1l0.8-0.8c0.2-0.2,0.3-0.4,0.4-0.7L-110.3,31.4L-110.3,31.4z"/>
		<path class="st14" d="M-114.5,27.2L-114.5,27.2l-2.1,2.1c0,0.1,0,0.1,0.1,0.2l2.2-2.2l0,0l0,0l3.5-3.5c-0.1,0-0.1,0-0.2-0.1
			L-114.5,27.2L-114.5,27.2z"/>
		<path class="st14" d="M-115.6,26.1L-115.6,26.1l2.6-2.6c-0.1,0-0.2,0-0.3,0l-2.4,2.4l0,0l0,0l-1.1,1.1c0,0.1,0,0.2,0,0.3
			L-115.6,26.1L-115.6,26.1z"/>
		<path class="st14" d="M-110.9,30.8L-110.9,30.8l-1.3,1.3c0.1,0,0.2,0,0.3,0l1.2-1.2l0,0l2.5-2.5c0-0.1,0-0.2,0-0.3L-110.9,30.8
			L-110.9,30.8z"/>
		<path class="st14" d="M-111.4,30.3L-111.4,30.3l3.1-3.1c0-0.1,0-0.1,0-0.2l-3.2,3.2l0,0l0,0l-1.9,1.9c0.1,0,0.1,0,0.2,0
			L-111.4,30.3z"/>
	</g>
	<g>
		<polygon class="st15" points="-180.2,45.6 -180.7,45.6 -184,41.9 -183.5,41.9 		"/>
		<polygon class="st15" points="-179.2,45.6 -179.7,45.6 -183,41.9 -182.5,41.9 		"/>
		<polygon class="st15" points="-177.2,45.6 -177.7,45.6 -181,41.9 -180.5,41.9 		"/>
		<polygon class="st15" points="-178.2,45.6 -178.7,45.6 -182,41.9 -181.5,41.9 		"/>
		<polygon class="st15" points="-176.2,45.6 -176.7,45.6 -180,41.9 -179.5,41.9 		"/>
		<polygon class="st15" points="-174.2,45.6 -174.7,45.6 -178,41.9 -177.5,41.9 		"/>
		<polygon class="st15" points="-173.2,45.6 -173.7,45.6 -177,41.9 -176.5,41.9 		"/>
		<polygon class="st15" points="-175.2,45.6 -175.7,45.6 -179,41.9 -178.5,41.9 		"/>
		<polygon class="st15" points="-184.2,45.6 -184.7,45.6 -188,41.8 -187.5,41.8 		"/>
		<polygon class="st15" points="-190,41.8 -189.5,41.8 -186.2,45.5 -186.7,45.5 		"/>
		<path class="st15" d="M-163.1,41.9h0.5l2.9,3.3c-0.1,0.1-0.2,0.1-0.3,0.2L-163.1,41.9z"/>
		<polygon class="st15" points="-185.2,45.6 -185.7,45.6 -189,41.8 -188.5,41.8 		"/>
		<path class="st15" d="M-162.1,41.9h0.5l2.4,2.7c-0.1,0.1-0.1,0.2-0.2,0.3L-162.1,41.9z"/>
		<polygon class="st15" points="-183.2,45.6 -183.7,45.6 -187,41.8 -186.5,41.8 		"/>
		<polygon class="st15" points="-182.2,45.6 -182.7,45.6 -186,41.8 -185.5,41.8 		"/>
		<polygon class="st15" points="-181.2,45.6 -181.7,45.6 -185,41.8 -184.5,41.9 		"/>
		<polygon class="st15" points="-172.3,45.6 -172.7,45.6 -176,41.9 -175.5,41.9 		"/>
		<path class="st15" d="M-191.2,45.5c-0.3-0.1-0.6-0.2-0.9-0.4l-0.3-0.4c-0.2-0.3-0.3-0.6-0.3-0.9L-191.2,45.5z"/>
		<path class="st15" d="M-160.4,45.5c-0.1,0-0.3,0.1-0.4,0.1l-3.3-3.7l0.5,0L-160.4,45.5z"/>
		<polygon class="st15" points="-162.3,45.6 -162.8,45.6 -166.1,41.9 -165.6,41.9 		"/>
		<path class="st15" d="M-189.2,45.5h-0.5l-2.6-3c0.1-0.1,0.2-0.2,0.3-0.3L-189.2,45.5z"/>
		<polygon class="st15" points="-161.3,45.6 -161.8,45.6 -165.1,41.9 -164.6,41.9 		"/>
		<path class="st15" d="M-190.2,45.5h-0.5l-2-2.3c0-0.1,0.1-0.3,0.1-0.4L-190.2,45.5z"/>
		<path class="st15" d="M-188.2,45.5h-0.5l-3.1-3.5c0.1-0.1,0.2-0.1,0.4-0.1L-188.2,45.5z"/>
		<path class="st15" d="M-159,43.8c0,0.2,0,0.3-0.1,0.4l-2-2.3h0.2C-159.9,41.9-159,42.7-159,43.8z"/>
		<path class="st15" d="M-187.2,45.5h-0.5l-3.3-3.7c0,0,0.1,0,0.1,0h0.4L-187.2,45.5z"/>
		<polygon class="st15" points="-171.3,45.6 -171.8,45.6 -175,41.9 -174.5,41.9 		"/>
		<polygon class="st15" points="-169.3,45.6 -169.8,45.6 -173,41.9 -172.6,41.9 		"/>
		<polygon class="st15" points="-168.3,45.6 -168.8,45.6 -172.1,41.9 -171.6,41.9 		"/>
		<polygon class="st15" points="-170.3,45.6 -170.8,45.6 -174,41.9 -173.5,41.9 		"/>
		<polygon class="st15" points="-167.3,45.6 -167.8,45.6 -171.1,41.9 -170.6,41.9 		"/>
		<polygon class="st15" points="-164.3,45.6 -164.8,45.6 -168.1,41.9 -167.6,41.9 		"/>
		<polygon class="st15" points="-163.3,45.6 -163.8,45.6 -167.1,41.9 -166.6,41.9 		"/>
		<polygon class="st15" points="-165.3,45.6 -165.8,45.6 -169.1,41.9 -168.6,41.9 		"/>
		<polygon class="st15" points="-166.3,45.6 -166.8,45.6 -170.1,41.9 -169.6,41.9 		"/>
	</g>
	<g>
		<radialGradient id="SVGID_14_" cx="-147.8529" cy="10.205" r="58.999" gradientUnits="userSpaceOnUse">
			<stop  offset="0.2215" style="stop-color:#000000"/>
			<stop  offset="0.4013" style="stop-color:#515151"/>
			<stop  offset="0.581" style="stop-color:#9B9B9B"/>
			<stop  offset="0.7291" style="stop-color:#D1D1D1"/>
			<stop  offset="0.8395" style="stop-color:#F2F2F2"/>
			<stop  offset="0.8997" style="stop-color:#FFFFFF"/>
		</radialGradient>
		<path class="st16" d="M-87.6,10.5c0,33.1-26.9,60-60,60c-33.1,0-60-26.9-60-60c0-33.1,26.9-60,60-60
			C-114.5-49.6-87.6-22.7-87.6,10.5z"/>
		<ellipse class="st14" cx="-156.1" cy="-6.1" rx="45.6" ry="45"/>
	</g>
	<g>
		<defs>
			<path id="SVGID_15_" d="M-156.6-45.4c-22,0-39.9,17.9-39.9,39.9c0,22,17.9,39.9,39.9,39.9c22,0,39.9-17.9,39.9-39.9
				C-116.7-27.5-134.6-45.4-156.6-45.4z"/>
		</defs>
		<clipPath id="SVGID_16_">
			<use xlink:href="#SVGID_15_"  style="overflow:visible;"/>
		</clipPath>
		<g style="clip-path:url(#SVGID_16_);">
			
				<image style="overflow:visible;" width="1865" height="2301" xlink:href="../Downloads/BM.png"  transform="matrix(3.749309e-02 0 0 3.749309e-02 -187.762 -45.8128)">
			</image>
		</g>
	</g>
	
		<linearGradient id="SVGID_17_" gradientUnits="userSpaceOnUse" x1="-28.6545" y1="-1132.6613" x2="-17.2913" y2="-1132.6613" gradientTransform="matrix(0 -1 -1 0 -1349.7181 6.1314)">
		<stop  offset="0" style="stop-color:#FFC32C"/>
		<stop  offset="5.405410e-03" style="stop-color:#FFC32C"/>
		<stop  offset="1" style="stop-color:#FF64FB"/>
	</linearGradient>
	<path class="st17" d="M-212.3,25.8L-212.3,25.8c-1.7-2.5-5.2-3.1-7.6-1.4l-0.6,0.4c-2.5,1.7-3.1,5.2-1.4,7.6l0,0
		c1.7,2.5,5.2,3.1,7.6,1.4l0.6-0.4C-211.2,31.7-210.5,28.2-212.3,25.8L-212.3,25.8z"/>
	
		<radialGradient id="SVGID_18_" cx="-384.65" cy="346.932" r="22.4508" gradientTransform="matrix(1.1668 -0.5715 0.3088 0.6303 157.8273 -416.2314)" gradientUnits="userSpaceOnUse">
		<stop  offset="0" style="stop-color:#000000"/>
		<stop  offset="0.2384" style="stop-color:#515151"/>
		<stop  offset="0.4768" style="stop-color:#9B9B9B"/>
		<stop  offset="0.6734" style="stop-color:#D1D1D1"/>
		<stop  offset="0.8199" style="stop-color:#F2F2F2"/>
		<stop  offset="0.8997" style="stop-color:#FFFFFF"/>
	</radialGradient>
	<path class="st18" d="M-157.1,9.2c3.9,8-4.9,20.2-19.6,27.4c-14.7,7.2-29.8,6.6-33.7-1.3c-3.9-7.9,4.9-20.2,19.6-27.4
		C-176.1,0.7-161,1.3-157.1,9.2z"/>
	<g>
		
			<linearGradient id="SVGID_19_" gradientUnits="userSpaceOnUse" x1="-1535.6898" y1="-126.394" x2="-1496.864" y2="-126.394" gradientTransform="matrix(-0.9998 2.170000e-02 -2.170000e-02 -0.9998 -1709.4677 -69.4046)">
			<stop  offset="0" style="stop-color:#72D1AB"/>
			<stop  offset="5.405410e-03" style="stop-color:#72D1AB"/>
			<stop  offset="0.5946" style="stop-color:#6DCCCD"/>
			<stop  offset="1" style="stop-color:#517AAC"/>
		</linearGradient>
		<path class="st19" d="M-207.8,20c0,0-10.4-10.2,10.2-12.6c20.6-2.4,31.6,0.2,23.1,10.9c-8.5,10.7-28.7,26.7-32,23.1
			C-209.8,37.7-198.6,33.3-207.8,20L-207.8,20z"/>
	</g>
	<linearGradient id="SVGID_20_" gradientUnits="userSpaceOnUse" x1="-194.0575" y1="-41.8749" x2="-189.8192" y2="-41.8749">
		<stop  offset="0" style="stop-color:#FFC32C"/>
		<stop  offset="5.405410e-03" style="stop-color:#FFFFFF"/>
		<stop  offset="1" style="stop-color:#FF64FB"/>
	</linearGradient>
	<path class="st20" d="M-189.8-41.9c0,1.2-0.9,2.1-2.1,2.1c-1.2,0-2.1-0.9-2.1-2.1c0-1.2,0.9-2.1,2.1-2.1
		C-190.8-44-189.8-43-189.8-41.9z"/>
	<g>
		<path class="st10" d="M-218,5.4L-218,5.4l-1,1c0,0,0,0.1,0,0.1L-218,5.4L-218,5.4L-218,5.4l1.9-1.7c0,0-0.1,0-0.1,0L-218,5.4z"/>
		<path class="st10" d="M-218.6,4.8L-218.6,4.8l0.7-0.7C-218.2,4.2-218.4,4.5-218.6,4.8C-218.6,4.8-218.6,4.8-218.6,4.8
			C-218.6,4.8-218.6,4.8-218.6,4.8L-218.6,4.8L-218.6,4.8z"/>
		<path class="st10" d="M-216.6,6.8L-216.6,6.8L-216.6,6.8l-1.4,1.4c0,0,0.1,0,0.1,0.1L-216.6,6.8L-216.6,6.8l2.2-2l0,0l0,0
			c0,0,0-0.1-0.1-0.1l0,0l0,0L-216.6,6.8z"/>
		<path class="st10" d="M-216.3,7.2L-216.3,7.2l-1.3,1.3c0,0,0.1,0,0.1,0L-216.3,7.2L-216.3,7.2L-216.3,7.2l2.1-1.9c0,0,0-0.1,0-0.1
			L-216.3,7.2L-216.3,7.2z"/>
		<path class="st10" d="M-217,6.5L-217,6.5l-1.4,1.4c0,0,0,0,0.1,0.1L-217,6.5L-217,6.5L-217,6.5l2.1-2l0,0l0,0l0,0c0,0,0,0-0.1-0.1
			l0,0l0,0l0,0L-217,6.5L-217,6.5z"/>
		<path class="st10" d="M-217.3,6.1L-217.3,6.1l-1.3,1.3c0,0,0,0.1,0.1,0.1L-217.3,6.1L-217.3,6.1L-217.3,6.1l2.1-2l0,0l0,0l0,0
			c0,0-0.1,0-0.1,0c0,0,0,0,0,0l0,0l0,0L-217.3,6.1L-217.3,6.1z"/>
		<path class="st10" d="M-215.2,8.2L-215.2,8.2l-0.2,0.2C-215.3,8.3-215.3,8.3-215.2,8.2C-215.2,8.2-215.2,8.2-215.2,8.2
			c0.1,0,0.2,0,0.2-0.1l0.4-0.4c0.1-0.1,0.2-0.3,0.2-0.4L-215.2,8.2L-215.2,8.2z"/>
		<path class="st10" d="M-217.7,5.8L-217.7,5.8l-1.2,1.2c0,0,0,0.1,0,0.1L-217.7,5.8L-217.7,5.8L-217.7,5.8l2.1-1.9c0,0-0.1,0-0.1,0
			L-217.7,5.8L-217.7,5.8z"/>
		<path class="st10" d="M-218.3,5.1L-218.3,5.1l1.5-1.5c-0.1,0-0.1,0-0.2,0L-218.3,5.1L-218.3,5.1L-218.3,5.1l-0.7,0.6
			c0,0.1,0,0.1,0,0.2L-218.3,5.1L-218.3,5.1z"/>
		<path class="st10" d="M-215.6,7.9L-215.6,7.9l-0.8,0.8c0.1,0,0.1,0,0.2,0L-215.6,7.9L-215.6,7.9l1.5-1.4c0-0.1,0-0.1,0-0.2
			L-215.6,7.9L-215.6,7.9z"/>
		<path class="st10" d="M-215.9,7.6L-215.9,7.6l1.8-1.8c0,0,0-0.1,0-0.1L-215.9,7.6L-215.9,7.6L-215.9,7.6l-1.2,1c0,0,0.1,0,0.1,0
			L-215.9,7.6z"/>
	</g>
</g>
</svg>
