<svg xmlns="http://www.w3.org/2000/svg" xmlns:xlink="http://www.w3.org/1999/xlink" viewBox="0 0 517.05 480.88"><defs><style>.cls-1{fill:none;}.cls-2{isolation:isolate;}.cls-3{fill:url(#linear-gradient);}.cls-4{fill:url(#linear-gradient-2);}.cls-5{fill:url(#linear-gradient-3);}.cls-6{fill:url(#linear-gradient-4);}.cls-7{fill:url(#linear-gradient-5);}.cls-8{fill:url(#linear-gradient-6);}.cls-9{fill:url(#linear-gradient-7);}.cls-10{fill:url(#linear-gradient-8);}.cls-11,.cls-14,.cls-17,.cls-19,.cls-22,.cls-24{fill-rule:evenodd;}.cls-11{fill:url(#linear-gradient-9);}.cls-12{fill:url(#linear-gradient-10);}.cls-13{fill:#474848;}.cls-14{fill:url(#linear-gradient-11);}.cls-15,.cls-20,.cls-23,.cls-25{mix-blend-mode:multiply;}.cls-16{fill:url(#linear-gradient-12);}.cls-17{fill:url(#linear-gradient-13);}.cls-18{fill:#fff;}.cls-19{fill:#6d6d6c;}.cls-20{fill:url(#radial-gradient);}.cls-21{clip-path:url(#clip-path);}.cls-22{fill:url(#linear-gradient-14);}.cls-23{fill:url(#radial-gradient-2);}.cls-24{fill:url(#linear-gradient-15);}.cls-25{fill:url(#linear-gradient-16);}</style><linearGradient id="linear-gradient" x1="54.6" y1="175.06" x2="63.63" y2="175.06" gradientUnits="userSpaceOnUse"><stop offset="0" stop-color="#e94858"/><stop offset="0.01" stop-color="#e94858"/><stop offset="0.59" stop-color="#ef7b42"/><stop offset="1" stop-color="#e5cb1a"/></linearGradient><linearGradient id="linear-gradient-2" x1="-870.12" y1="402.19" x2="-783.24" y2="402.19" gradientTransform="matrix(-0.84, -0.55, 0.55, -0.84, -441.91, 296.87)" xlink:href="#linear-gradient"/><linearGradient id="linear-gradient-3" x1="-421.88" y1="47.91" x2="-352.17" y2="47.91" gradientTransform="translate(289.63 344.11) rotate(61.83)" xlink:href="#linear-gradient"/><linearGradient id="linear-gradient-4" x1="338.53" y1="36.47" x2="347.94" y2="36.47" xlink:href="#linear-gradient"/><linearGradient id="linear-gradient-5" x1="377.42" y1="451.02" x2="385.8" y2="451.02" xlink:href="#linear-gradient"/><linearGradient id="linear-gradient-6" x1="-253.38" y1="-69.44" x2="-222.6" y2="-69.44" gradientTransform="translate(50.91 451.6) rotate(65.22)" xlink:href="#linear-gradient"/><linearGradient id="linear-gradient-7" x1="510.79" y1="443.4" x2="515.84" y2="443.4" xlink:href="#linear-gradient"/><linearGradient id="linear-gradient-8" x1="139.98" y1="270.25" x2="249.39" y2="270.25" gradientTransform="translate(213.55 114.57) rotate(31.87)" xlink:href="#linear-gradient"/><linearGradient id="linear-gradient-9" x1="286.72" y1="479.75" x2="288.99" y2="479.75" xlink:href="#linear-gradient"/><linearGradient id="linear-gradient-10" x1="-44.85" y1="-10.08" x2="-9.7" y2="-10.08" gradientTransform="translate(134.57 52.09) rotate(38.13)" xlink:href="#linear-gradient"/><linearGradient id="linear-gradient-11" x1="-194.25" y1="1131.55" x2="55.42" y2="1131.55" gradientTransform="matrix(0.38, -0.93, 0.93, 0.38, -744.2, -291.74)" gradientUnits="userSpaceOnUse"><stop offset="0" stop-color="#fcc231"/><stop offset="0.01" stop-color="#fcc231"/><stop offset="1" stop-color="#be76af"/></linearGradient><linearGradient id="linear-gradient-12" x1="17.72" y1="376.1" x2="435.48" y2="376.1" gradientTransform="translate(-15.19 -120.58) rotate(-9.59)" gradientUnits="userSpaceOnUse"><stop offset="0" stop-color="#7ac3a6"/><stop offset="0.01" stop-color="#7ac3a6"/><stop offset="0.59" stop-color="#71c5ca"/><stop offset="1" stop-color="#527bae"/></linearGradient><linearGradient id="linear-gradient-13" x1="41.35" y1="-1518.23" x2="81.38" y2="-1518.23" gradientTransform="matrix(0, -1, -1, 0, -1274.47, 81.38)" xlink:href="#linear-gradient-12"/><radialGradient id="radial-gradient" cx="304.84" cy="259.17" r="207.83" gradientUnits="userSpaceOnUse"><stop offset="0.22" stop-color="#010101"/><stop offset="0.4" stop-color="#525252"/><stop offset="0.58" stop-color="#9b9b9b"/><stop offset="0.73" stop-color="#d1d1d1"/><stop offset="0.84" stop-color="#f2f2f2"/><stop offset="0.9" stop-color="#fff"/></radialGradient><clipPath id="clip-path"><path class="cls-1" d="M273.87,63.13c-77.52,0-140.59,63.07-140.59,140.6S196.35,344.3,273.87,344.3s140.58-63.06,140.58-140.57S351.39,63.13,273.87,63.13Z"/></clipPath><linearGradient id="linear-gradient-14" x1="-264.38" y1="-1335.53" x2="-224.35" y2="-1335.53" gradientTransform="matrix(0, -1, -1, 0, -1274.47, 81.38)" xlink:href="#linear-gradient-11"/><radialGradient id="radial-gradient-2" cx="-199.57" cy="957.65" r="79.08" gradientTransform="matrix(1.17, -0.57, 0.31, 0.63, 115.18, -416)" gradientUnits="userSpaceOnUse"><stop offset="0" stop-color="#010101"/><stop offset="0.24" stop-color="#525252"/><stop offset="0.48" stop-color="#9b9b9b"/><stop offset="0.67" stop-color="#d1d1d1"/><stop offset="0.82" stop-color="#f2f2f2"/><stop offset="0.9" stop-color="#fff"/></radialGradient><linearGradient id="linear-gradient-15" x1="-2200.89" y1="3.21" x2="-2064.12" y2="3.21" gradientTransform="matrix(-1, 0.02, -0.02, -1, -1978.28, 357.46)" xlink:href="#linear-gradient-12"/><linearGradient id="linear-gradient-16" x1="142.08" y1="75.71" x2="157.01" y2="75.71" gradientUnits="userSpaceOnUse"><stop offset="0" stop-color="#fcc231"/><stop offset="0.01" stop-color="#fff"/><stop offset="1" stop-color="#be76af"/></linearGradient></defs><title>aaaaa</title><g class="cls-2"><g id="Layer_1" data-name="Layer 1"><path class="cls-3" d="M59.12,170.49a4.65,4.65,0,0,1,3.22,1.34,4.42,4.42,0,0,1,1.29,3.28,4.31,4.31,0,0,1-1.29,3.17,4.53,4.53,0,0,1-6.45,0,4.31,4.31,0,0,1-1.29-3.17,4.42,4.42,0,0,1,1.29-3.28,4.68,4.68,0,0,1,3.23-1.34Zm1.29,3.23a1.79,1.79,0,0,0-1.29-.55,2.24,2.24,0,0,0-1.4.55,2,2,0,0,0-.43,1.39,1.88,1.88,0,0,0,.43,1.29,2.28,2.28,0,0,0,1.4.54,1.82,1.82,0,0,0,1.29-.54,1.72,1.72,0,0,0,0-2.68Z"/><path class="cls-4" d="M505.7,437a1.34,1.34,0,0,1,.46,1.85,1.44,1.44,0,0,1-1.94.4l-42-27.6a1.36,1.36,0,0,1-.4-1.94,1.29,1.29,0,0,1,1.88-.31ZM459,406.23a1.24,1.24,0,0,1,.37,1.78,1.33,1.33,0,0,1-1.84.46l-6.65-4.37a1.33,1.33,0,0,1-.31-1.87,1.24,1.24,0,0,1,1.78-.38Zm-11.67-7.68a1.34,1.34,0,0,1,.46,1.84,1.43,1.43,0,0,1-1.94.4l-11.95-7.85a1.4,1.4,0,0,1-.3-1.87,1.29,1.29,0,0,1,1.78-.37Z"/><path class="cls-5" d="M38.13,2.19A1.21,1.21,0,0,1,37.84.52,1.18,1.18,0,0,1,39.53.23L87.79,33.61a11.56,11.56,0,0,1,3,16.08,11.45,11.45,0,0,1-7.42,4.75,11.3,11.3,0,0,1-8.6-1.84L49.87,35.42a1.19,1.19,0,0,1-.33-1.66,1.24,1.24,0,0,1,1.69-.36L76.08,50.55a9.12,9.12,0,0,0,10.36-15Z"/><path class="cls-6" d="M343.26,31.77a4.61,4.61,0,0,1,4.68,4.68,4.77,4.77,0,0,1-1.35,3.33,4.68,4.68,0,0,1-6.66,0,4.82,4.82,0,0,1-1.4-3.33,4.71,4.71,0,0,1,1.4-3.33,4.63,4.63,0,0,1,3.33-1.35Zm1.4,3.22a2.09,2.09,0,0,0-1.4-.59,2.36,2.36,0,0,0-1.45.59,2,2,0,0,0-.59,1.46,2.06,2.06,0,0,0,.59,1.45,2.1,2.1,0,0,0,1.45.59,1.88,1.88,0,0,0,1.4-.59,2.06,2.06,0,0,0,.59-1.45,2,2,0,0,0-.59-1.46Z"/><path class="cls-7" d="M381.61,446.86a4.14,4.14,0,0,1,2.9,1.18,4,4,0,0,1,1.29,2.9,4.19,4.19,0,0,1-1.29,3.06,4.37,4.37,0,0,1-2.9,1.18,4.48,4.48,0,0,1-3-1.18,4.35,4.35,0,0,1-1.18-3.06,4.16,4.16,0,0,1,1.18-2.9,4.25,4.25,0,0,1,3-1.18Zm1,3.11a1.24,1.24,0,0,0-1-.48,1.28,1.28,0,0,0-1.07.48,1.19,1.19,0,0,0-.43,1,1.43,1.43,0,0,0,.43,1.13,1.41,1.41,0,0,0,1.07.43,1.35,1.35,0,0,0,1-.43,1.68,1.68,0,0,0,.49-1.13,1.43,1.43,0,0,0-.49-1Z"/><path class="cls-8" d="M27.85,214.91a1.32,1.32,0,0,1-1.56,2.14L14,208a1.31,1.31,0,1,1,1.58-2.08ZM12.24,203.42a1.26,1.26,0,0,1,.33,1.86,1.33,1.33,0,0,1-1.88.28l-2.95-2.14a1.35,1.35,0,0,1,1.61-2.16ZM6.41,199a1.34,1.34,0,0,1-1.6,2.16L.54,197.93a1.27,1.27,0,0,1-.26-1.83,1.22,1.22,0,0,1,1.83-.26Z"/><path class="cls-9" d="M513.31,440.84a2.58,2.58,0,0,1,1.78.76h0a2.37,2.37,0,0,1,.75,1.77,2.59,2.59,0,0,1-.75,1.83h0a2.48,2.48,0,0,1-3.55,0h0a2.59,2.59,0,0,1-.75-1.83,2.37,2.37,0,0,1,.75-1.77h0a2.58,2.58,0,0,1,1.77-.76Zm0,2.53Zm0,0Zm0,0h0m0,0h0"/><path class="cls-10" d="M190.21,419.86a1.42,1.42,0,0,1-.45-1.93,1.37,1.37,0,0,1,1.87-.35L268,465.07a1.27,1.27,0,0,1,.41,1.78,1.33,1.33,0,0,1-1.83.51Zm84.87,52.77a1.34,1.34,0,0,1-.35-1.87,1.28,1.28,0,0,1,1.78-.41l5.66,3.51a1.37,1.37,0,0,1,.5,1.84,1.41,1.41,0,0,1-1.92.45Z"/><path class="cls-11" d="M287.83,480.88a1.18,1.18,0,0,0,1.16-1.15,1.14,1.14,0,0,0-1.16-1.11,1.1,1.1,0,0,0-1.11,1.11,1.13,1.13,0,0,0,1.11,1.15Z"/><path class="cls-12" d="M105.59,17.15a.54.54,0,0,1-.08-.68.51.51,0,0,1,.64,0l27,21.1a.43.43,0,0,1,0,.64.42.42,0,0,1-.57,0Z"/><path class="cls-13" d="M307.35,387.77l-.1.11-14.4,14.39c.07.58.18,1.14.26,1.72l15-15h0l.1-.1,25.81-25.8c-.58-.1-1.15-.21-1.73-.27Z"/><path class="cls-13" d="M298.42,378.84h0L309,368.23a35.78,35.78,0,0,0-10.65,10.57c0,.05-.05.09-.07.14l0,0,0,0Z"/><path class="cls-13" d="M327.1,407.73l-.1.11h0l-19.42,19.4c.39.29.78.56,1.18.82l19.34-19.34.1-.1,29.67-29.68.11-.1.13-.14c-.26-.4-.54-.79-.81-1.17l-.42.42-.1.1Z"/><path class="cls-13" d="M332.07,412.69l-.11.11L313.9,430.87l1.41.57L333,413.79l.11-.11.1-.1,28.32-28.33c-.18-.47-.36-.94-.57-1.4l-28.74,28.74Z"/><path class="cls-13" d="M322.13,402.77l-.09.1-19.75,19.74c.32.34.63.69,1,1L323,403.87l.1-.11.1-.11,29.58-29.57.1-.1.11-.11.67-.67-1-1-.64.65-.11.11-.1.1-29.57,29.57Z"/><path class="cls-13" d="M317.17,397.8l-.1.11L298,417c.26.41.49.83.76,1.23l19.32-19.32.11-.1.1-.11,29.57-29.57L348,369l.1-.1.23-.22c-.38-.26-.79-.48-1.17-.72l-.07,0L347,368l-.11.11L317.28,397.7Z"/><path class="cls-13" d="M347,427.58l-.1.1-2.24,2.24a32.68,32.68,0,0,0,3-1.72.32.32,0,0,0,.12-.08c.85-.54,1.64-1.12,2.43-1.73l6.31-6.31a35.36,35.36,0,0,0,3.54-5.53l-12.92,12.93Z"/><path class="cls-13" d="M312.11,392.94h0L294.74,410.3c.18.48.34,1,.54,1.46l17.93-17.93.1-.1h0l28.5-28.5c-.48-.19-1-.36-1.45-.53l-28.15,28.14Z"/><path class="cls-13" d="M303.28,383.91l.11-.11,21-21c-.79.08-1.57.22-2.34.36l-19.69,19.67-.09.11-.11.1-9,9c-.14.78-.27,1.56-.35,2.34L303.18,384Z"/><path class="cls-13" d="M341.89,422.72h0l-11.06,11.06c.74-.06,1.48-.13,2.21-.23l9.94-9.94.11-.1L363.6,403c.09-.73.18-1.46.22-2.21L342,422.61Z"/><path class="cls-13" d="M337.92,418.75l.1-.1,25.53-25.53c-.08-.58-.16-1.16-.26-1.72l-26.16,26.16h0l-.1.09-15.59,15.59c.58.1,1.15.17,1.73.26Z"/><path class="cls-14" d="M57,204.92C33.43,161.4,195.66,21.88,350,98.05,458,151.35,503,318.1,419.8,357.13,345.36,391.9,85.12,256.9,57,204.92Z"/><g class="cls-15"><path class="cls-16" d="M157.25,312h0c-40.81-10.43-67.69-23.83-79.89-39.84-18.8-24.78-19.27-57-1.32-90.63,15.23-28.59,43.15-56.18,76.58-75.7,36-21,76.52-31.76,114.09-30.24a230.87,230.87,0,0,1,47.54,6.92c104.87,26.8,167,123.89,177.65,184.28,4,22.87.5,39.72-9.67,46.23-18.08,11.54-70.11,18.85-135.79,19.06C278,332.24,207.3,324.73,157.25,312ZM314.12,83a229.12,229.12,0,0,0-47.42-6.89c-82-3.34-161.09,51.09-190.17,105.64-17.85,33.48-17.4,65.46,1.28,90,12.11,15.92,38.88,29.25,79.57,39.64,50,12.79,120.68,20.28,189.05,20.07,65.58-.21,117.5-7.47,135.5-19,10-6.4,13.41-23,9.43-45.7C480.75,206.58,418.75,109.72,314.12,83Z"/></g><path class="cls-17" d="M260.64,8.26h0a19.41,19.41,0,0,0-26.88-4.84l-2,1.47a19.3,19.3,0,0,0-4.83,26.85h0a19.29,19.29,0,0,0,26.84,4.84l2.07-1.42a19.39,19.39,0,0,0,4.83-26.9Z"/><path class="cls-18" d="M420.33,316.84l0,0L414.13,323c0,.25.07.49.11.74l6.43-6.44h0l.05,0,11-11-.73-.11Z"/><path class="cls-18" d="M416.51,313h0l4.54-4.54a15.38,15.38,0,0,0-4.56,4.53.08.08,0,0,0,0,.05l0,0h0Z"/><path class="cls-18" d="M428.79,325.37l-.05.05h0l-8.31,8.31.5.34,8.28-8.27,0,0,12.7-12.7L442,313l.06-.06-.35-.5-.18.18,0,0Z"/><path class="cls-18" d="M430.91,327.5l0,0-7.74,7.73.61.25,7.55-7.56,0,0,.05,0,12.12-12.12c-.08-.21-.16-.41-.25-.6L431,327.45Z"/><path class="cls-18" d="M426.66,323.25l0,0-8.45,8.45c.13.15.27.3.41.44l8.46-8.46,0-.05,0,0L439.78,311l.05-.05,0,0,.29-.29-.44-.41-.27.27-.05.05,0,0L426.71,323.2Z"/><path class="cls-18" d="M424.54,321.13l-.05,0-8.16,8.17a4.52,4.52,0,0,0,.32.52l8.27-8.26,0-.05,0,0,12.66-12.66,0,0,0,0,.09-.1c-.16-.11-.33-.21-.5-.31l0,0,0,0,0,0-12.66,12.66Z"/><path class="cls-18" d="M437.28,333.87l0,0-1,1c.44-.23.87-.47,1.28-.73,0,0,0,0,.05,0,.36-.23.7-.48,1-.74l2.7-2.7a16.65,16.65,0,0,0,1.52-2.36l-5.54,5.53Z"/><path class="cls-18" d="M422.37,319.05h0l-7.43,7.42c.08.21.14.43.23.63l7.67-7.67.05-.05h0l12.19-12.19-.63-.23-12,12Z"/><path class="cls-18" d="M418.6,315.18l0,0,9-9c-.34,0-.67.09-1,.15l-8.41,8.42,0,0-.05.05-3.85,3.85c-.06.33-.11.66-.15,1l4.42-4.42Z"/><path class="cls-18" d="M435.11,331.79h0l-4.73,4.73c.32,0,.63,0,.95-.1l4.25-4.25,0-.05,8.78-8.77c.05-.32.08-.63.1-1l-9.34,9.34Z"/><path class="cls-18" d="M433.41,330.09l0,0,10.93-10.93c0-.24-.06-.49-.11-.74l-11.19,11.2h0l-.05,0-6.67,6.67c.25,0,.5.07.74.11Z"/><polygon class="cls-19" points="190.84 383.72 189.1 383.72 177.52 370.65 179.28 370.65 190.84 383.72"/><polygon class="cls-19" points="194.35 383.76 192.6 383.72 181.03 370.65 182.79 370.65 194.35 383.76"/><polygon class="cls-19" points="201.37 383.76 199.61 383.76 188.03 370.66 189.79 370.66 201.37 383.76"/><polygon class="cls-19" points="197.85 383.72 196.11 383.72 184.53 370.65 186.28 370.66 197.85 383.72"/><polygon class="cls-19" points="204.86 383.76 203.11 383.76 191.54 370.66 193.3 370.66 204.86 383.76"/><polygon class="cls-19" points="211.87 383.79 210.12 383.79 198.55 370.7 200.31 370.7 211.87 383.79"/><polygon class="cls-19" points="215.38 383.79 213.63 383.79 202.05 370.7 203.82 370.7 215.38 383.79"/><polygon class="cls-19" points="208.38 383.79 206.61 383.79 195.06 370.66 196.8 370.66 208.38 383.79"/><polygon class="cls-19" points="176.83 383.68 175.07 383.68 163.5 370.61 165.26 370.63 176.83 383.68"/><polygon class="cls-19" points="156.5 370.58 158.24 370.61 169.81 383.66 168.06 383.66 156.5 370.58"/><path class="cls-19" d="M251.13,370.81h1.75l10.22,11.57a9.35,9.35,0,0,1-1.11.75Z"/><polygon class="cls-19" points="173.32 383.68 171.58 383.68 160 370.61 161.75 370.61 173.32 383.68"/><path class="cls-19" d="M254.65,370.81h1.73l8.37,9.47a5.32,5.32,0,0,1-.74,1.14Z"/><polygon class="cls-19" points="180.33 383.69 178.59 383.69 167.02 370.61 168.76 370.63 180.33 383.69"/><polygon class="cls-19" points="183.84 383.69 182.09 383.69 170.52 370.63 172.27 370.63 183.84 383.69"/><polygon class="cls-19" points="187.34 383.72 185.59 383.69 174.03 370.63 175.78 370.65 187.34 383.72"/><polygon class="cls-19" points="218.88 383.82 217.14 383.79 205.56 370.7 207.31 370.7 218.88 383.82"/><path class="cls-19" d="M152.2,383.51a6.37,6.37,0,0,1-3-1.45l-1.21-1.36a6.72,6.72,0,0,1-1.06-3.2Z"/><path class="cls-19" d="M260.71,383.64a9.39,9.39,0,0,1-1.53.24l-11.55-13.07h1.75Z"/><polygon class="cls-19" points="253.93 383.88 252.18 383.84 240.62 370.8 242.37 370.81 253.93 383.88"/><path class="cls-19" d="M159.3,383.64h-1.74l-9.32-10.52a9.18,9.18,0,0,1,.91-1Z"/><polygon class="cls-19" points="257.43 383.88 255.68 383.88 244.12 370.8 245.87 370.8 257.43 383.88"/><path class="cls-19" d="M155.8,383.64h-1.75l-7-7.95a7.88,7.88,0,0,1,.5-1.41Z"/><path class="cls-19" d="M162.81,383.66h-1.76L150.24,371.4a5.57,5.57,0,0,1,1.26-.52Z"/><path class="cls-19" d="M265.46,377.36a6.83,6.83,0,0,1-.19,1.5l-7.13-8h.8A6.54,6.54,0,0,1,265.46,377.36Z"/><path class="cls-19" d="M166.32,383.66h-1.75L153,370.61a2.6,2.6,0,0,1,.4,0h1.34Z"/><polygon class="cls-19" points="222.39 383.82 220.64 383.79 209.07 370.7 210.83 370.7 222.39 383.82"/><polygon class="cls-19" points="229.4 383.82 227.65 383.82 216.09 370.72 217.84 370.72 229.4 383.82"/><polygon class="cls-19" points="232.9 383.82 231.15 383.82 219.59 370.76 221.35 370.76 232.9 383.82"/><polygon class="cls-19" points="225.9 383.82 224.15 383.82 212.57 370.72 214.33 370.72 225.9 383.82"/><polygon class="cls-19" points="236.41 383.82 234.66 383.82 223.08 370.76 224.84 370.76 236.41 383.82"/><polygon class="cls-19" points="246.91 383.84 245.17 383.84 233.6 370.76 235.35 370.76 246.91 383.84"/><polygon class="cls-19" points="250.41 383.88 248.67 383.84 237.11 370.8 238.86 370.8 250.41 383.88"/><polygon class="cls-19" points="243.42 383.84 241.67 383.84 230.09 370.76 231.84 370.76 243.42 383.84"/><polygon class="cls-19" points="239.91 383.84 238.16 383.82 226.6 370.76 228.35 370.76 239.91 383.84"/><path class="cls-20" d="M517.05,260c0,116.75-94.65,211.4-211.4,211.4S94.25,376.79,94.25,260s94.65-211.4,211.4-211.4S517.05,143.29,517.05,260Z"/><ellipse class="cls-18" cx="275.62" cy="201.79" rx="160.63" ry="158.55"/><g class="cls-21"><image width="1865" height="2301" transform="translate(164.26 61.84) scale(0.13)" xlink:href="../Downloads/BM.png"/></g><path class="cls-22" d="M78,314h0a19.38,19.38,0,0,0-26.89-4.84L49,310.59a19.38,19.38,0,0,0-4.83,26.9h0a19.36,19.36,0,0,0,26.88,4.83l2.07-1.43A19.43,19.43,0,0,0,78,314Z"/><path class="cls-23" d="M272.36,255.71c13.72,28-17.19,71.3-69,96.69s-105,23.27-118.7-4.73,17.19-71.29,69-96.68S258.64,227.71,272.36,255.71Z"/><path class="cls-24" d="M93.78,293.51s-36.47-36,35.94-44.49,111.2.82,81.37,38.5S110,381.46,98.28,368.75s27.62-28.08-4.5-75.24Z"/><path class="cls-25" d="M157,75.71a7.47,7.47,0,1,1-7.47-7.46A7.47,7.47,0,0,1,157,75.71Z"/><path class="cls-13" d="M57.74,242.27l0,0-3.55,3.55c0,.14,0,.28.06.42l3.71-3.7h0l0,0,6.36-6.36-.43-.07Z"/><path class="cls-13" d="M55.54,240.07h0l2.62-2.61a8.73,8.73,0,0,0-2.63,2.61l0,0h0Z"/><path class="cls-13" d="M62.61,247.19l0,0h0L57.8,252l.29.2,4.76-4.76,0,0,7.31-7.31,0,0,0,0-.2-.29-.11.1,0,0Z"/><path class="cls-13" d="M63.83,248.42l0,0-4.45,4.45.35.15,4.35-4.35,0,0,0,0,7-7c0-.13-.09-.24-.14-.35l-7.08,7.08Z"/><path class="cls-13" d="M61.38,246l0,0-4.87,4.87.24.25,4.87-4.87,0,0,0,0,7.29-7.28,0,0,0,0,.17-.17-.25-.23-.16.16,0,0,0,0-7.29,7.28Z"/><path class="cls-13" d="M60.16,244.74l0,0-4.71,4.71c.07.09.12.2.19.3L60.38,245l0,0,0,0,7.29-7.29,0,0,0,0,.06-.06a2.82,2.82,0,0,1-.29-.18h0l0,0,0,0-7.29,7.29Z"/><path class="cls-13" d="M67.5,252.09l0,0-.56.55c.25-.13.5-.27.73-.42l0,0a6.51,6.51,0,0,0,.6-.43l1.56-1.55a9.32,9.32,0,0,0,.87-1.37l-3.18,3.19Z"/><path class="cls-13" d="M58.91,243.55h0l-4.27,4.28a3.62,3.62,0,0,0,.13.35l4.41-4.41,0,0h0l7-7a3.82,3.82,0,0,0-.36-.13l-6.93,6.94Z"/><path class="cls-13" d="M56.74,241.32l0,0,5.18-5.18-.57.08-4.85,4.85,0,0,0,0-2.22,2.22c0,.19-.07.38-.09.58l2.55-2.55Z"/><path class="cls-13" d="M66.25,250.88h0l-2.72,2.73.54-.06,2.45-2.44,0,0,5-5.05c0-.19,0-.37.06-.55l-5.39,5.38Z"/><path class="cls-13" d="M65.28,249.91l0,0,6.29-6.3-.06-.42-6.45,6.44h0l0,0-3.84,3.84.43.06Z"/></g></g></svg>