<svg width="530" height="699" viewBox="0 0 530 699" fill="none" xmlns="http://www.w3.org/2000/svg">
<path d="M449.195 519.085C441.291 509.784 430.359 504.184 422.761 502.047C415.647 500.044 404.861 498.219 393.88 500.897C387.06 502.561 381.087 505.774 376.128 510.449C370.254 515.987 365.768 523.622 362.797 533.143C362.352 534.573 362.5 536.084 363.215 537.403C363.933 538.727 365.127 539.682 366.579 540.09L385.233 545.341C387.865 546.082 390.681 544.755 391.782 542.254C394.256 536.637 400.5 527.764 414.528 531.453C425.217 534.269 427.435 543.198 427.893 546.91C428.641 552.949 426.262 559.193 421.532 563.61C414.264 570.396 404.78 569.079 399.774 567.691C394.015 566.092 388.023 569.445 386.413 575.163L380.763 595.236C379.937 598.168 381.651 601.223 384.583 602.049L402.759 607.165C405.691 607.99 408.746 606.276 409.571 603.344L410.759 599.127C410.787 599.026 410.875 598.956 410.982 598.949C415.507 598.663 424.47 597.42 433.67 592.296C445.415 585.755 453.382 575.288 457.352 561.188C463.033 541.009 456.051 527.153 449.195 519.085Z" fill="#E0E0E0"/>
<path d="M393.153 609.915L391.564 609.468C383.963 607.328 376.037 611.772 373.898 619.374C371.76 626.976 376.202 634.9 383.804 637.039L385.394 637.486C392.994 639.626 400.92 635.182 403.059 627.58C405.198 619.978 400.755 612.055 393.153 609.915Z" fill="#E0E0E0"/>
<path d="M495.872 384.407C490.383 381.401 484.121 380.723 480.091 381.091C476.316 381.436 470.817 382.538 466.049 385.832C463.088 387.878 460.816 390.512 459.298 393.659C457.5 397.387 456.751 401.866 457.072 406.969C457.121 407.734 457.469 408.431 458.053 408.931C458.64 409.434 459.387 409.672 460.157 409.602L470.053 408.698C471.449 408.571 472.554 407.42 472.623 406.02C472.778 402.877 474.143 397.484 481.537 396.68C487.172 396.07 489.869 399.939 490.769 401.632C492.233 404.387 492.238 407.812 490.783 410.795C488.546 415.377 483.763 416.483 481.111 416.736C478.061 417.025 475.805 419.729 476.082 422.762L477.054 433.411C477.196 434.966 478.577 436.115 480.131 435.974L489.773 435.094C491.328 434.952 492.477 433.572 492.335 432.017L492.131 429.779C492.125 429.726 492.155 429.676 492.205 429.653C494.318 428.688 498.383 426.449 501.851 422.31C506.276 417.025 508.174 410.553 507.491 403.074C506.515 392.37 500.634 387.015 495.872 384.407Z" fill="#F5F5F5"/>
<path d="M485.68 438.171L484.836 438.248C480.804 438.617 477.823 442.196 478.191 446.229C478.56 450.262 482.138 453.241 486.171 452.874L487.015 452.797C491.047 452.428 494.028 448.849 493.66 444.817C493.291 440.784 489.711 437.803 485.68 438.171Z" fill="#F5F5F5"/>
<path d="M116.194 180.573C112.475 176.909 107.606 174.938 104.288 174.314C101.181 173.73 96.5171 173.359 91.9408 174.916C89.0981 175.882 86.6744 177.478 84.7383 179.657C82.4446 182.238 80.8227 185.661 79.9175 189.829C79.782 190.455 79.9022 191.093 80.257 191.628C80.6132 192.166 81.158 192.526 81.7922 192.647L89.939 194.178C91.0887 194.394 92.2383 193.722 92.6127 192.614C93.4536 190.128 95.7795 186.112 101.895 187.153C106.555 187.949 107.838 191.669 108.174 193.232C108.721 195.777 107.944 198.526 106.096 200.587C103.256 203.753 99.1656 203.551 96.9795 203.147C94.4664 202.685 92.04 204.339 91.5706 206.836L89.9222 215.602C89.682 216.882 90.5271 218.119 91.8067 218.36L99.7439 219.852C101.024 220.092 102.261 219.247 102.501 217.967L102.848 216.126C102.856 216.081 102.891 216.049 102.936 216.042C104.852 215.749 108.624 214.88 112.35 212.35C117.106 209.119 120.105 204.36 121.262 198.202C122.919 189.389 119.421 183.751 116.194 180.573Z" fill="#F5F5F5"/>
<path d="M95.7554 221.388L95.0612 221.258C91.7421 220.633 88.5334 222.826 87.9089 226.145C87.2845 229.465 89.4777 232.673 92.7968 233.298L93.491 233.428C96.8101 234.052 100.019 231.859 100.643 228.54C101.266 225.221 99.0745 222.012 95.7554 221.388Z" fill="#F5F5F5"/>
<path d="M474.512 183.373C469.035 180.346 462.776 179.643 458.745 179.995C454.969 180.325 449.465 181.405 444.685 184.68C441.715 186.714 439.434 189.339 437.903 192.481C436.09 196.202 435.323 200.676 435.625 205.782C435.669 206.548 436.016 207.246 436.597 207.749C437.182 208.255 437.928 208.495 438.698 208.428L448.596 207.563C449.993 207.442 451.102 206.295 451.178 204.895C451.345 201.752 452.731 196.366 460.128 195.59C465.766 195.002 468.448 198.883 469.34 200.58C470.793 203.34 470.785 206.767 469.318 209.742C467.063 214.316 462.276 215.403 459.622 215.644C456.571 215.922 454.304 218.617 454.569 221.651L455.5 232.303C455.635 233.859 457.011 235.013 458.567 234.877L468.212 234.035C469.768 233.899 470.922 232.523 470.786 230.967L470.591 228.729C470.586 228.676 470.616 228.626 470.666 228.604C472.784 227.647 476.857 225.424 480.341 221.299C484.788 216.033 486.711 209.568 486.057 202.086C485.124 191.379 479.263 185.999 474.512 183.373Z" fill="#EBEBEB"/>
<path d="M464.104 237.097L463.261 237.171C459.228 237.523 456.233 241.09 456.585 245.125C456.937 249.159 460.504 252.154 464.539 251.801L465.383 251.727C469.415 251.375 472.41 247.807 472.058 243.773C471.706 239.74 468.139 236.745 464.104 237.097Z" fill="#EBEBEB"/>
<path d="M173.213 505.269C166.358 502.041 158.741 501.684 153.899 502.425C149.363 503.12 142.799 504.857 137.28 509.191C133.852 511.881 131.301 515.231 129.699 519.146C127.8 523.784 127.225 529.252 127.99 535.395C128.105 536.317 128.577 537.134 129.32 537.696C130.066 538.26 130.987 538.494 131.911 538.351L143.803 536.53C145.481 536.273 146.731 534.8 146.713 533.104C146.67 529.295 147.921 522.676 156.797 521.161C163.563 520.008 167.108 524.485 168.321 526.466C170.293 529.688 170.551 533.827 169.012 537.538C166.647 543.24 160.948 544.931 157.761 545.431C154.097 546.006 151.57 549.438 152.128 553.084L154.087 565.88C154.374 567.749 156.127 569.036 157.996 568.751L169.582 566.977C171.451 566.69 172.738 564.937 172.453 563.068L172.041 560.379C172.031 560.315 172.063 560.252 172.122 560.221C174.605 558.898 179.352 555.894 183.237 550.636C188.196 543.923 190.012 535.962 188.636 526.973C186.662 514.109 179.159 508.07 173.213 505.269Z" fill="#EBEBEB"/>
<path d="M191.76 570.993L190.746 571.148C185.9 571.89 182.562 576.437 183.305 581.281C184.048 586.126 188.593 589.466 193.438 588.722L194.452 588.567C199.298 587.826 202.637 583.28 201.893 578.434C201.152 573.59 196.605 570.251 191.76 570.993Z" fill="#EBEBEB"/>
<path d="M86.9352 270.417C77.2965 265.899 66.5947 265.414 59.7918 266.469C53.4218 267.457 44.2022 269.914 36.4591 276.014C31.6495 279.804 28.0748 284.516 25.8328 290.021C23.1772 296.542 22.3838 304.225 23.4734 312.855C23.6368 314.15 24.3017 315.297 25.3466 316.083C26.3957 316.874 27.6893 317.199 28.9884 316.998L45.6913 314.41C48.0479 314.045 49.801 311.972 49.7703 309.589C49.699 304.236 51.441 294.935 63.9071 292.783C73.4089 291.147 78.4014 297.429 80.1099 300.207C82.8897 304.729 83.2627 310.543 81.1101 315.762C77.8008 323.779 69.7992 326.168 65.3221 326.879C60.1745 327.696 56.6333 332.525 57.4268 337.646L60.2122 355.62C60.6187 358.245 63.0857 360.05 65.7105 359.643L81.9845 357.122C84.6093 356.715 86.4141 354.248 86.0076 351.624L85.4223 347.848C85.4084 347.757 85.4531 347.67 85.5355 347.626C89.0222 345.761 95.6827 341.528 101.128 334.131C108.079 324.688 110.61 313.499 108.654 300.874C105.854 282.802 95.2971 274.337 86.9352 270.417Z" fill="#EBEBEB"/>
<path d="M75.3601 362.776L73.9366 362.997C67.1308 364.052 62.4512 370.447 63.5058 377.253C64.5605 384.058 70.9556 388.738 77.7613 387.683L79.1848 387.463C85.9906 386.408 90.6702 380.013 89.6156 373.207C88.5609 366.401 82.1658 361.722 75.3601 362.776Z" fill="#EBEBEB"/>
<path d="M302 107.397L314.59 109.495C320.78 116.893 329.252 122.555 339.415 125.259C363.383 131.637 388.741 118.477 397.372 95.2254C407.344 68.3586 392.115 38.6895 364.209 31.2831C340.519 24.9955 315.452 37.7564 306.565 60.5987C302.155 71.9347 302.284 83.8071 305.978 94.3314L305.963 94.3091L302 107.397Z" fill="white"/>
<path d="M302 107.397C302 107.397 302.064 107.123 302.224 106.564C302.393 105.976 302.633 105.144 302.944 104.063C303.605 101.808 304.57 98.5196 305.818 94.2673L305.904 93.9726L306.08 94.2254L306.096 94.2478L305.835 94.3805C303.823 88.6951 302.11 80.5846 303.541 71.0171C304.235 66.2564 305.762 61.2177 308.223 56.2196C310.725 51.2466 314.29 46.3909 318.901 42.1806C323.526 37.9954 329.213 34.4962 335.647 32.2164C342.066 29.9506 349.252 28.8177 356.551 29.5986C363.836 30.3152 371.185 32.7416 377.77 36.8011C384.389 40.8228 390.039 46.715 394.086 53.6772C396.226 57.1555 397.655 60.9691 398.876 64.7701C399.154 65.7298 399.334 66.7132 399.567 67.6799C399.757 68.6549 400.075 69.6048 400.157 70.5938C400.276 71.5759 400.394 72.5551 400.513 73.5316L400.682 74.9941L400.706 76.4623C400.991 84.285 399.319 91.9233 396.283 98.6592C393.272 105.434 388.602 111.113 383.358 115.541C378.084 119.969 372.127 123.108 366.127 124.97C360.113 126.813 354.08 127.408 348.498 127.026C347.108 126.864 345.742 126.705 344.398 126.549C343.06 126.36 341.773 126.007 340.495 125.751C337.945 125.198 335.565 124.36 333.333 123.459C324.369 119.778 318.289 114.172 314.479 109.589L314.565 109.638C310.51 108.925 307.359 108.372 305.192 107.991C304.155 107.803 303.359 107.66 302.792 107.558C302.257 107.457 302 107.397 302 107.397C302 107.397 302.3 107.43 302.855 107.513C303.433 107.601 304.245 107.725 305.3 107.887C307.452 108.227 310.583 108.72 314.613 109.354L314.664 109.362L314.699 109.404C318.538 113.921 324.61 119.433 333.509 123.028C335.724 123.908 338.085 124.727 340.612 125.262C341.879 125.508 343.153 125.853 344.477 126.033C345.807 126.183 347.159 126.334 348.534 126.489C354.055 126.842 360.014 126.232 365.948 124.393C371.868 122.535 377.742 119.42 382.934 115.038C388.099 110.657 392.693 105.052 395.651 98.3701C398.633 91.7264 400.273 84.1956 399.985 76.4902L399.961 75.043L399.794 73.6014C399.676 72.6403 399.559 71.675 399.442 70.7084C399.361 69.7347 399.045 68.7988 398.858 67.8391C398.627 66.8878 398.45 65.9184 398.176 64.9727C396.971 61.2289 395.565 57.4726 393.455 54.046C389.468 47.1871 383.905 41.3802 377.387 37.4143C370.903 33.4108 363.66 31.0109 356.482 30.2942C349.291 29.5134 342.203 30.6183 335.865 32.8394C329.512 35.0745 323.888 38.5137 319.308 42.6332C314.741 46.7778 311.201 51.5623 308.708 56.4682C306.254 61.3993 304.717 66.3807 304.005 71.0911C302.536 80.5566 304.174 88.614 306.113 94.2855L306.466 95.3206L305.851 94.4182L305.836 94.3959L306.099 94.3554C304.791 98.5489 303.78 101.791 303.085 104.014C302.74 105.103 302.476 105.939 302.288 106.531C302.109 107.095 302 107.397 302 107.397Z" fill="#263238"/>
<path d="M362.127 55.858C358.401 53.3883 353.986 52.5305 351.096 52.5501C348.39 52.5683 344.409 53.0223 340.818 55.0799C338.588 56.3581 336.814 58.0959 335.544 60.2443C334.039 62.7895 333.237 65.9311 333.161 69.5827C333.149 70.1303 333.355 70.6471 333.74 71.0383C334.127 71.4308 334.646 71.6459 335.197 71.6417L342.294 71.5928C343.295 71.5859 344.15 70.8329 344.284 69.8411C344.583 67.613 345.88 63.8581 351.189 63.7296C355.236 63.6346 356.924 66.55 357.463 67.8086C358.339 69.8579 358.137 72.2955 356.922 74.3308C355.054 77.4571 351.584 77.9572 349.682 77.9767C347.494 77.9991 345.726 79.7885 345.741 81.9635L345.793 89.6005C345.8 90.7152 346.713 91.6162 347.83 91.6092L354.744 91.5617C355.859 91.5548 356.76 90.6412 356.753 89.525L356.742 87.92C356.742 87.8809 356.766 87.8473 356.802 87.8348C358.365 87.2746 361.391 85.9266 364.108 83.1886C367.575 79.6935 369.314 75.2025 369.278 69.8383C369.222 62.1651 365.358 57.9995 362.127 55.858Z" fill="#168777"/>
<path d="M351.64 93.5069L351.035 93.5111C348.144 93.5307 345.807 95.8998 345.826 98.7915C345.846 101.683 348.215 104.02 351.107 104.001L351.711 103.996C354.603 103.977 356.94 101.608 356.921 98.716C356.901 95.8244 354.532 93.4874 351.64 93.5069Z" fill="#168777"/>
<path d="M368.27 187.182C331.636 162.542 288.08 153.764 259.533 153.764C232.799 153.764 193.455 157.981 157.844 178.067C135.728 190.543 118.083 207.587 105.396 228.726C90.3692 253.765 82.2361 284.746 81.2229 320.812C81.0709 326.222 83.0693 331.342 86.8519 335.232C90.6516 339.14 95.7453 341.292 101.197 341.292H171.297C181.188 341.292 189.692 333.911 191.075 324.126C194.184 302.143 207.231 265.13 259.69 264.225C299.653 263.54 316.143 292.47 321.378 304.942C329.897 325.238 327.737 349.307 315.597 369.325C296.943 400.08 262.627 404.789 243.833 404.857C222.22 404.936 204.635 422.482 204.635 443.97V519.402C204.635 530.418 213.597 539.38 224.613 539.38H292.912C303.928 539.38 312.889 530.418 312.889 519.402V503.553C312.889 503.173 313.127 502.844 313.493 502.715C328.965 497.287 358.954 484.17 385.967 457.313C420.451 423.028 437.935 378.777 437.935 325.79C437.937 249.957 400.052 208.559 368.27 187.182Z" fill="#168777"/>
<path d="M257.045 574.566H262.558C289.682 574.566 311.749 596.634 311.749 623.758C311.749 650.882 289.682 672.949 262.558 672.949H257.045C229.921 672.949 207.854 650.882 207.854 623.758C207.854 596.632 229.921 574.566 257.045 574.566Z" fill="#263238"/>
<path d="M224.35 553.966H292.621C303.632 553.966 312.591 545.288 312.591 534.621V503.781C312.591 503.414 312.828 503.094 313.194 502.97C321.264 500.227 332.555 495.197 345.328 487.344C301.708 487.039 222.2 486.593 204.379 487.244V534.621C204.38 545.288 213.339 553.966 224.35 553.966Z" fill="#263238"/>
<path d="M280.581 212.245L236.77 85.0176C227.519 53.1614 201.268 31.9938 169.68 42.1253L166.816 43.2316C137.99 54.3685 122.535 85.7685 131.32 115.397C139.492 142.963 148.876 173.316 154.595 187.59C166.433 217.139 197.425 208.844 197.425 208.844C197.493 208.821 204.323 228.539 207.31 237.391L223.356 253.246L229.984 246.005L280.581 212.245Z" fill="#E0E9E8"/>
<path d="M197.422 208.844C197.422 208.844 216.56 202.712 231.664 182.479C231.664 182.479 230.988 208.394 200.328 217.167L197.422 208.844Z" fill="#168777" fill-opacity="0.18"/>
<path d="M152.755 135.488C153.54 137.758 156.111 138.963 158.495 138.186C160.875 137.41 162.174 134.945 161.389 132.675C160.604 130.405 158.033 129.196 155.651 129.972C153.267 130.748 151.969 133.218 152.755 135.488Z" fill="#263238"/>
<path d="M142.21 124.625C142.948 124.975 145.241 121.356 149.811 119.606C154.347 117.791 158.603 118.846 158.881 118.095C159.028 117.754 158.108 116.962 156.24 116.464C154.397 115.963 151.552 115.879 148.714 116.99C145.878 118.104 143.892 120.073 142.931 121.676C141.944 123.294 141.854 124.478 142.21 124.625Z" fill="#263238"/>
<path d="M190.903 120.354C191.643 120.703 193.942 117.085 198.505 115.335C203.042 113.521 207.298 114.575 207.577 113.824C207.723 113.483 206.809 112.691 204.935 112.195C203.092 111.692 200.246 111.61 197.408 112.719C194.572 113.835 192.586 115.804 191.624 117.405C190.642 119.023 190.55 120.207 190.903 120.354Z" fill="#263238"/>
<path d="M184.521 149.786C184.442 149.519 181.417 150.124 176.595 151.311C175.383 151.641 174.191 151.837 173.687 151.117C173.088 150.381 173.09 148.937 173.13 147.362C173.136 144.119 173.141 140.72 173.147 137.159C173.052 122.679 172.503 110.955 171.92 110.963C171.336 110.974 170.941 122.716 171.035 137.196C171.088 140.757 171.133 144.15 171.183 147.396C171.254 148.89 171.076 150.686 172.345 152.203C172.995 152.952 174.095 153.253 174.919 153.166C175.755 153.106 176.415 152.865 177.004 152.678C181.727 151.14 184.604 150.053 184.521 149.786Z" fill="#263238"/>
<path d="M180.353 94.706C181.424 95.6307 185.377 92.6952 190.722 90.4982C196.024 88.1911 200.883 87.3982 200.965 85.9863C200.982 85.3223 199.668 84.6241 197.406 84.4146C195.161 84.1974 191.982 84.576 188.787 85.9243C185.597 87.2772 183.112 89.2958 181.703 91.0583C180.279 92.8271 179.863 94.256 180.353 94.706Z" fill="#263238"/>
<path d="M136.816 111.301C138.155 111.99 141.491 109.529 145.966 107.819C150.388 105.978 154.521 105.456 154.994 104.041C155.182 103.371 154.198 102.549 152.172 102.175C150.17 101.796 147.134 102.006 144.076 103.224C141.019 104.446 138.694 106.379 137.525 108.023C136.334 109.681 136.208 110.947 136.816 111.301Z" fill="#263238"/>
<path d="M242.352 106.503C242.772 106.088 260.421 92.587 267.615 113.136C274.808 133.684 252.696 136.668 252.452 136.092C252.212 135.515 242.352 106.503 242.352 106.503Z" fill="#E0E9E8"/>
<path d="M256.004 126.107C256.071 126.01 256.45 126.232 257.152 126.298C257.837 126.362 258.917 126.193 259.847 125.415C261.739 123.859 262.361 119.773 261.163 116.033C260.561 114.145 259.545 112.502 258.367 111.259C257.213 109.976 255.874 109.266 254.712 109.455C253.536 109.585 252.991 110.51 252.943 111.175C252.869 111.846 253.143 112.21 253.045 112.285C253.007 112.356 252.484 112.094 252.352 111.188C252.295 110.749 252.364 110.181 252.71 109.618C253.063 109.044 253.716 108.586 254.506 108.401C256.128 107.956 258.065 108.915 259.36 110.277C260.744 111.618 261.93 113.45 262.606 115.571C263.923 119.757 263.162 124.374 260.491 126.273C259.177 127.158 257.82 127.142 257.027 126.875C256.214 126.59 255.945 126.17 256.004 126.107Z" fill="#168777" fill-opacity="0.18"/>
<path d="M200.031 147.72C199.306 147.917 200.884 152.66 197.952 157.383C195.03 162.115 189.799 163.273 189.983 163.949C190.017 164.269 191.417 164.494 193.57 163.838C195.687 163.209 198.517 161.515 200.312 158.626C202.096 155.732 202.239 152.623 201.752 150.625C201.268 148.583 200.346 147.585 200.031 147.72Z" fill="#263238"/>
<path d="M80.0119 100.966C79.9126 99.6429 80.4417 98.3365 81.2966 97.3203C83.16 95.1016 85.9342 94.332 88.5376 93.3669C95.0169 90.9667 100.893 87.0227 105.664 82.0268C103.277 81.7133 100.945 81.1331 98.7731 80.0951C94.2876 77.954 90.5934 73.5554 90.55 68.5858C90.5422 67.6533 90.7191 66.6107 91.4685 66.0552C92.6585 65.1755 94.2876 66.0738 95.5832 66.786C99.8452 69.1257 103.187 69.5974 107.587 67.5292C110.32 66.2445 112.841 64.6418 114.58 62.4696C114.636 62.3455 114.679 62.2152 114.737 62.0926C115.416 60.614 116.088 59.1943 116.757 57.815C116.757 57.8104 116.76 57.8073 116.76 57.8026L116.759 57.8104C121.784 47.4259 126.557 39.7768 132.428 34.6133C141.031 27.0449 157.221 19.5013 168.64 18.5611C180.061 17.6209 192.436 22.7937 197.663 32.9904C201.78 25.9681 210.596 22.9101 218.747 23.2638L218.899 23.1226C227.85 23.1552 235.327 29.9649 240.531 37.2463C240.815 37.645 241.085 38.0546 241.363 38.458C245.553 41.7737 250.493 44.1367 255.745 45.1389C256.672 45.3158 257.745 45.5532 258.15 46.405C258.552 47.249 258.068 48.2358 257.531 49.0023C256.105 51.0394 254.201 52.7182 252.039 53.9439C253.444 55.6149 254.957 57.1866 256.644 58.6032C258.077 59.8072 259.784 61.2517 259.557 63.1089C259.382 64.5456 258.006 65.596 256.585 65.8752C255.165 66.153 253.703 65.8271 252.293 65.5044C253.928 67.3151 255.562 69.1273 257.198 70.9379C254.498 72.4522 251.437 73.2714 248.344 73.408C249.327 81.5861 253.005 96.0775 252.864 101.905C247.448 103.92 245.915 103.795 243.485 105.677C240.346 108.11 243.919 113.926 238.663 113.768C235.986 113.687 229.225 106.034 227.59 103.911C216.749 89.831 209.002 73.3862 205.026 56.068C200.495 53.7174 195.508 52.2496 190.427 51.7687L190.896 51.9642C181.472 52.0061 170.963 52.4839 164.386 59.2331C159.285 64.468 157.912 72.1605 155.094 78.9051C149.755 91.6882 141.667 100.355 128.811 105.517C130.828 114.997 135.703 129.946 138.241 138.562L125.052 124.174L125.07 124.244C124.136 123.457 123.303 122.627 122.484 121.79L122.217 121.541L122.204 121.503C120.898 120.154 119.626 118.79 118.13 117.529C118.111 117.563 118.093 117.596 118.074 117.63C114.915 123.288 105.983 119.486 107.862 113.282C108.234 112.052 108.785 110.879 109.513 109.813C108.112 112.518 105.319 114.561 102.275 114.685C99.2308 114.809 96.12 112.78 95.3504 109.832C94.8245 107.82 95.6064 105.581 97.099 104.186C93.4979 105.775 89.4267 106.304 85.5509 105.599C83.008 105.135 80.2322 103.882 80.0119 100.966Z" fill="#263238"/>
<path d="M189.422 39.7705C189.39 39.8698 190.961 40.1211 193.408 41.4648C195.835 42.8053 198.985 45.5174 201.537 49.8182C202.82 51.9501 204.022 54.417 204.995 57.1849C205.982 59.9482 206.804 62.9908 207.693 66.1885C208.592 69.3831 209.53 72.7608 210.941 76.123C211.645 77.8002 212.466 79.4712 213.451 81.0833C214.432 82.6612 215.536 84.3617 217.349 85.3795C218.801 86.2158 220.709 86.1428 222.092 85.3112C223.5 84.5168 224.554 83.2461 225.148 81.8109C226.287 78.8739 225.761 75.8406 225.351 73.1503L224.748 73.4482C226.577 75.3519 228.425 77.2199 230.622 78.4565C232.797 79.7133 235.351 80.1508 237.59 79.5798C238.705 79.2959 239.734 78.7405 240.497 77.9461C241.281 77.1517 241.694 76.1246 241.872 75.13C242.024 74.1277 241.933 73.1177 241.571 72.2411C241.207 71.3675 240.56 70.643 239.782 70.2442L239.563 70.6414C242.811 72.4645 245.757 73.0215 247.726 73.2108C248.719 73.3039 249.484 73.2977 250.001 73.2837C250.516 73.2573 250.779 73.2294 250.779 73.2092C250.778 73.1859 250.511 73.1735 250.001 73.158C249.489 73.1332 248.73 73.0975 247.752 72.9687C245.815 72.7081 242.933 72.0875 239.79 70.2504L239.571 70.6461C240.96 71.3613 241.681 73.2216 241.345 75.0416C241.169 75.943 240.784 76.8631 240.088 77.5473C239.402 78.2455 238.463 78.7467 237.441 78.9949C235.379 79.4991 232.994 79.0833 230.948 77.8809C228.867 76.6924 227.074 74.8725 225.255 72.961L224.484 72.1495L224.652 73.2604C225.06 75.9492 225.514 78.877 224.467 81.5332C223.936 82.8194 222.965 83.9722 221.732 84.6642C220.504 85.3826 218.961 85.4384 217.701 84.7263C216.123 83.8512 215.041 82.2531 214.079 80.6985C213.117 79.1268 212.309 77.493 211.612 75.8437C210.218 72.5421 209.268 69.1907 208.354 66.0054C207.448 62.8139 206.601 59.7667 205.575 56.977C204.564 54.1843 203.316 51.6925 201.984 49.5436C199.334 45.2102 196.058 42.495 193.546 41.2134C191.011 39.9225 189.422 39.7705 189.422 39.7705Z" fill="#455A64"/>
<path d="M106.754 101.774C106.749 101.785 106.856 101.827 107.067 101.894C107.322 101.97 107.632 102.063 108.011 102.176C108.425 102.306 108.943 102.446 109.572 102.544C110.195 102.658 110.914 102.812 111.739 102.862C114.997 103.205 119.937 102.946 125.419 100.643C130.853 98.3778 136.814 94.0707 141.197 87.5543C145.681 81.1216 148.708 72.9046 150.45 64.1043C151.355 59.6948 151.82 55.3366 152.571 51.2002C153.308 47.0653 154.34 43.1198 156.063 39.6847C157.752 36.2465 160.088 33.3234 162.872 31.3777C164.248 30.3785 165.762 29.7285 167.253 29.2428C168.763 28.7991 170.274 28.6036 171.717 28.5726C174.614 28.5291 177.208 29.2242 179.312 30.1381C181.426 31.0628 183.046 32.2559 184.253 33.342C186.593 35.6227 187.294 37.3698 187.392 37.3015C187.405 37.2953 187.358 37.1929 187.257 36.9943C187.13 36.7585 186.978 36.473 186.79 36.1239C186.36 35.3714 185.602 34.3272 184.453 33.1325C183.257 31.9937 181.628 30.7401 179.481 29.7564C177.344 28.7851 174.696 28.0342 171.711 28.045C170.223 28.0606 168.66 28.2452 167.089 28.6905C165.539 29.1761 163.947 29.8479 162.516 30.8704C159.615 32.8641 157.191 35.8694 155.448 39.3775C153.665 42.887 152.604 46.9055 151.853 51.0699C151.088 55.2404 150.616 59.5893 149.719 63.9585C147.991 72.6936 145.013 80.8113 140.63 87.1648C136.343 93.6037 130.539 97.8596 125.213 100.159C119.846 102.486 114.993 102.823 111.764 102.573C108.507 102.311 106.777 101.669 106.754 101.774Z" fill="#455A64"/>
<path d="M99.3654 89.5314C99.3561 89.5826 99.8324 89.7114 100.707 89.9022C101.579 90.1086 102.87 90.2886 104.47 90.3987C106.071 90.5213 107.992 90.4872 110.108 90.2777C112.22 90.031 114.525 89.5873 116.871 88.858C119.211 88.1024 121.351 87.1374 123.22 86.1242C125.071 85.0754 126.66 84.0002 127.9 82.9777C129.144 81.9661 130.095 81.0771 130.689 80.4053C131.296 79.7443 131.611 79.3657 131.574 79.3301C131.473 79.2308 130.114 80.6706 127.577 82.5604C126.316 83.5161 124.725 84.5261 122.891 85.5207C121.04 86.4811 118.936 87.4074 116.643 88.1474C114.344 88.8611 112.091 89.3157 110.024 89.5966C107.953 89.8386 106.07 89.9271 104.49 89.8727C101.33 89.7874 99.3902 89.3933 99.3654 89.5314Z" fill="#455A64"/>
<path d="M155.636 304.602C155.367 304.679 158.884 322.292 162.329 340.562H163.418C159.974 322.292 155.906 304.524 155.636 304.602Z" fill="#263238"/>
<path d="M170.502 341.444C180.46 341.444 189.626 334.27 191.018 324.498C194.147 302.547 206.673 265.393 259.478 264.49C299.705 263.804 316.635 292.278 321.378 304.941C328.908 325.045 327.972 349.447 315.752 369.436C296.976 400.145 262.434 404.846 243.516 404.916C221.76 404.995 204.06 422.515 204.06 443.971V525.99L313.031 523.941V503.468C313.031 503.088 313.27 502.761 313.639 502.632C326.913 498.012 347.958 489.253 371.637 470.158L364.544 375.701C364.544 375.701 385.281 335.843 384.254 326.875C374.864 244.949 347.002 198.593 335.677 194.268C322.962 189.415 273.872 191.778 273.872 191.778C273.872 191.778 252.67 231.062 222.925 235.414C206.375 237.836 200.332 217.168 200.332 217.168L161.886 239.707C134.525 253.508 129.216 307.203 128.713 341.444H170.502Z" fill="#455A64"/>
<g opacity="0.3">
<path d="M296.786 389.704C318.751 395.296 340.406 402.369 362.371 407.961C364 408.375 365.736 408.855 366.836 410.127C368.453 412 368.09 414.842 367.365 417.208C365.055 424.76 360.071 431.285 354.14 436.497C349.361 440.695 343.636 444.238 337.293 444.733C330.231 445.283 323.441 442.008 317.469 438.197C302.199 428.452 289.168 414.212 280.979 398.054C280.979 398.054 286.128 395.935 290.069 393.828C293.729 391.872 296.786 389.704 296.786 389.704Z" fill="black"/>
</g>
<path d="M320.929 305.51C329.712 325.776 327.484 349.81 314.969 369.798C308.023 380.893 299.179 388.812 289.533 394.125C299.922 405.426 310.468 415.382 320.893 422.782C332.112 430.743 357.97 428.479 367.774 411.051C379.87 389.546 380.882 334.609 380.882 334.609C383.179 301.49 383.179 301.49 383.179 301.49L315.537 291.129L314.994 292.983C317.895 297.334 319.605 302.457 320.929 305.51Z" fill="#E0E9E8"/>
<path d="M203.143 291.588L199.292 297.66C196.365 299.68 193.578 298.57 191.769 294.817L150.129 231.437L160.273 224.986L206.264 285.765C206.264 285.765 206.912 288.988 203.143 291.588Z" fill="#455A64"/>
<path d="M106.94 230.357C98.7881 225.757 91.9505 218.662 87.7195 209.543C82.5079 198.313 81.9819 185.724 86.2393 174.097C90.4967 162.47 99.0255 153.196 110.259 147.985C133.443 137.226 161.059 147.336 171.819 170.522C177.031 181.754 177.555 194.343 173.299 205.97C169.042 217.597 160.513 226.869 149.281 232.083C135.214 238.608 119.514 237.454 106.94 230.357ZM151.07 152.41C139.338 145.788 124.691 144.711 111.565 150.801C101.086 155.663 93.1266 164.316 89.1546 175.164C85.1827 186.013 85.673 197.759 90.5355 208.239C95.398 218.719 104.049 226.677 114.899 230.649C125.748 234.621 137.493 234.131 147.973 229.268C158.453 224.406 166.412 215.753 170.382 204.904C174.356 194.056 173.864 182.311 169.001 171.83C165.056 163.323 158.674 156.701 151.07 152.41Z" fill="#263238"/>
<path d="M108.915 228.41C100.763 223.81 93.9251 216.714 89.6941 207.596C84.4825 196.366 83.9565 183.777 88.2139 172.15C92.4713 160.522 101 151.249 112.233 146.037C135.418 135.279 163.034 145.389 173.794 168.576C179.005 179.808 179.53 192.397 175.274 204.024C171.018 215.652 162.488 224.925 151.256 230.137C137.187 236.661 121.487 235.507 108.915 228.41ZM153.043 150.461C141.311 143.839 126.664 142.762 113.538 148.852C103.059 153.714 95.0996 162.367 91.1277 173.216C87.1558 184.064 87.6461 195.811 92.5086 206.29C97.3711 216.77 106.022 224.728 116.872 228.7C127.721 232.672 139.466 232.182 149.947 227.319C160.426 222.457 168.385 213.804 172.355 202.955C176.327 192.107 175.837 180.36 170.974 169.881C167.029 161.374 160.649 154.752 153.043 150.461Z" fill="#455A64"/>
<path d="M170.299 188.736C170.282 188.736 170.266 188.472 170.251 187.974C170.213 187.476 170.272 186.741 170.162 185.8C170.057 183.915 169.635 181.195 168.626 177.978C168.131 176.365 167.428 174.654 166.597 172.854C165.697 171.09 164.707 169.21 163.427 167.382C162.178 165.539 160.743 163.68 159.073 161.921C157.416 160.155 155.581 158.427 153.509 156.903C151.449 155.369 149.282 154.09 147.092 153.051C144.891 152.034 142.672 151.279 140.523 150.7C136.201 149.612 132.153 149.313 128.787 149.51C125.419 149.696 122.721 150.227 120.901 150.734C119.978 150.942 119.293 151.217 118.811 151.342C118.333 151.485 118.079 151.553 118.072 151.536C118.066 151.521 118.308 151.421 118.777 151.248C119.25 151.091 119.928 150.785 120.848 150.548C122.66 149.982 125.369 149.394 128.767 149.159C132.162 148.916 136.256 149.179 140.636 150.256C142.815 150.83 145.066 151.586 147.299 152.61C149.519 153.657 151.721 154.951 153.809 156.506C155.905 158.048 157.761 159.8 159.43 161.59C161.114 163.373 162.557 165.256 163.809 167.128C165.092 168.98 166.079 170.887 166.971 172.677C167.795 174.502 168.485 176.238 168.964 177.874C169.939 181.136 170.311 183.89 170.358 185.79C170.44 186.738 170.348 187.478 170.353 187.977C170.333 188.475 170.316 188.736 170.299 188.736Z" fill="white"/>
<path d="M121.928 226.468C121.96 226.354 124.077 227.142 127.647 227.629C128.095 227.683 128.564 227.739 129.049 227.798C129.537 227.852 130.05 227.854 130.578 227.886C131.633 227.972 132.764 227.916 133.951 227.893C136.323 227.752 138.919 227.392 141.573 226.695C144.22 225.963 146.645 224.968 148.768 223.899C149.806 223.322 150.811 222.802 151.682 222.199C152.121 221.905 152.565 221.648 152.959 221.355C153.35 221.06 153.725 220.776 154.087 220.504C156.927 218.289 158.363 216.545 158.448 216.627C158.474 216.649 158.114 217.077 157.438 217.836C157.106 218.222 156.685 218.678 156.146 219.159C155.613 219.645 155.036 220.237 154.305 220.78C153.947 221.064 153.573 221.359 153.185 221.666C152.793 221.97 152.35 222.24 151.91 222.545C151.039 223.171 150.029 223.711 148.982 224.307C146.844 225.413 144.388 226.436 141.705 227.177C139.013 227.885 136.377 228.234 133.974 228.352C132.77 228.363 131.625 228.403 130.558 228.299C130.024 228.257 129.507 228.246 129.014 228.181C128.523 228.111 128.052 228.043 127.6 227.978C126.696 227.877 125.9 227.654 125.194 227.5C124.486 227.356 123.892 227.173 123.411 227.005C122.443 226.69 121.917 226.501 121.928 226.468Z" fill="white"/>
<path d="M153.82 196.782C153.723 196.878 147.679 190.829 140.327 183.274C132.971 175.717 127.089 169.515 127.187 169.419C127.284 169.323 133.326 175.371 140.682 182.928C148.036 190.483 153.918 196.687 153.82 196.782Z" fill="white"/>
<path d="M146.688 208.922C146.676 208.933 146.524 208.785 146.247 208.492C145.94 208.157 145.546 207.729 145.059 207.196C143.998 206.014 142.532 204.383 140.738 202.388C137.095 198.325 132.046 192.727 126.403 186.604C120.757 180.48 115.586 174.994 111.831 171.033C109.988 169.084 108.481 167.491 107.391 166.337C106.9 165.808 106.505 165.379 106.196 165.047C105.928 164.748 105.791 164.587 105.804 164.574C105.816 164.562 105.976 164.701 106.267 164.978C106.593 165.294 107.011 165.701 107.529 166.202C108.618 167.272 110.174 168.839 112.084 170.79C115.904 174.69 121.119 180.141 126.768 186.268C132.414 192.393 137.424 198.031 141.002 202.157C142.791 204.219 144.226 205.898 145.205 207.071C145.664 207.628 146.035 208.078 146.323 208.427C146.575 208.74 146.7 208.909 146.688 208.922Z" fill="white"/>
<g opacity="0.3">
<path d="M108.891 152.149L165.806 213.975C165.806 213.975 161.199 220.419 156.979 223.222L98.8633 159.952C98.8633 159.952 103.052 154.903 108.891 152.149Z" fill="white"/>
</g>
<g opacity="0.3">
<path d="M93.9697 167.08L149.948 227.317C149.948 227.317 150.467 227.601 146.61 228.575L92.3887 170.138C92.3887 170.138 92.6726 168.674 93.9697 167.08Z" fill="white"/>
</g>
<path d="M241.324 266.467C229.368 256.866 200.067 233.384 198.728 232.758C197.043 231.97 171.255 222.808 166.315 225.752C161.375 228.695 148.131 245.32 148.131 245.32C148.131 245.32 149.389 255.659 160.94 248.26C169.755 242.615 171.122 241.739 171.277 241.639C171.267 241.646 171.26 241.65 171.26 241.65L183.54 244.519C183.54 244.519 168.561 250.775 165.393 254.064C162.225 257.353 157.215 269.947 160.34 272.847C163.465 275.747 167.094 275.995 167.094 275.995C167.094 275.995 160.911 284.777 171.879 290.078C171.879 290.078 173.48 297.461 178.89 300.354C184.3 303.246 194.381 302.224 194.381 302.224C194.381 302.224 199.055 299.459 195.583 294.876C192.111 290.293 185.704 289.658 185.704 289.658L193.644 285.027C193.644 285.027 197.774 286.291 203.893 291.019C203.893 291.019 211.142 281.739 218.38 276.493C226.504 270.607 241.324 266.467 241.324 266.467Z" fill="#E0E9E8"/>
<path d="M190.499 270.37C190.495 270.334 190.074 270.342 189.32 270.44C188.566 270.536 187.483 270.752 186.183 271.168C183.596 271.977 180.127 273.771 177.283 276.863C174.438 279.957 172.942 283.564 172.351 286.21C172.045 287.539 171.921 288.636 171.889 289.397C171.854 290.155 171.882 290.576 171.918 290.577C172.03 290.587 172.053 288.899 172.753 286.312C173.435 283.741 174.953 280.266 177.715 277.26C180.478 274.257 183.814 272.454 186.318 271.559C188.838 270.645 190.518 270.48 190.499 270.37Z" fill="#168777" fill-opacity="0.18"/>
<path d="M191.026 257.003C191.022 256.963 190.575 256.997 189.767 257.091C189.362 257.133 188.868 257.2 188.305 257.33C187.74 257.455 187.089 257.562 186.394 257.785C184.985 258.157 183.351 258.767 181.606 259.588C179.877 260.443 178.045 261.529 176.27 262.879C174.51 264.25 172.991 265.744 171.724 267.198C170.483 268.677 169.477 270.1 168.757 271.367C168.365 271.982 168.093 272.585 167.829 273.099C167.559 273.611 167.369 274.07 167.224 274.45C166.925 275.207 166.779 275.629 166.816 275.645C166.923 275.691 167.58 274.016 169.109 271.581C169.863 270.359 170.889 268.984 172.129 267.552C173.396 266.143 174.898 264.689 176.625 263.343C178.367 262.018 180.37 260.527 182.057 259.659C183.759 258.826 185.134 258.598 186.508 258.181C189.258 257.326 191.045 257.118 191.026 257.003Z" fill="#168777" fill-opacity="0.18"/>
<path d="M193.27 241.657C193.285 241.593 192.666 241.353 191.602 241.282C190.544 241.206 189.04 241.372 187.532 242.009C185.492 242.881 184.773 243.731 184.182 244.434C183.495 245.249 183.237 245.862 183.295 245.894C183.431 246.017 184.856 243.747 187.762 242.549C190.64 241.291 193.262 241.84 193.27 241.657Z" fill="#168777" fill-opacity="0.18"/>
<path d="M330.906 193.031C330.906 193.031 368.748 196.662 380.762 229.539C390.296 255.634 395.476 333.812 393.087 335.405L326.275 333.269C325.395 314.205 320.262 299.507 313.066 289.996L330.906 193.031Z" fill="#455A64"/>
<path d="M327.299 333.268C327.33 333.222 327.796 333.484 328.61 333.999C329.428 334.509 330.577 335.299 331.964 336.322C334.742 338.36 338.419 341.411 342.132 345.142C345.851 348.87 348.895 352.544 350.983 355.28C352.024 356.651 352.842 357.779 353.374 358.581C353.911 359.381 354.187 359.838 354.142 359.871C354.043 359.944 352.726 358.274 350.536 355.635C348.343 353.001 345.249 349.412 341.559 345.712C337.874 342.008 334.289 338.916 331.615 336.772C328.945 334.626 327.228 333.372 327.299 333.268Z" fill="#168777" fill-opacity="0.18"/>
<path d="M319.341 252.853C319.561 252.89 318.336 261.236 316.603 271.491C314.869 281.75 313.287 290.034 313.067 289.997C312.846 289.959 314.072 281.615 315.805 271.356C317.538 261.101 319.121 252.815 319.341 252.853Z" fill="#263238"/>
<path d="M235.256 487.294C235.254 487.266 235.636 487.209 236.365 487.127C237.175 487.045 238.236 486.937 239.56 486.804C242.426 486.532 246.418 486.155 251.311 485.692C261.232 484.739 274.924 483.308 290.007 481.405C305.094 479.493 318.713 477.468 328.558 475.922C333.412 475.152 337.372 474.524 340.214 474.072C341.528 473.872 342.583 473.712 343.387 473.59C344.115 473.489 344.498 473.448 344.503 473.475C344.507 473.503 344.133 473.596 343.415 473.749C342.618 473.909 341.572 474.12 340.267 474.382C337.532 474.919 333.561 475.641 328.648 476.486C318.822 478.179 305.205 480.295 290.106 482.208C275.011 484.115 261.297 485.456 251.359 486.263C246.39 486.667 242.367 486.958 239.582 487.119C238.253 487.19 237.188 487.246 236.375 487.29C235.644 487.319 235.257 487.322 235.256 487.294Z" fill="#263238"/>
<path d="M229.35 477.307C229.348 477.251 230.329 477.165 232.104 477.057C234.01 476.956 236.547 476.821 239.621 476.656C246.091 476.324 254.796 475.879 264.416 475.386C274.035 474.829 282.738 474.324 289.206 473.949C292.28 473.777 294.815 473.634 296.722 473.527C298.497 473.44 299.482 473.418 299.485 473.474C299.49 473.53 298.514 473.657 296.745 473.84C294.977 474.025 292.415 474.258 289.247 474.518C282.91 475.043 274.149 475.662 264.459 476.193C254.773 476.72 245.998 477.058 239.643 477.227C236.465 477.313 233.893 477.361 232.114 477.37C230.335 477.383 229.351 477.362 229.35 477.307Z" fill="#263238"/>
<path d="M122.936 335.842C123.181 334.891 123.581 333.996 124.144 333.189C125.261 331.587 126.954 330.365 128.87 329.928C132.054 329.202 135.621 330.693 137.343 333.469C137.228 331.352 138.899 329.38 140.944 328.822C142.988 328.263 144.575 329.051 146.206 330.404C147.836 331.757 148.254 332.834 148.916 334.848C150.544 331.192 158.913 331.639 159.931 334.382C159.931 334.382 167.131 326.501 170.815 330.376C172.344 331.987 171.688 334.457 170.675 336.932C169.322 340.235 168.431 341.611 166.663 345.249L159.847 345.622C159.273 347.755 158.064 356.43 157.808 358.624C157.552 360.818 157.113 363.052 155.946 364.928C154.779 366.803 152.752 368.271 150.542 368.242C148.333 368.211 146.158 366.318 146.288 364.111C145.824 365.934 145.048 367.733 143.705 369.048C142.361 370.364 140.372 371.123 138.552 370.648C136.732 370.173 135.289 368.27 135.658 366.426C133.229 368.11 129.637 366.614 128.095 364.093C126.551 361.572 126.514 358.437 126.608 355.482C126.692 352.863 126.929 349.924 125.898 347.445C125.735 347.054 125.455 346.716 125.361 346.3C125.221 345.684 125.314 344.986 125.271 344.354C125.175 342.981 124.922 341.613 124.45 340.317C124.346 340.033 124.233 339.752 124.107 339.476C123.777 338.742 123.288 338.122 122.914 337.42C122.832 337.267 122.762 337.115 122.742 336.939C122.7 336.579 122.847 336.181 122.936 335.842Z" fill="#E0E9E8"/>
<path d="M115.269 332.057C113.448 331.991 111.463 332.368 110.247 333.726C108.806 335.337 108.474 339.191 108.638 341.346C111.164 341.822 112.512 341.26 115.038 341.737C115.57 341.838 116.016 341.703 116.456 342.016C117.621 342.843 117.432 345.629 117.901 346.979C118.714 349.321 121.713 350.464 124.037 349.603C126.361 348.742 127.857 346.27 127.975 343.794C128.093 341.319 127.004 338.897 125.409 337.001C122.917 334.039 119.139 332.196 115.269 332.057Z" fill="#E0E9E8"/>
<path d="M158.286 355.006C158.029 354.952 159.068 350.329 159.726 344.577C160.043 341.7 160.116 339.083 160.002 337.196C159.905 335.31 159.683 334.149 159.808 334.12C159.9 334.093 160.323 335.224 160.572 337.145C160.835 339.061 160.851 341.745 160.53 344.664C160.216 347.584 159.67 350.181 159.22 352.041C158.761 353.902 158.392 355.03 158.286 355.006Z" fill="#168777" fill-opacity="0.18"/>
<path d="M145.983 364.937C145.87 364.912 146.162 363.231 146.658 360.53C147.15 357.827 147.844 354.098 148.368 349.952C148.892 345.805 149.08 342.025 149.024 339.291C148.984 336.556 148.785 334.866 148.916 334.848C149.006 334.832 149.406 336.503 149.595 339.268C149.799 342.03 149.701 345.868 149.17 350.053C148.641 354.236 147.854 357.969 147.218 360.648C146.576 363.328 146.089 364.961 145.983 364.937Z" fill="#168777" fill-opacity="0.18"/>
<path d="M135.577 366.709C135.456 366.677 135.886 364.822 136.429 361.805C136.975 358.789 137.577 354.593 137.835 349.928C138.084 345.261 137.943 341.025 137.729 337.967C137.517 334.907 137.292 333.018 137.416 332.999C137.472 332.991 137.59 333.454 137.757 334.301C137.931 335.146 138.119 336.381 138.299 337.916C138.662 340.982 138.896 345.259 138.643 349.973C138.382 354.685 137.684 358.911 136.991 361.918C136.646 363.423 136.324 364.63 136.06 365.452C135.799 366.276 135.63 366.723 135.577 366.709Z" fill="#168777" fill-opacity="0.18"/>
<path d="M121.855 336.327C121.891 336.245 122.789 336.506 123.981 337.401C125.166 338.281 126.593 339.871 127.431 342.008C128.267 344.139 128.333 346.301 127.889 347.759C127.437 349.258 126.496 349.779 126.465 349.685C126.373 349.595 127.076 348.983 127.335 347.619C127.599 346.281 127.456 344.281 126.679 342.304C125.9 340.318 124.648 338.787 123.614 337.84C122.578 336.881 121.793 336.444 121.855 336.327Z" fill="#168777" fill-opacity="0.18"/>
</svg>
