<svg width="263" height="41" viewBox="0 0 263 41" fill="none" xmlns="http://www.w3.org/2000/svg">
<g clip-path="url(#clip0_377_4430)">
<path d="M34.6989 3.30483C35.0119 3.30519 35.312 3.42964 35.5334 3.65091C35.7548 3.87218 35.8794 4.17219 35.88 4.4852V22.3744C35.6938 22.4426 35.5022 22.5108 35.3058 22.5886C35.398 22.1932 35.4519 21.7899 35.4667 21.3843C35.494 20.5462 35.3365 19.7927 34.9976 19.1449C34.6553 18.4655 34.1002 17.9166 33.4169 17.582C32.9263 17.347 32.3883 17.2278 31.8444 17.2335C31.3575 17.2343 30.8739 17.314 30.4124 17.4695C30.7047 17.0817 30.9918 16.71 31.2737 16.3545C31.8546 15.6215 32.4002 14.9907 32.8932 14.4765C33.4844 13.8628 33.8179 13.5641 33.9958 13.4196C34.763 12.8147 35.1094 11.9473 34.9464 11.037C34.8319 10.378 34.5197 9.76933 34.0511 9.29198C33.6013 8.82106 33.0276 8.48683 32.3961 8.32777C32.1826 8.27139 31.9629 8.24251 31.7421 8.24185C31.4179 8.24239 31.0973 8.30984 30.8003 8.43996C30.5033 8.57008 30.2364 8.76009 30.0162 8.99809C29.3343 9.70114 28.6176 10.5822 27.8232 11.691C27.0622 12.7561 26.2746 13.9413 25.4815 15.2178C24.6885 16.4943 23.8947 17.8629 23.1228 19.2806C22.4818 20.459 21.8674 21.6591 21.2939 22.8524C21.1009 23.0141 20.8766 23.1934 20.6229 23.385C20.2519 23.6694 19.8728 23.9381 19.4848 24.1869C19.6437 23.7426 19.7753 23.2889 19.8789 22.8286C19.996 22.3285 20.0507 21.8159 20.0419 21.3025C20.0106 20.3253 19.5584 19.7491 19.1779 19.4347C18.6745 19.0005 18.0323 18.7608 17.3675 18.7589C17.0632 18.7596 16.7608 18.8056 16.4701 18.8953C15.8239 19.1066 15.2161 19.4212 14.6705 19.8268C14.7359 19.4021 14.738 18.9701 14.6767 18.5448C14.5403 17.6706 14.0766 17.1646 13.707 16.8919C13.1837 16.4917 12.5443 16.2727 11.8856 16.2679C11.5243 16.2697 11.166 16.3328 10.8259 16.4548C10.086 16.7139 9.36389 17.168 8.61993 17.8397C7.9052 18.4965 7.24138 19.2066 6.63421 19.9639C6.47464 20.1593 6.31553 20.3576 6.15687 20.5585C6.08221 20.4693 6.00276 20.3841 5.91889 20.3035L5.91207 20.2966C5.50299 19.9042 4.99393 19.6318 4.44051 19.509C4.27672 19.4719 4.1093 19.4531 3.94135 19.4531C3.49811 19.4531 2.85029 19.5854 2.24885 20.2073C1.97495 20.4735 1.72232 20.7608 1.49329 21.0665V4.48249C1.49455 4.17054 1.61903 3.87172 1.83961 3.65114C2.06019 3.43056 2.359 3.30608 2.67095 3.30483H34.7009M34.7009 1.81689H2.67095C1.96381 1.81887 1.2862 2.10062 0.786112 2.60057C0.286026 3.10053 0.00411231 3.77806 0.00195312 4.4852V27.3081C0.109695 26.9521 0.241303 26.5825 0.394051 26.1972C0.669997 25.5017 0.974814 24.8298 1.30849 24.1815C1.61433 23.5788 1.95825 22.9961 2.33818 22.4372C2.69141 21.9216 3.00963 21.5307 3.29285 21.2643C3.49106 21.0511 3.70495 20.9442 3.93453 20.9438C3.99304 20.944 4.05135 20.9507 4.10842 20.9636C4.39874 21.0282 4.66561 21.1717 4.87966 21.3782C5.09646 21.5841 5.2504 21.8472 5.32358 22.1371C5.39927 22.4317 5.34267 22.6751 5.15174 22.8661C4.86191 23.1731 4.60312 23.5079 4.37913 23.8658C4.09409 24.3058 3.81315 24.7636 3.53629 25.2391C3.25944 25.7146 3.01145 26.1674 2.79233 26.5975C2.57276 27.0262 2.42523 27.336 2.34977 27.5269C2.96459 26.943 3.53788 26.3169 4.06546 25.6531C4.67554 24.9011 5.28926 24.1151 5.90661 23.295C6.52397 22.4749 7.15019 21.6798 7.78527 20.9097C8.34459 20.2112 8.95621 19.5563 9.61484 18.9506C10.2058 18.4169 10.7741 18.0548 11.3196 17.8643C11.5013 17.7983 11.693 17.7637 11.8863 17.762C12.2259 17.7657 12.5548 17.882 12.8212 18.0927C13.0307 18.2464 13.1592 18.475 13.2065 18.7787C13.2531 19.1268 13.2385 19.4803 13.1635 19.8234C13.0741 20.2583 12.9449 20.684 12.7775 21.0952C12.5869 21.5729 12.3721 22.0406 12.1338 22.4965C11.867 23.0107 11.6144 23.5303 11.3762 24.0553C11.138 24.5804 10.9334 25.0427 10.7625 25.4423C10.6258 25.7479 10.5118 26.0631 10.4215 26.3854C10.3793 26.5579 10.3793 26.6439 10.4215 26.6439C10.4431 26.6405 10.4632 26.6305 10.4788 26.6152C10.5929 26.5188 10.8123 26.2613 11.1369 25.8426C11.4615 25.4239 11.8479 24.9377 12.2961 24.384C12.7444 23.8312 13.2305 23.263 13.7547 22.6792C14.2425 22.1325 14.7781 21.6305 15.3552 21.179C15.9007 20.7599 16.4203 20.4735 16.914 20.3198C17.0621 20.2731 17.2163 20.2488 17.3716 20.2476C17.6886 20.2491 17.994 20.3667 18.2301 20.5783C18.4401 20.7487 18.5479 21.0072 18.5588 21.3495C18.5634 21.7397 18.5203 22.129 18.4306 22.5088C18.3307 22.9508 18.2013 23.3858 18.0432 23.8105C17.881 24.2488 17.743 24.6636 17.6293 25.055C17.5292 25.3771 17.4573 25.7072 17.4145 26.0417C17.3859 26.3084 17.4479 26.4707 17.6014 26.5273C17.6826 26.5598 17.7696 26.5756 17.8571 26.5736C18.0598 26.5736 18.3128 26.5054 18.616 26.3691C19.1102 26.1441 19.5887 25.8859 20.0481 25.5965C20.5527 25.2828 21.0482 24.9395 21.5346 24.5668C21.9233 24.2708 22.2465 24.0083 22.5077 23.7778C23.1082 22.5158 23.7513 21.2536 24.4368 19.9912C25.2001 18.5905 25.9729 17.261 26.7553 16.0027C27.5377 14.7443 28.3003 13.5955 29.0431 12.5563C29.7873 11.5175 30.4738 10.6738 31.1025 10.025C31.1831 9.93228 31.2828 9.85797 31.3947 9.80714C31.5066 9.75631 31.6281 9.73016 31.751 9.73046C31.8458 9.73104 31.9403 9.74365 32.0319 9.76797C32.3965 9.85991 32.7275 10.0533 32.9866 10.3258C33.2488 10.5913 33.4237 10.9305 33.4878 11.2982C33.556 11.6691 33.4155 11.9896 33.0732 12.2528C32.6364 12.6246 32.2209 13.0207 31.8287 13.4394C31.305 13.9849 30.7331 14.6475 30.1131 15.4271C29.493 16.2068 28.8449 17.0694 28.1689 18.015C27.4911 18.9578 26.8381 19.9446 26.2098 20.9751C25.5815 22.0057 25.0049 23.0543 24.4798 24.1208C23.9799 25.1276 23.5544 26.1696 23.2067 27.2385C23.4367 26.8948 23.7754 26.3847 24.2227 25.7083C24.67 25.0318 25.1801 24.312 25.7529 23.5487C26.3341 22.7738 26.9546 22.0291 27.6118 21.3175C28.2104 20.6536 28.8815 20.0589 29.6125 19.5445C30.2422 19.1063 30.8284 18.8437 31.3712 18.7569C31.5306 18.7317 31.6918 18.7187 31.8533 18.718C32.171 18.7123 32.4858 18.7799 32.7732 18.9158C33.17 19.1121 33.4913 19.4334 33.6876 19.8302C33.9072 20.2494 34.0074 20.7494 33.9883 21.3304C33.9692 21.9114 33.8263 22.5451 33.5594 23.2316C33.293 23.919 32.8736 24.6236 32.3013 25.3455C32.5863 25.2303 32.9832 25.0775 33.4878 24.8866C33.9924 24.6957 34.5107 24.4972 35.0323 24.2858C35.554 24.0744 36.0552 23.8869 36.5325 23.7151C36.864 23.5944 37.1463 23.4948 37.3767 23.4123V4.4852C37.3746 3.77795 37.0926 3.1003 36.5924 2.60032C36.0921 2.10035 35.4143 1.81869 34.7071 1.81689H34.7009Z" fill="#1A1A1A"/>
<path d="M37.0528 25.137C37.1654 25.0913 37.2697 25.0463 37.3686 25.0074V36.514C37.3664 37.2212 37.0844 37.8989 36.5842 38.3988C36.0839 38.8988 35.4061 39.1805 34.6989 39.1823H2.67095C1.96381 39.1803 1.2862 38.8986 0.786112 38.3986C0.286026 37.8986 0.00411231 37.2211 0.00195312 36.514V30.477C0.0554872 30.5216 0.115213 30.5581 0.179252 30.5854C0.636132 30.7955 1.13393 30.7464 1.67945 30.4422C2.22498 30.1381 2.77051 29.6792 3.32354 29.0689C3.93175 28.4342 4.50429 27.7663 5.03854 27.0682C5.62953 26.3053 6.21597 25.5282 6.79787 24.7367C7.37976 23.9452 7.95211 23.1969 8.51492 22.4919C8.99005 21.8815 9.51094 21.3082 10.0731 20.7769C9.90124 21.1001 9.69167 21.5049 9.44436 21.9913C9.19705 22.4778 8.94384 23.0035 8.68471 23.5686C8.42763 24.1312 8.19305 24.7033 7.98507 25.2856C7.78703 25.8187 7.63843 26.3688 7.54115 26.929C7.45614 27.4446 7.45614 27.8973 7.54115 28.2874C7.5745 28.4688 7.65018 28.6398 7.76203 28.7865C7.87388 28.9332 8.01875 29.0514 8.18487 29.1316C8.58447 29.3416 9.01475 29.3416 9.47163 29.1316C9.98072 28.8873 10.4487 28.5652 10.8586 28.1769C11.3652 27.7049 11.838 27.1979 12.2736 26.6597C12.75 26.0796 13.2078 25.5223 13.647 24.9876C14.0861 24.453 14.4912 23.9757 14.8621 23.5556C15.2335 23.136 15.5518 22.869 15.8168 22.7544C15.855 22.7735 15.8318 22.8983 15.7486 23.1267C15.6654 23.3552 15.5584 23.6463 15.4349 23.9996C15.3115 24.3528 15.1874 24.7381 15.0626 25.1588C14.9413 25.5652 14.8553 25.9814 14.8055 26.4026C14.7563 26.7832 14.766 27.1692 14.8342 27.5469C14.8593 27.709 14.9165 27.8646 15.0024 28.0044C15.0884 28.1442 15.2013 28.2654 15.3347 28.3611C15.7538 28.6675 16.2735 28.7584 16.8935 28.6338C17.5136 28.5093 18.1805 28.2469 18.8943 27.8469C19.6616 27.4127 20.3976 26.9253 21.0968 26.3883C21.2093 26.3031 21.3191 26.2165 21.4296 26.1312C21.1173 26.8586 20.8252 27.5737 20.5534 28.2765C20.0963 29.444 19.7092 30.6376 19.3941 31.8511C19.3551 31.9906 19.3465 32.1368 19.3687 32.28C19.391 32.4231 19.4436 32.5598 19.523 32.6809C19.6762 32.9208 19.9016 33.1059 20.1667 33.2094C20.4466 33.3144 20.7533 33.3245 21.0396 33.2381C21.3532 33.1515 21.6253 32.9094 21.8538 32.5091C22.0447 32.1838 22.3168 31.7324 22.672 31.1507C23.0273 30.5691 23.431 29.9301 23.8886 29.2346C24.3461 28.539 24.8501 27.8142 25.4038 27.0606C25.9575 26.3071 26.5146 25.5884 27.0772 24.901C27.6398 24.2137 28.1962 23.5959 28.7492 23.0422C29.3023 22.4884 29.8266 22.0616 30.3231 21.7554C30.8195 21.4492 31.1523 21.3463 31.3228 21.4417C31.4932 21.5372 31.5471 21.7458 31.481 22.0711C31.4148 22.3964 31.2471 22.8042 30.9804 23.2986C30.7029 23.809 30.3925 24.3008 30.051 24.7708C29.7056 25.2487 29.3227 25.6983 28.9061 26.1155C28.4969 26.5247 28.1105 26.8152 27.7468 26.987C26.2603 27.7116 25.2929 28.4408 24.8446 29.1746C24.3964 29.9083 24.3914 30.5041 24.8296 30.9619C25.0205 31.1726 25.2885 31.2905 25.6308 31.3205C25.9732 31.3505 26.3884 31.2674 26.8753 31.0764C27.3622 30.8855 27.9132 30.5575 28.5344 30.0904C29.1556 29.6233 29.8348 28.9891 30.5802 28.1878C30.7895 28.0556 31.0902 27.8878 31.481 27.6873C31.8717 27.4868 32.2992 27.2782 32.7677 27.0586C33.2362 26.839 33.7299 26.6106 34.2543 26.3726C34.7787 26.1346 35.2771 25.9096 35.7545 25.7002C36.2318 25.4909 36.6621 25.3006 37.0528 25.137Z" fill="#087C66"/>
<path d="M57.7696 3.31325H60.7442L67.7387 20.3973H67.9799L74.9743 3.31325H77.9489V23.8945H75.6174V8.25758H75.4164L68.9848 23.8945H66.7337L60.3021 8.25758H60.1011V23.8945H57.7696V3.31325ZM83.7902 23.8945H81.1773L88.7345 3.31325H91.3071L98.8643 23.8945H96.2515L90.1012 6.56927H89.9404L83.7902 23.8945ZM84.7549 15.855H95.2867V18.0658H84.7549V15.855ZM113.325 8.45857C113.205 7.44023 112.716 6.64967 111.858 6.0869C111.001 5.52413 109.949 5.24275 108.703 5.24275C107.792 5.24275 106.994 5.39014 106.311 5.68492C105.634 5.97971 105.105 6.38504 104.723 6.90091C104.348 7.41678 104.16 8.003 104.16 8.65956C104.16 9.20893 104.291 9.68126 104.552 10.0765C104.82 10.4651 105.162 10.79 105.577 11.0513C105.993 11.3059 106.428 11.517 106.884 11.6844C107.339 11.8452 107.758 11.9759 108.14 12.0764L110.23 12.6391C110.766 12.7798 111.363 12.9741 112.019 13.222C112.682 13.4699 113.315 13.8082 113.918 14.237C114.528 14.6591 115.031 15.2018 115.426 15.865C115.821 16.5283 116.019 17.3423 116.019 18.307C116.019 19.4192 115.727 20.4241 115.144 21.3219C114.568 22.2196 113.724 22.9331 112.612 23.4624C111.507 23.9917 110.163 24.2563 108.582 24.2563C107.108 24.2563 105.832 24.0185 104.753 23.5428C103.681 23.0671 102.837 22.4039 102.221 21.553C101.611 20.7022 101.266 19.714 101.186 18.5884H103.758C103.825 19.3656 104.087 20.0087 104.542 20.5179C105.005 21.0204 105.587 21.3956 106.291 21.6435C107.001 21.8846 107.765 22.0052 108.582 22.0052C109.534 22.0052 110.388 21.8511 111.145 21.543C111.902 21.2281 112.501 20.7926 112.944 20.2365C113.386 19.6738 113.607 19.0172 113.607 18.2668C113.607 17.5835 113.416 17.0274 113.034 16.5986C112.652 16.1699 112.15 15.8215 111.527 15.5535C110.904 15.2855 110.23 15.051 109.507 14.85L106.974 14.1265C105.366 13.6642 104.093 13.0043 103.155 12.1467C102.217 11.2892 101.749 10.167 101.749 8.78015C101.749 7.62782 102.06 6.62287 102.683 5.76532C103.313 4.90107 104.157 4.2311 105.216 3.75543C106.281 3.27305 107.47 3.03187 108.783 3.03187C110.11 3.03187 111.289 3.2697 112.321 3.74538C113.352 4.21435 114.17 4.85752 114.773 5.67487C115.382 6.49223 115.704 7.42013 115.737 8.45857H113.325ZM133.623 3.31325H136.115V16.9403C136.115 18.3472 135.784 19.6034 135.12 20.7089C134.464 21.8076 133.536 22.6752 132.337 23.3117C131.137 23.9414 129.73 24.2563 128.116 24.2563C126.501 24.2563 125.094 23.9414 123.895 23.3117C122.696 22.6752 121.765 21.8076 121.101 20.7089C120.445 19.6034 120.116 18.3472 120.116 16.9403V3.31325H122.609V16.7393C122.609 17.7443 122.83 18.6387 123.272 19.4225C123.714 20.1997 124.344 20.8127 125.161 21.2616C125.985 21.7038 126.97 21.9248 128.116 21.9248C129.261 21.9248 130.246 21.7038 131.07 21.2616C131.894 20.8127 132.524 20.1997 132.96 19.4225C133.402 18.6387 133.623 17.7443 133.623 16.7393V3.31325ZM141.092 3.31325H144.067L151.061 20.3973H151.302L158.297 3.31325H161.271V23.8945H158.94V8.25758H158.739L152.307 23.8945H150.056L143.625 8.25758H143.424V23.8945H141.092V3.31325Z" fill="#087C66"/>
<path d="M166.269 23.8945V3.31325H173.464C174.898 3.31325 176.08 3.56114 177.011 4.05691C177.943 4.54599 178.636 5.2059 179.092 6.03665C179.547 6.86071 179.775 7.77521 179.775 8.78015C179.775 9.66451 179.618 10.3948 179.303 10.9709C178.994 11.5471 178.586 12.0027 178.077 12.3377C177.574 12.6726 177.028 12.9205 176.439 13.0813V13.2823C177.068 13.3225 177.701 13.5436 178.338 13.9456C178.974 14.3476 179.507 14.9237 179.936 15.6741C180.365 16.4244 180.579 17.3423 180.579 18.4276C180.579 19.4594 180.344 20.3873 179.875 21.2113C179.407 22.0354 178.666 22.6886 177.655 23.171C176.643 23.6533 175.326 23.8945 173.705 23.8945H166.269ZM168.761 21.6837H173.705C175.333 21.6837 176.489 21.3688 177.172 20.739C177.862 20.1025 178.207 19.3321 178.207 18.4276C178.207 17.7309 178.03 17.0877 177.675 16.4981C177.32 15.9019 176.814 15.4262 176.157 15.0711C175.501 14.7093 174.723 14.5284 173.826 14.5284H168.761V21.6837ZM168.761 12.3578H173.384C174.134 12.3578 174.811 12.2104 175.414 11.9156C176.023 11.6208 176.506 11.2054 176.861 10.6695C177.222 10.1335 177.403 9.50372 177.403 8.78015C177.403 7.8757 177.088 7.1086 176.459 6.47883C175.829 5.84236 174.831 5.52413 173.464 5.52413H168.761V12.3578ZM187.166 3.31325V23.8945H184.674V3.31325H187.166ZM192.163 23.8945V3.31325H194.656V21.6837H204.223V23.8945H192.163ZM208.082 23.8945V3.31325H210.574V21.6837H220.141V23.8945H208.082ZM226.143 23.8945H223.53L231.087 3.31325H233.66L241.217 23.8945H238.604L232.454 6.56927H232.293L226.143 23.8945ZM227.108 15.855H237.64V18.0658H227.108V15.855ZM244.423 23.8945V3.31325H246.915V12.4784H257.889V3.31325H260.382V23.8945H257.889V14.6892H246.915V23.8945H244.423Z" fill="#010101"/>
<path d="M58.9035 30.1369V37.6499H57.9938V30.1369H58.9035ZM61.4761 30.1369V37.6499H60.6103V30.1369H61.4761ZM63.9275 30.1369V37.6499H63.0618V30.1369H63.9275ZM69.0643 35.3461V32.0151H69.9301V37.6499H69.0643V36.6961H69.0056C68.8735 36.9822 68.6681 37.2256 68.3893 37.4261C68.1105 37.6242 67.7583 37.7233 67.3328 37.7233C66.9806 37.7233 66.6676 37.6462 66.3937 37.4922C66.1197 37.3356 65.9045 37.1009 65.748 36.7878C65.5915 36.4723 65.5132 36.0749 65.5132 35.5956V32.0151H66.379V35.5369C66.379 35.9477 66.4939 36.2754 66.7238 36.52C66.9562 36.7646 67.2521 36.8869 67.6116 36.8869C67.8268 36.8869 68.0457 36.8318 68.2683 36.7218C68.4932 36.6117 68.6816 36.443 68.8332 36.2155C68.9873 35.9881 69.0643 35.6983 69.0643 35.3461ZM71.5158 37.6499V32.0151H72.3522V32.8956H72.4256C72.5429 32.5947 72.7325 32.3612 72.9942 32.1949C73.2558 32.0261 73.5701 31.9418 73.937 31.9418C74.3087 31.9418 74.6181 32.0261 74.8651 32.1949C75.1145 32.3612 75.309 32.5947 75.4484 32.8956H75.5071C75.6514 32.6045 75.8678 32.3734 76.1564 32.2022C76.445 32.0286 76.791 31.9418 77.1946 31.9418C77.6984 31.9418 78.1105 32.0995 78.4308 32.415C78.7512 32.728 78.9114 33.2159 78.9114 33.8787V37.6499H78.0457V33.8787C78.0457 33.4629 77.9319 33.1658 77.7045 32.9873C77.477 32.8087 77.2092 32.7195 76.9011 32.7195C76.5049 32.7195 76.198 32.8393 75.9803 33.079C75.7626 33.3162 75.6538 33.617 75.6538 33.9814V37.6499H74.7734V33.7907C74.7734 33.4703 74.6694 33.2123 74.4616 33.0166C74.2537 32.8185 73.9859 32.7195 73.6582 32.7195C73.4332 32.7195 73.2228 32.7794 73.0272 32.8992C72.834 33.0191 72.6775 33.1854 72.5576 33.3981C72.4402 33.6085 72.3815 33.8518 72.3815 34.1282V37.6499H71.5158ZM80.4944 37.6499V32.0151H81.3601V37.6499H80.4944ZM80.9346 31.076C80.7658 31.076 80.6203 31.0185 80.498 30.9036C80.3782 30.7886 80.3183 30.6505 80.3183 30.489C80.3183 30.3276 80.3782 30.1894 80.498 30.0745C80.6203 29.9596 80.7658 29.9021 80.9346 29.9021C81.1033 29.9021 81.2476 29.9596 81.3675 30.0745C81.4897 30.1894 81.5509 30.3276 81.5509 30.489C81.5509 30.6505 81.4897 30.7886 81.3675 30.9036C81.2476 31.0185 81.1033 31.076 80.9346 31.076ZM83.8116 34.2602V37.6499H82.9458V32.0151H83.7822V32.8956H83.8556C83.9877 32.6094 84.1882 32.3795 84.4572 32.2059C84.7263 32.0298 85.0735 31.9418 85.4991 31.9418C85.8806 31.9418 86.2144 32.02 86.5006 32.1765C86.7867 32.3306 87.0093 32.5654 87.1682 32.8809C87.3272 33.1939 87.4067 33.5901 87.4067 34.0695V37.6499H86.5409V34.1282C86.5409 33.6855 86.426 33.3407 86.1961 33.0937C85.9662 32.8442 85.6507 32.7195 85.2496 32.7195C84.9733 32.7195 84.7263 32.7794 84.5086 32.8992C84.2934 33.0191 84.1234 33.1939 83.9987 33.4238C83.8739 33.6537 83.8116 33.9325 83.8116 34.2602ZM90.6469 37.782C90.2898 37.782 89.9658 37.7147 89.6747 37.5802C89.3837 37.4432 89.1526 37.2464 88.9814 36.9896C88.8102 36.7303 88.7246 36.4173 88.7246 36.0504C88.7246 35.7276 88.7882 35.4659 88.9153 35.2654C89.0425 35.0624 89.2125 34.9034 89.4253 34.7885C89.638 34.6735 89.8728 34.5879 90.1296 34.5317C90.3889 34.473 90.6493 34.4265 90.911 34.3923C91.2534 34.3483 91.531 34.3153 91.7437 34.2932C91.959 34.2688 92.1155 34.2284 92.2133 34.1722C92.3136 34.1159 92.3637 34.0181 92.3637 33.8787V33.8494C92.3637 33.4874 92.2647 33.2062 92.0666 33.0056C91.8709 32.8051 91.5738 32.7048 91.1751 32.7048C90.7618 32.7048 90.4378 32.7953 90.203 32.9763C89.9682 33.1572 89.8031 33.3504 89.7077 33.5559L88.886 33.2624C89.0327 32.92 89.2284 32.6534 89.473 32.4627C89.72 32.2695 89.989 32.135 90.28 32.0591C90.5735 31.9809 90.8621 31.9418 91.1458 31.9418C91.3268 31.9418 91.5346 31.9638 91.7694 32.0078C92.0067 32.0494 92.2353 32.1362 92.4554 32.2682C92.678 32.4003 92.8626 32.5996 93.0094 32.8662C93.1561 33.1328 93.2295 33.4899 93.2295 33.9374V37.6499H92.3637V36.8869H92.3197C92.261 37.0091 92.1632 37.14 92.0262 37.2794C91.8893 37.4188 91.7071 37.5374 91.4796 37.6352C91.2522 37.7331 90.9746 37.782 90.6469 37.782ZM90.7789 37.0043C91.1213 37.0043 91.4099 36.937 91.6447 36.8025C91.8819 36.668 92.0605 36.4943 92.1803 36.2816C92.3026 36.0688 92.3637 35.845 92.3637 35.6102V34.8178C92.327 34.8619 92.2463 34.9022 92.1216 34.9389C91.9993 34.9731 91.8575 35.0037 91.6961 35.0306C91.5371 35.0551 91.3818 35.0771 91.2302 35.0966C91.081 35.1138 90.9599 35.1284 90.867 35.1407C90.642 35.17 90.4317 35.2177 90.236 35.2837C90.0428 35.3473 89.8863 35.4439 89.7664 35.5735C89.649 35.7007 89.5903 35.8744 89.5903 36.0945C89.5903 36.3953 89.7016 36.6227 89.9242 36.7768C90.1492 36.9284 90.4341 37.0043 90.7789 37.0043ZM97.2602 32.0151V32.7488H94.3401V32.0151H97.2602ZM95.1912 30.6651H96.057V36.0358C96.057 36.2803 96.0924 36.4638 96.1633 36.586C96.2367 36.7059 96.3296 36.7866 96.4421 36.8282C96.5571 36.8673 96.6781 36.8869 96.8053 36.8869C96.9007 36.8869 96.979 36.882 97.0401 36.8722C97.1012 36.86 97.1502 36.8502 97.1868 36.8428L97.3629 37.6206C97.3042 37.6426 97.2223 37.6646 97.1171 37.6866C97.012 37.711 96.8787 37.7233 96.7173 37.7233C96.4727 37.7233 96.233 37.6707 95.9983 37.5655C95.7659 37.4604 95.5727 37.3002 95.4186 37.085C95.267 36.8697 95.1912 36.5983 95.1912 36.2706V30.6651ZM98.5625 37.6499V32.0151H99.4283V37.6499H98.5625ZM99.0027 31.076C98.834 31.076 98.6885 31.0185 98.5662 30.9036C98.4464 30.7886 98.3864 30.6505 98.3864 30.489C98.3864 30.3276 98.4464 30.1894 98.5662 30.0745C98.6885 29.9596 98.834 29.9021 99.0027 29.9021C99.1715 29.9021 99.3158 29.9596 99.4356 30.0745C99.5579 30.1894 99.619 30.3276 99.619 30.489C99.619 30.6505 99.5579 30.7886 99.4356 30.9036C99.3158 31.0185 99.1715 31.076 99.0027 31.076ZM101.88 34.2602V37.6499H101.014V32.0151H101.85V32.8956H101.924C102.056 32.6094 102.256 32.3795 102.525 32.2059C102.794 32.0298 103.142 31.9418 103.567 31.9418C103.949 31.9418 104.283 32.02 104.569 32.1765C104.855 32.3306 105.077 32.5654 105.236 32.8809C105.395 33.1939 105.475 33.5901 105.475 34.0695V37.6499H104.609V34.1282C104.609 33.6855 104.494 33.3407 104.264 33.0937C104.034 32.8442 103.719 32.7195 103.318 32.7195C103.041 32.7195 102.794 32.7794 102.577 32.8992C102.362 33.0191 102.192 33.1939 102.067 33.4238C101.942 33.6537 101.88 33.9325 101.88 34.2602ZM109.331 39.8803C108.913 39.8803 108.554 39.8265 108.253 39.7189C107.952 39.6138 107.701 39.4744 107.501 39.3007C107.303 39.1295 107.145 38.9461 107.028 38.7504L107.717 38.2662C107.795 38.3689 107.895 38.4863 108.014 38.6184C108.134 38.7529 108.298 38.8691 108.506 38.9669C108.716 39.0672 108.991 39.1173 109.331 39.1173C109.786 39.1173 110.162 39.0072 110.458 38.7871C110.753 38.567 110.901 38.2222 110.901 37.7526V36.6081H110.828C110.764 36.7108 110.674 36.8379 110.557 36.9896C110.442 37.1388 110.275 37.272 110.058 37.3894C109.842 37.5044 109.551 37.5619 109.185 37.5619C108.73 37.5619 108.321 37.4543 107.959 37.239C107.6 37.0238 107.315 36.7108 107.105 36.2999C106.897 35.889 106.793 35.3901 106.793 34.8032C106.793 34.226 106.894 33.7234 107.097 33.2954C107.3 32.865 107.583 32.5324 107.945 32.2976C108.307 32.0604 108.725 31.9418 109.199 31.9418C109.566 31.9418 109.857 32.0029 110.072 32.1252C110.29 32.245 110.456 32.382 110.571 32.536C110.689 32.6877 110.779 32.8124 110.843 32.9102H110.931V32.0151H111.767V37.8113C111.767 38.2956 111.657 38.6893 111.437 38.9926C111.219 39.2983 110.926 39.522 110.557 39.6639C110.19 39.8082 109.781 39.8803 109.331 39.8803ZM109.302 36.7841C109.649 36.7841 109.943 36.7047 110.182 36.5457C110.422 36.3867 110.604 36.1581 110.729 35.8597C110.854 35.5613 110.916 35.2043 110.916 34.7885C110.916 34.3825 110.855 34.0242 110.733 33.7136C110.61 33.403 110.429 33.1597 110.19 32.9836C109.95 32.8075 109.654 32.7195 109.302 32.7195C108.935 32.7195 108.629 32.8124 108.385 32.9983C108.143 33.1841 107.961 33.4336 107.838 33.7466C107.718 34.0597 107.659 34.407 107.659 34.7885C107.659 35.1798 107.72 35.5259 107.842 35.8267C107.967 36.125 108.15 36.3598 108.392 36.531C108.637 36.6998 108.94 36.7841 109.302 36.7841ZM120.484 32.0151C120.439 31.6434 120.261 31.3548 119.948 31.1494C119.635 30.9439 119.251 30.8412 118.796 30.8412C118.463 30.8412 118.172 30.895 117.923 31.0026C117.676 31.1102 117.483 31.2582 117.343 31.4465C117.206 31.6348 117.138 31.8488 117.138 32.0885C117.138 32.289 117.186 32.4615 117.281 32.6057C117.379 32.7476 117.503 32.8662 117.655 32.9616C117.807 33.0545 117.966 33.1316 118.132 33.1927C118.298 33.2514 118.451 33.2991 118.591 33.3358L119.354 33.5412C119.549 33.5926 119.767 33.6635 120.007 33.754C120.249 33.8445 120.48 33.968 120.7 34.1245C120.922 34.2786 121.106 34.4767 121.25 34.7188C121.395 34.9609 121.467 35.2581 121.467 35.6102C121.467 36.0162 121.36 36.3831 121.147 36.7108C120.937 37.0385 120.629 37.299 120.223 37.4922C119.82 37.6854 119.329 37.782 118.752 37.782C118.214 37.782 117.748 37.6951 117.354 37.5215C116.963 37.3479 116.655 37.1057 116.43 36.7951C116.207 36.4845 116.081 36.1238 116.052 35.7129H116.991C117.016 35.9966 117.111 36.2314 117.277 36.4173C117.446 36.6007 117.659 36.7377 117.916 36.8282C118.175 36.9162 118.454 36.9602 118.752 36.9602C119.099 36.9602 119.411 36.904 119.687 36.7915C119.964 36.6765 120.183 36.5176 120.344 36.3146C120.506 36.1091 120.586 35.8695 120.586 35.5956C120.586 35.3461 120.517 35.1431 120.377 34.9866C120.238 34.8301 120.054 34.7029 119.827 34.6051C119.599 34.5072 119.354 34.4216 119.089 34.3483L118.165 34.0841C117.578 33.9154 117.113 33.6745 116.771 33.3615C116.429 33.0484 116.257 32.6388 116.257 32.1325C116.257 31.7119 116.371 31.345 116.599 31.032C116.828 30.7165 117.137 30.4719 117.523 30.2983C117.912 30.1222 118.346 30.0341 118.825 30.0341C119.31 30.0341 119.74 30.121 120.117 30.2946C120.493 30.4658 120.792 30.7006 121.012 30.999C121.234 31.2973 121.352 31.636 121.364 32.0151H120.484ZM126.396 35.3461V32.0151H127.262V37.6499H126.396V36.6961H126.337C126.205 36.9822 126 37.2256 125.721 37.4261C125.442 37.6242 125.09 37.7233 124.665 37.7233C124.312 37.7233 123.999 37.6462 123.726 37.4922C123.452 37.3356 123.236 37.1009 123.08 36.7878C122.923 36.4723 122.845 36.0749 122.845 35.5956V32.0151H123.711V35.5369C123.711 35.9477 123.826 36.2754 124.056 36.52C124.288 36.7646 124.584 36.8869 124.943 36.8869C125.159 36.8869 125.378 36.8318 125.6 36.7218C125.825 36.6117 126.013 36.443 126.165 36.2155C126.319 35.9881 126.396 35.6983 126.396 35.3461ZM131.137 37.7673C130.608 37.7673 130.154 37.6426 129.772 37.3931C129.391 37.1437 129.097 36.8 128.892 36.3623C128.686 35.9245 128.583 35.4244 128.583 34.8619C128.583 34.2896 128.689 33.7846 128.899 33.3468C129.112 32.9066 129.408 32.5629 129.787 32.3159C130.168 32.0665 130.613 31.9418 131.122 31.9418C131.518 31.9418 131.875 32.0151 132.193 32.1619C132.511 32.3086 132.772 32.514 132.975 32.7782C133.178 33.0423 133.304 33.3504 133.353 33.7026H132.487C132.421 33.4458 132.274 33.2184 132.047 33.0203C131.822 32.8197 131.518 32.7195 131.137 32.7195C130.799 32.7195 130.503 32.8075 130.249 32.9836C129.997 33.1572 129.8 33.403 129.658 33.721C129.519 34.0365 129.449 34.407 129.449 34.8325C129.449 35.2678 129.518 35.6469 129.655 35.9697C129.794 36.2926 129.99 36.5432 130.242 36.7218C130.496 36.9003 130.794 36.9896 131.137 36.9896C131.362 36.9896 131.566 36.9504 131.749 36.8722C131.933 36.7939 132.088 36.6814 132.215 36.5347C132.342 36.3879 132.433 36.2119 132.487 36.0064H133.353C133.304 36.339 133.183 36.6386 132.989 36.9052C132.799 37.1693 132.545 37.3797 132.23 37.5362C131.917 37.6903 131.553 37.7673 131.137 37.7673ZM136.907 37.7673C136.379 37.7673 135.924 37.6426 135.543 37.3931C135.161 37.1437 134.868 36.8 134.662 36.3623C134.457 35.9245 134.354 35.4244 134.354 34.8619C134.354 34.2896 134.459 33.7846 134.669 33.3468C134.882 32.9066 135.178 32.5629 135.557 32.3159C135.939 32.0665 136.384 31.9418 136.893 31.9418C137.289 31.9418 137.646 32.0151 137.964 32.1619C138.282 32.3086 138.542 32.514 138.745 32.7782C138.948 33.0423 139.074 33.3504 139.123 33.7026H138.257C138.191 33.4458 138.044 33.2184 137.817 33.0203C137.592 32.8197 137.289 32.7195 136.907 32.7195C136.57 32.7195 136.274 32.8075 136.019 32.9836C135.768 33.1572 135.571 33.403 135.429 33.721C135.289 34.0365 135.22 34.407 135.22 34.8325C135.22 35.2678 135.288 35.6469 135.425 35.9697C135.565 36.2926 135.76 36.5432 136.012 36.7218C136.267 36.9003 136.565 36.9896 136.907 36.9896C137.132 36.9896 137.336 36.9504 137.52 36.8722C137.703 36.7939 137.859 36.6814 137.986 36.5347C138.113 36.3879 138.203 36.2119 138.257 36.0064H139.123C139.074 36.339 138.953 36.6386 138.76 36.9052C138.569 37.1693 138.316 37.3797 138 37.5362C137.687 37.6903 137.323 37.7673 136.907 37.7673ZM142.751 37.7673C142.208 37.7673 141.74 37.6475 141.346 37.4078C140.955 37.1657 140.653 36.8282 140.44 36.3953C140.23 35.96 140.125 35.4537 140.125 34.8765C140.125 34.2994 140.23 33.7907 140.44 33.3504C140.653 32.9078 140.949 32.5629 141.328 32.3159C141.709 32.0665 142.154 31.9418 142.663 31.9418C142.957 31.9418 143.246 31.9907 143.533 32.0885C143.819 32.1863 144.079 32.3453 144.314 32.5654C144.549 32.7831 144.736 33.0716 144.875 33.4312C145.015 33.7907 145.084 34.2333 145.084 34.7591V35.126H140.741V34.3776H144.204C144.204 34.0597 144.14 33.776 144.013 33.5265C143.888 33.2771 143.71 33.0802 143.478 32.9359C143.248 32.7916 142.976 32.7195 142.663 32.7195C142.318 32.7195 142.02 32.8051 141.768 32.9763C141.519 33.145 141.327 33.3651 141.192 33.6366C141.058 33.9081 140.99 34.1991 140.99 34.5097V35.0086C140.99 35.4341 141.064 35.7949 141.21 36.0908C141.36 36.3843 141.566 36.6081 141.83 36.7621C142.094 36.9138 142.401 36.9896 142.751 36.9896C142.979 36.9896 143.184 36.9578 143.367 36.8942C143.553 36.8282 143.714 36.7303 143.848 36.6007C143.983 36.4687 144.086 36.3048 144.16 36.1091L144.996 36.3439C144.908 36.6276 144.76 36.8771 144.552 37.0923C144.344 37.3051 144.088 37.4714 143.782 37.5912C143.476 37.7086 143.133 37.7673 142.751 37.7673ZM150.393 33.2771L149.615 33.4972C149.566 33.3676 149.494 33.2416 149.398 33.1193C149.305 32.9946 149.178 32.8919 149.017 32.8112C148.855 32.7305 148.649 32.6901 148.397 32.6901C148.052 32.6901 147.765 32.7696 147.535 32.9286C147.307 33.0851 147.194 33.2844 147.194 33.5265C147.194 33.7418 147.272 33.9117 147.428 34.0365C147.585 34.1612 147.83 34.2651 148.162 34.3483L148.999 34.5537C149.502 34.676 149.878 34.8631 150.125 35.115C150.372 35.3644 150.495 35.686 150.495 36.0798C150.495 36.4026 150.402 36.6912 150.217 36.9456C150.033 37.1999 149.776 37.4004 149.446 37.5472C149.116 37.6939 148.732 37.7673 148.294 37.7673C147.719 37.7673 147.244 37.6426 146.867 37.3931C146.491 37.1437 146.252 36.7793 146.152 36.2999L146.974 36.0945C147.052 36.3977 147.2 36.6252 147.417 36.7768C147.638 36.9284 147.925 37.0043 148.28 37.0043C148.683 37.0043 149.003 36.9187 149.241 36.7475C149.48 36.5738 149.6 36.3659 149.6 36.1238C149.6 35.9282 149.532 35.7643 149.395 35.6322C149.258 35.4977 149.047 35.3975 148.764 35.3314L147.825 35.1113C147.309 34.989 146.93 34.7995 146.687 34.5427C146.448 34.2835 146.328 33.9594 146.328 33.5706C146.328 33.2526 146.417 32.9714 146.596 32.7268C146.777 32.4822 147.022 32.2903 147.333 32.1509C147.646 32.0115 148.001 31.9418 148.397 31.9418C148.955 31.9418 149.392 32.064 149.71 32.3086C150.031 32.5532 150.258 32.876 150.393 33.2771ZM155.79 33.2771L155.012 33.4972C154.963 33.3676 154.891 33.2416 154.796 33.1193C154.703 32.9946 154.576 32.8919 154.414 32.8112C154.253 32.7305 154.046 32.6901 153.794 32.6901C153.449 32.6901 153.162 32.7696 152.932 32.9286C152.705 33.0851 152.591 33.2844 152.591 33.5265C152.591 33.7418 152.669 33.9117 152.826 34.0365C152.982 34.1612 153.227 34.2651 153.559 34.3483L154.396 34.5537C154.9 34.676 155.275 34.8631 155.522 35.115C155.769 35.3644 155.893 35.686 155.893 36.0798C155.893 36.4026 155.8 36.6912 155.614 36.9456C155.43 37.1999 155.174 37.4004 154.843 37.5472C154.513 37.6939 154.129 37.7673 153.691 37.7673C153.117 37.7673 152.641 37.6426 152.264 37.3931C151.888 37.1437 151.649 36.7793 151.549 36.2999L152.371 36.0945C152.449 36.3977 152.597 36.6252 152.815 36.7768C153.035 36.9284 153.322 37.0043 153.677 37.0043C154.08 37.0043 154.401 36.9187 154.638 36.7475C154.878 36.5738 154.997 36.3659 154.997 36.1238C154.997 35.9282 154.929 35.7643 154.792 35.6322C154.655 35.4977 154.445 35.3975 154.161 35.3314L153.222 35.1113C152.706 34.989 152.327 34.7995 152.085 34.5427C151.845 34.2835 151.725 33.9594 151.725 33.5706C151.725 33.2526 151.814 32.9714 151.993 32.7268C152.174 32.4822 152.42 32.2903 152.73 32.1509C153.043 32.0115 153.398 31.9418 153.794 31.9418C154.352 31.9418 154.79 32.064 155.107 32.3086C155.428 32.5532 155.655 32.876 155.79 33.2771ZM160.219 37.6499V30.1369H162.845C163.369 30.1369 163.8 30.2274 164.14 30.4083C164.48 30.5869 164.733 30.8278 164.9 31.131C165.066 31.4318 165.149 31.7657 165.149 32.1325C165.149 32.4553 165.092 32.7219 164.977 32.9322C164.864 33.1426 164.715 33.3089 164.529 33.4312C164.346 33.5534 164.146 33.6439 163.931 33.7026V33.776C164.161 33.7907 164.392 33.8714 164.624 34.0181C164.857 34.1649 165.051 34.3752 165.208 34.6491C165.364 34.923 165.443 35.2581 165.443 35.6543C165.443 36.0309 165.357 36.3696 165.186 36.6704C165.015 36.9712 164.744 37.2097 164.375 37.3858C164.006 37.5619 163.525 37.6499 162.933 37.6499H160.219ZM161.128 36.8428H162.933C163.528 36.8428 163.949 36.7279 164.199 36.498C164.451 36.2657 164.577 35.9844 164.577 35.6543C164.577 35.3999 164.512 35.1651 164.382 34.9499C164.253 34.7322 164.068 34.5586 163.828 34.429C163.589 34.2969 163.305 34.2309 162.977 34.2309H161.128V36.8428ZM161.128 33.4385H162.816C163.09 33.4385 163.337 33.3847 163.557 33.2771C163.779 33.1695 163.956 33.0178 164.085 32.8222C164.217 32.6265 164.283 32.3966 164.283 32.1325C164.283 31.8024 164.168 31.5223 163.938 31.2924C163.709 31.0601 163.344 30.9439 162.845 30.9439H161.128V33.4385ZM169.183 37.7673C168.64 37.7673 168.171 37.6475 167.777 37.4078C167.386 37.1657 167.084 36.8282 166.871 36.3953C166.661 35.96 166.556 35.4537 166.556 34.8765C166.556 34.2994 166.661 33.7907 166.871 33.3504C167.084 32.9078 167.38 32.5629 167.759 32.3159C168.141 32.0665 168.586 31.9418 169.094 31.9418C169.388 31.9418 169.678 31.9907 169.964 32.0885C170.25 32.1863 170.511 32.3453 170.745 32.5654C170.98 32.7831 171.167 33.0716 171.307 33.4312C171.446 33.7907 171.516 34.2333 171.516 34.7591V35.126H167.172V34.3776H170.635C170.635 34.0597 170.572 33.776 170.444 33.5265C170.32 33.2771 170.141 33.0802 169.909 32.9359C169.679 32.7916 169.408 32.7195 169.094 32.7195C168.75 32.7195 168.451 32.8051 168.199 32.9763C167.95 33.145 167.758 33.3651 167.623 33.6366C167.489 33.9081 167.422 34.1991 167.422 34.5097V35.0086C167.422 35.4341 167.495 35.7949 167.642 36.0908C167.791 36.3843 167.998 36.6081 168.262 36.7621C168.526 36.9138 168.833 36.9896 169.183 36.9896C169.41 36.9896 169.615 36.9578 169.799 36.8942C169.985 36.8282 170.145 36.7303 170.279 36.6007C170.414 36.4687 170.518 36.3048 170.591 36.1091L171.428 36.3439C171.34 36.6276 171.192 36.8771 170.984 37.0923C170.776 37.3051 170.519 37.4714 170.213 37.5912C169.908 37.7086 169.564 37.7673 169.183 37.7673ZM173.219 39.7629C173.072 39.7629 172.941 39.7507 172.826 39.7263C172.711 39.7042 172.632 39.6822 172.588 39.6602L172.808 38.8972C173.018 38.951 173.204 38.9706 173.365 38.9559C173.527 38.9412 173.67 38.8691 173.795 38.7394C173.922 38.6123 174.038 38.4056 174.143 38.1195L174.305 37.6793L172.221 32.0151H173.16L174.715 36.5053H174.774L176.33 32.0151H177.269L174.877 38.4716C174.769 38.7627 174.636 39.0036 174.477 39.1943C174.318 39.3875 174.133 39.5306 173.923 39.6235C173.715 39.7165 173.48 39.7629 173.219 39.7629ZM180.499 37.7673C179.99 37.7673 179.544 37.6462 179.16 37.4041C178.778 37.162 178.48 36.8233 178.265 36.3879C178.052 35.9526 177.946 35.4439 177.946 34.8619C177.946 34.2749 178.052 33.7625 178.265 33.3248C178.48 32.887 178.778 32.5471 179.16 32.3049C179.544 32.0628 179.99 31.9418 180.499 31.9418C181.008 31.9418 181.453 32.0628 181.834 32.3049C182.218 32.5471 182.517 32.887 182.729 33.3248C182.944 33.7625 183.052 34.2749 183.052 34.8619C183.052 35.4439 182.944 35.9526 182.729 36.3879C182.517 36.8233 182.218 37.162 181.834 37.4041C181.453 37.6462 181.008 37.7673 180.499 37.7673ZM180.499 36.9896C180.885 36.9896 181.203 36.8905 181.453 36.6924C181.702 36.4943 181.887 36.2339 182.007 35.911C182.126 35.5882 182.186 35.2385 182.186 34.8619C182.186 34.4852 182.126 34.1343 182.007 33.809C181.887 33.4837 181.702 33.2208 181.453 33.0203C181.203 32.8197 180.885 32.7195 180.499 32.7195C180.112 32.7195 179.795 32.8197 179.545 33.0203C179.296 33.2208 179.111 33.4837 178.991 33.809C178.871 34.1343 178.811 34.4852 178.811 34.8619C178.811 35.2385 178.871 35.5882 178.991 35.911C179.111 36.2339 179.296 36.4943 179.545 36.6924C179.795 36.8905 180.112 36.9896 180.499 36.9896ZM185.239 34.2602V37.6499H184.374V32.0151H185.21V32.8956H185.283C185.416 32.6094 185.616 32.3795 185.885 32.2059C186.154 32.0298 186.501 31.9418 186.927 31.9418C187.308 31.9418 187.642 32.02 187.928 32.1765C188.215 32.3306 188.437 32.5654 188.596 32.8809C188.755 33.1939 188.835 33.5901 188.835 34.0695V37.6499H187.969V34.1282C187.969 33.6855 187.854 33.3407 187.624 33.0937C187.394 32.8442 187.079 32.7195 186.677 32.7195C186.401 32.7195 186.154 32.7794 185.936 32.8992C185.721 33.0191 185.551 33.1939 185.427 33.4238C185.302 33.6537 185.239 33.9325 185.239 34.2602ZM192.544 37.7673C192.075 37.7673 191.66 37.6487 191.301 37.4115C190.941 37.1718 190.66 36.8343 190.457 36.399C190.254 35.9612 190.152 35.4439 190.152 34.8472C190.152 34.2553 190.254 33.7418 190.457 33.3064C190.66 32.8711 190.942 32.5348 191.304 32.2976C191.666 32.0604 192.085 31.9418 192.559 31.9418C192.926 31.9418 193.216 32.0029 193.428 32.1252C193.644 32.245 193.807 32.382 193.92 32.536C194.035 32.6877 194.124 32.8124 194.188 32.9102H194.261V30.1369H195.127V37.6499H194.29V36.7841H194.188C194.124 36.8869 194.034 37.0165 193.916 37.173C193.799 37.3271 193.631 37.4653 193.414 37.5875C193.196 37.7074 192.906 37.7673 192.544 37.7673ZM192.662 36.9896C193.009 36.9896 193.302 36.8991 193.542 36.7181C193.782 36.5347 193.964 36.2816 194.089 35.9587C194.213 35.6335 194.276 35.2581 194.276 34.8325C194.276 34.4119 194.215 34.0438 194.092 33.7283C193.97 33.4104 193.789 33.1634 193.549 32.9873C193.31 32.8087 193.014 32.7195 192.662 32.7195C192.295 32.7195 191.989 32.8136 191.745 33.0019C191.502 33.1878 191.32 33.4409 191.198 33.7613C191.078 34.0793 191.018 34.4363 191.018 34.8325C191.018 35.2336 191.079 35.598 191.202 35.9257C191.326 36.251 191.51 36.5102 191.752 36.7034C191.996 36.8942 192.3 36.9896 192.662 36.9896ZM199.856 37.6499V30.1369H202.482C203.006 30.1369 203.437 30.2274 203.777 30.4083C204.117 30.5869 204.37 30.8278 204.537 31.131C204.703 31.4318 204.786 31.7657 204.786 32.1325C204.786 32.4553 204.729 32.7219 204.614 32.9322C204.501 33.1426 204.352 33.3089 204.166 33.4312C203.983 33.5534 203.783 33.6439 203.568 33.7026V33.776C203.798 33.7907 204.029 33.8714 204.261 34.0181C204.494 34.1649 204.688 34.3752 204.845 34.6491C205.001 34.923 205.079 35.2581 205.079 35.6543C205.079 36.0309 204.994 36.3696 204.823 36.6704C204.651 36.9712 204.381 37.2097 204.012 37.3858C203.643 37.5619 203.162 37.6499 202.57 37.6499H199.856ZM200.765 36.8428H202.57C203.165 36.8428 203.586 36.7279 203.836 36.498C204.088 36.2657 204.214 35.9844 204.214 35.6543C204.214 35.3999 204.149 35.1651 204.019 34.9499C203.89 34.7322 203.705 34.5586 203.465 34.429C203.226 34.2969 202.942 34.2309 202.614 34.2309H200.765V36.8428ZM200.765 33.4385H202.453C202.727 33.4385 202.974 33.3847 203.194 33.2771C203.416 33.1695 203.593 33.0178 203.722 32.8222C203.854 32.6265 203.92 32.3966 203.92 32.1325C203.92 31.8024 203.805 31.5223 203.575 31.2924C203.346 31.0601 202.981 30.9439 202.482 30.9439H200.765V33.4385ZM208.746 37.7673C208.237 37.7673 207.791 37.6462 207.407 37.4041C207.026 37.162 206.727 36.8233 206.512 36.3879C206.299 35.9526 206.193 35.4439 206.193 34.8619C206.193 34.2749 206.299 33.7625 206.512 33.3248C206.727 32.887 207.026 32.5471 207.407 32.3049C207.791 32.0628 208.237 31.9418 208.746 31.9418C209.255 31.9418 209.7 32.0628 210.081 32.3049C210.465 32.5471 210.764 32.887 210.977 33.3248C211.192 33.7625 211.299 34.2749 211.299 34.8619C211.299 35.4439 211.192 35.9526 210.977 36.3879C210.764 36.8233 210.465 37.162 210.081 37.4041C209.7 37.6462 209.255 37.7673 208.746 37.7673ZM208.746 36.9896C209.133 36.9896 209.45 36.8905 209.7 36.6924C209.949 36.4943 210.134 36.2339 210.254 35.911C210.374 35.5882 210.434 35.2385 210.434 34.8619C210.434 34.4852 210.374 34.1343 210.254 33.809C210.134 33.4837 209.949 33.2208 209.7 33.0203C209.45 32.8197 209.133 32.7195 208.746 32.7195C208.36 32.7195 208.042 32.8197 207.792 33.0203C207.543 33.2208 207.358 33.4837 207.238 33.809C207.119 34.1343 207.059 34.4852 207.059 34.8619C207.059 35.2385 207.119 35.5882 207.238 35.911C207.358 36.2339 207.543 36.4943 207.792 36.6924C208.042 36.8905 208.36 36.9896 208.746 36.9896ZM216.172 35.3461V32.0151H217.038V37.6499H216.172V36.6961H216.113C215.981 36.9822 215.776 37.2256 215.497 37.4261C215.218 37.6242 214.866 37.7233 214.441 37.7233C214.088 37.7233 213.775 37.6462 213.501 37.4922C213.227 37.3356 213.012 37.1009 212.856 36.7878C212.699 36.4723 212.621 36.0749 212.621 35.5956V32.0151H213.487V35.5369C213.487 35.9477 213.602 36.2754 213.832 36.52C214.064 36.7646 214.36 36.8869 214.719 36.8869C214.935 36.8869 215.153 36.8318 215.376 36.7218C215.601 36.6117 215.789 36.443 215.941 36.2155C216.095 35.9881 216.172 35.6983 216.172 35.3461ZM219.489 34.2602V37.6499H218.623V32.0151H219.46V32.8956H219.533C219.665 32.6094 219.866 32.3795 220.135 32.2059C220.404 32.0298 220.751 31.9418 221.177 31.9418C221.558 31.9418 221.892 32.02 222.178 32.1765C222.464 32.3306 222.687 32.5654 222.846 32.8809C223.005 33.1939 223.084 33.5901 223.084 34.0695V37.6499H222.219V34.1282C222.219 33.6855 222.104 33.3407 221.874 33.0937C221.644 32.8442 221.328 32.7195 220.927 32.7195C220.651 32.7195 220.404 32.7794 220.186 32.8992C219.971 33.0191 219.801 33.1939 219.676 33.4238C219.552 33.6537 219.489 33.9325 219.489 34.2602ZM226.794 37.7673C226.325 37.7673 225.91 37.6487 225.55 37.4115C225.191 37.1718 224.91 36.8343 224.707 36.399C224.504 35.9612 224.402 35.4439 224.402 34.8472C224.402 34.2553 224.504 33.7418 224.707 33.3064C224.91 32.8711 225.192 32.5348 225.554 32.2976C225.916 32.0604 226.334 31.9418 226.809 31.9418C227.176 31.9418 227.465 32.0029 227.678 32.1252C227.893 32.245 228.057 32.382 228.17 32.536C228.285 32.6877 228.374 32.8124 228.438 32.9102H228.511V30.1369H229.377V37.6499H228.54V36.7841H228.438C228.374 36.8869 228.284 37.0165 228.166 37.173C228.049 37.3271 227.881 37.4653 227.664 37.5875C227.446 37.7074 227.156 37.7673 226.794 37.7673ZM226.911 36.9896C227.259 36.9896 227.552 36.8991 227.792 36.7181C228.032 36.5347 228.214 36.2816 228.339 35.9587C228.463 35.6335 228.526 35.2581 228.526 34.8325C228.526 34.4119 228.464 34.0438 228.342 33.7283C228.22 33.4104 228.039 33.1634 227.799 32.9873C227.56 32.8087 227.264 32.7195 226.911 32.7195C226.545 32.7195 226.239 32.8136 225.994 33.0019C225.752 33.1878 225.57 33.4409 225.448 33.7613C225.328 34.0793 225.268 34.4363 225.268 34.8325C225.268 35.2336 225.329 35.598 225.451 35.9257C225.576 36.251 225.76 36.5102 226.002 36.7034C226.246 36.8942 226.55 36.9896 226.911 36.9896ZM232.741 37.782C232.384 37.782 232.06 37.7147 231.769 37.5802C231.478 37.4432 231.246 37.2464 231.075 36.9896C230.904 36.7303 230.818 36.4173 230.818 36.0504C230.818 35.7276 230.882 35.4659 231.009 35.2654C231.136 35.0624 231.306 34.9034 231.519 34.7885C231.732 34.6735 231.967 34.5879 232.223 34.5317C232.483 34.473 232.743 34.4265 233.005 34.3923C233.347 34.3483 233.625 34.3153 233.838 34.2932C234.053 34.2688 234.209 34.2284 234.307 34.1722C234.407 34.1159 234.458 34.0181 234.458 33.8787V33.8494C234.458 33.4874 234.359 33.2062 234.16 33.0056C233.965 32.8051 233.668 32.7048 233.269 32.7048C232.856 32.7048 232.532 32.7953 232.297 32.9763C232.062 33.1572 231.897 33.3504 231.802 33.5559L230.98 33.2624C231.127 32.92 231.322 32.6534 231.567 32.4627C231.814 32.2695 232.083 32.135 232.374 32.0591C232.667 31.9809 232.956 31.9418 233.24 31.9418C233.421 31.9418 233.628 31.9638 233.863 32.0078C234.1 32.0494 234.329 32.1362 234.549 32.2682C234.772 32.4003 234.956 32.5996 235.103 32.8662C235.25 33.1328 235.323 33.4899 235.323 33.9374V37.6499H234.458V36.8869H234.414C234.355 37.0091 234.257 37.14 234.12 37.2794C233.983 37.4188 233.801 37.5374 233.573 37.6352C233.346 37.7331 233.068 37.782 232.741 37.782ZM232.873 37.0043C233.215 37.0043 233.504 36.937 233.739 36.8025C233.976 36.668 234.154 36.4943 234.274 36.2816C234.396 36.0688 234.458 35.845 234.458 35.6102V34.8178C234.421 34.8619 234.34 34.9022 234.215 34.9389C234.093 34.9731 233.951 35.0037 233.79 35.0306C233.631 35.0551 233.476 35.0771 233.324 35.0966C233.175 35.1138 233.054 35.1284 232.961 35.1407C232.736 35.17 232.525 35.2177 232.33 35.2837C232.137 35.3473 231.98 35.4439 231.86 35.5735C231.743 35.7007 231.684 35.8744 231.684 36.0945C231.684 36.3953 231.795 36.6227 232.018 36.7768C232.243 36.9284 232.528 37.0043 232.873 37.0043ZM236.904 37.6499V32.0151H237.74V32.8662H237.799C237.901 32.5874 238.087 32.3612 238.356 32.1875C238.625 32.0139 238.929 31.9271 239.266 31.9271C239.33 31.9271 239.409 31.9283 239.504 31.9307C239.6 31.9332 239.672 31.9369 239.721 31.9418V32.8222C239.692 32.8149 239.624 32.8038 239.519 32.7892C239.416 32.7721 239.308 32.7635 239.193 32.7635C238.919 32.7635 238.674 32.821 238.459 32.9359C238.246 33.0484 238.077 33.2049 237.953 33.4055C237.83 33.6036 237.769 33.8298 237.769 34.0841V37.6499H236.904ZM240.747 37.6499V32.0151H241.613V37.6499H240.747ZM241.187 31.076C241.019 31.076 240.873 31.0185 240.751 30.9036C240.631 30.7886 240.571 30.6505 240.571 30.489C240.571 30.3276 240.631 30.1894 240.751 30.0745C240.873 29.9596 241.019 29.9021 241.187 29.9021C241.356 29.9021 241.5 29.9596 241.62 30.0745C241.743 30.1894 241.804 30.3276 241.804 30.489C241.804 30.6505 241.743 30.7886 241.62 30.9036C241.5 31.0185 241.356 31.076 241.187 31.076ZM245.561 37.7673C245.018 37.7673 244.55 37.6475 244.156 37.4078C243.765 37.1657 243.463 36.8282 243.25 36.3953C243.04 35.96 242.934 35.4537 242.934 34.8765C242.934 34.2994 243.04 33.7907 243.25 33.3504C243.463 32.9078 243.759 32.5629 244.138 32.3159C244.519 32.0665 244.964 31.9418 245.473 31.9418C245.767 31.9418 246.056 31.9907 246.342 32.0885C246.629 32.1863 246.889 32.3453 247.124 32.5654C247.359 32.7831 247.546 33.0716 247.685 33.4312C247.825 33.7907 247.894 34.2333 247.894 34.7591V35.126H243.551V34.3776H247.014C247.014 34.0597 246.95 33.776 246.823 33.5265C246.698 33.2771 246.52 33.0802 246.287 32.9359C246.058 32.7916 245.786 32.7195 245.473 32.7195C245.128 32.7195 244.83 32.8051 244.578 32.9763C244.329 33.145 244.137 33.3651 244.002 33.6366C243.867 33.9081 243.8 34.1991 243.8 34.5097V35.0086C243.8 35.4341 243.874 35.7949 244.02 36.0908C244.17 36.3843 244.376 36.6081 244.64 36.7621C244.904 36.9138 245.211 36.9896 245.561 36.9896C245.789 36.9896 245.994 36.9578 246.177 36.8942C246.363 36.8282 246.523 36.7303 246.658 36.6007C246.792 36.4687 246.896 36.3048 246.97 36.1091L247.806 36.3439C247.718 36.6276 247.57 36.8771 247.362 37.0923C247.154 37.3051 246.898 37.4714 246.592 37.5912C246.286 37.7086 245.943 37.7673 245.561 37.7673ZM253.203 33.2771L252.425 33.4972C252.376 33.3676 252.304 33.2416 252.208 33.1193C252.115 32.9946 251.988 32.8919 251.827 32.8112C251.665 32.7305 251.459 32.6901 251.207 32.6901C250.862 32.6901 250.575 32.7696 250.345 32.9286C250.117 33.0851 250.004 33.2844 250.004 33.5265C250.004 33.7418 250.082 33.9117 250.238 34.0365C250.395 34.1612 250.639 34.2651 250.972 34.3483L251.809 34.5537C252.312 34.676 252.688 34.8631 252.935 35.115C253.182 35.3644 253.305 35.686 253.305 36.0798C253.305 36.4026 253.212 36.6912 253.026 36.9456C252.843 37.1999 252.586 37.4004 252.256 37.5472C251.926 37.6939 251.542 37.7673 251.104 37.7673C250.529 37.7673 250.054 37.6426 249.677 37.3931C249.3 37.1437 249.062 36.7793 248.962 36.2999L249.784 36.0945C249.862 36.3977 250.01 36.6252 250.227 36.7768C250.448 36.9284 250.735 37.0043 251.089 37.0043C251.493 37.0043 251.813 36.9187 252.051 36.7475C252.29 36.5738 252.41 36.3659 252.41 36.1238C252.41 35.9282 252.342 35.7643 252.205 35.6322C252.068 35.4977 251.857 35.3975 251.574 35.3314L250.635 35.1113C250.119 34.989 249.739 34.7995 249.497 34.5427C249.258 34.2835 249.138 33.9594 249.138 33.5706C249.138 33.2526 249.227 32.9714 249.406 32.7268C249.587 32.4822 249.832 32.2903 250.143 32.1509C250.456 32.0115 250.811 31.9418 251.207 31.9418C251.764 31.9418 252.202 32.064 252.52 32.3086C252.841 32.5532 253.068 32.876 253.203 33.2771Z" fill="#010101"/>
<path d="M47.5413 2.13965H47.0742V38.8605H47.5413V2.13965Z" fill="#848387"/>
</g>
<defs>
<clipPath id="clip0_377_4430">
<rect width="263" height="39.4007" fill="white" transform="translate(0 0.799805)"/>
</clipPath>
</defs>
</svg>
