<svg xmlns="http://www.w3.org/2000/svg" xmlns:xlink="http://www.w3.org/1999/xlink" viewBox="0 0 331.77 631.73"><defs><style>.cls-1{fill:url(#Degradado_sin_nombre_12);}.cls-2{fill:url(#Degradado_sin_nombre_12-2);}.cls-3{fill:url(#Degradado_sin_nombre_12-3);}.cls-4{fill:url(#Degradado_sin_nombre_12-4);}.cls-5{fill:url(#Degradado_sin_nombre_12-5);}.cls-6{fill:url(#Degradado_sin_nombre_12-6);}.cls-7{fill:url(#Degradado_sin_nombre_12-7);}.cls-8{fill:url(#Degradado_sin_nombre_12-8);}.cls-9{fill:url(#Degradado_sin_nombre_12-9);}.cls-10{fill:url(#Degradado_sin_nombre_12-10);}.cls-11{fill:url(#Degradado_sin_nombre_12-11);}.cls-12{fill:url(#Degradado_sin_nombre_12-12);}.cls-13{fill:url(#Degradado_sin_nombre_12-13);}.cls-14{fill:url(#Degradado_sin_nombre_12-14);}.cls-15{fill:url(#Degradado_sin_nombre_12-15);}.cls-16{fill:url(#Degradado_sin_nombre_12-16);}.cls-17{fill:url(#Degradado_sin_nombre_12-17);}.cls-18{fill:url(#Degradado_sin_nombre_12-18);}.cls-19{fill:url(#Degradado_sin_nombre_11);}.cls-20{fill:url(#Degradado_sin_nombre_11-2);}.cls-21{fill:url(#Degradado_sin_nombre_11-3);}.cls-22{fill:url(#Degradado_sin_nombre_11-4);}.cls-23{fill:url(#Degradado_sin_nombre_11-5);}.cls-24{fill:url(#Degradado_sin_nombre_11-6);}.cls-25{fill:url(#Degradado_sin_nombre_11-7);}.cls-26{fill:url(#Degradado_sin_nombre_11-8);}.cls-27{fill:url(#Degradado_sin_nombre_11-9);}.cls-28{fill:url(#Degradado_sin_nombre_11-10);}.cls-29{fill:url(#Degradado_sin_nombre_11-11);}.cls-30{fill:url(#Degradado_sin_nombre_11-12);}.cls-31{fill:url(#Degradado_sin_nombre_11-13);}.cls-32{fill:url(#Degradado_sin_nombre_11-14);}.cls-33{fill:url(#Degradado_sin_nombre_11-15);}.cls-34{fill:url(#Degradado_sin_nombre_11-16);}.cls-35{fill:url(#Degradado_sin_nombre_11-17);}.cls-36{fill:url(#Degradado_sin_nombre_11-18);}.cls-37,.cls-41,.cls-51{fill:none;stroke-miterlimit:10;}.cls-37{stroke:#7a34c5;}.cls-37,.cls-41{stroke-width:2px;}.cls-38{fill:url(#Degradado_sin_nombre_718);}.cls-39,.cls-44{fill:#fff;}.cls-39{opacity:0.15;}.cls-40{fill:url(#Degradado_sin_nombre_10);}.cls-41{stroke:#ffce35;}.cls-42{fill:url(#Degradado_sin_nombre_7);}.cls-43{fill:url(#Degradado_sin_nombre_6);}.cls-44{opacity:0.1;}.cls-45{fill:url(#Degradado_sin_nombre_6-2);}.cls-46{fill:#44b9ec;}.cls-47{fill:url(#Degradado_sin_nombre_717);}.cls-48{fill:url(#Degradado_sin_nombre_716);}.cls-49{fill:url(#Degradado_sin_nombre_4);}.cls-50{fill:url(#Degradado_sin_nombre_2);}.cls-51{stroke:#fff;}.cls-52{fill:#b57272;}</style><linearGradient id="Degradado_sin_nombre_12" x1="950.04" y1="874.73" x2="987.92" y2="874.73" gradientTransform="translate(1107.73 -511.31) rotate(90)" gradientUnits="userSpaceOnUse"><stop offset="0" stop-color="#f283ef"/><stop offset="0.79" stop-color="#ffc0ff"/></linearGradient><linearGradient id="Degradado_sin_nombre_12-2" x1="935.34" y1="862" x2="958.52" y2="862" xlink:href="#Degradado_sin_nombre_12"/><linearGradient id="Degradado_sin_nombre_12-3" x1="945.14" y1="870.49" x2="978.12" y2="870.49" xlink:href="#Degradado_sin_nombre_12"/><linearGradient id="Degradado_sin_nombre_12-4" x1="915.71" y1="845.02" x2="919.32" y2="845.02" xlink:href="#Degradado_sin_nombre_12"/><linearGradient id="Degradado_sin_nombre_12-5" x1="920.64" y1="849.27" x2="929.12" y2="849.27" xlink:href="#Degradado_sin_nombre_12"/><linearGradient id="Degradado_sin_nombre_12-6" x1="954.94" y1="878.97" x2="997.72" y2="878.97" xlink:href="#Degradado_sin_nombre_12"/><linearGradient id="Degradado_sin_nombre_12-7" x1="925.54" y1="853.51" x2="938.92" y2="853.51" xlink:href="#Degradado_sin_nombre_12"/><linearGradient id="Degradado_sin_nombre_12-8" x1="930.44" y1="857.76" x2="948.72" y2="857.76" xlink:href="#Degradado_sin_nombre_12"/><linearGradient id="Degradado_sin_nombre_12-9" x1="940.24" y1="866.24" x2="968.32" y2="866.24" xlink:href="#Degradado_sin_nombre_12"/><linearGradient id="Degradado_sin_nombre_12-10" x1="994.14" y1="912.92" x2="1076.13" y2="912.92" xlink:href="#Degradado_sin_nombre_12"/><linearGradient id="Degradado_sin_nombre_12-11" x1="989.24" y1="908.68" x2="1066.33" y2="908.68" xlink:href="#Degradado_sin_nombre_12"/><linearGradient id="Degradado_sin_nombre_12-12" x1="999.04" y1="917.17" x2="1085.93" y2="917.17" xlink:href="#Degradado_sin_nombre_12"/><linearGradient id="Degradado_sin_nombre_12-13" x1="984.34" y1="904.44" x2="1056.53" y2="904.44" xlink:href="#Degradado_sin_nombre_12"/><linearGradient id="Degradado_sin_nombre_12-14" x1="959.84" y1="883.22" x2="1007.52" y2="883.22" xlink:href="#Degradado_sin_nombre_12"/><linearGradient id="Degradado_sin_nombre_12-15" x1="979.44" y1="900.19" x2="1046.73" y2="900.19" xlink:href="#Degradado_sin_nombre_12"/><linearGradient id="Degradado_sin_nombre_12-16" x1="969.64" y1="891.71" x2="1027.13" y2="891.71" xlink:href="#Degradado_sin_nombre_12"/><linearGradient id="Degradado_sin_nombre_12-17" x1="964.74" y1="887.46" x2="1017.33" y2="887.46" xlink:href="#Degradado_sin_nombre_12"/><linearGradient id="Degradado_sin_nombre_12-18" x1="974.54" y1="895.95" x2="1036.93" y2="895.95" xlink:href="#Degradado_sin_nombre_12"/><linearGradient id="Degradado_sin_nombre_11" x1="545.63" y1="1072.69" x2="583.52" y2="1072.69" gradientTransform="translate(1107.73 -511.31) rotate(90)" gradientUnits="userSpaceOnUse"><stop offset="0" stop-color="#6eb5f8"/><stop offset="1" stop-color="#9ee5f3"/></linearGradient><linearGradient id="Degradado_sin_nombre_11-2" x1="530.93" y1="1059.96" x2="554.12" y2="1059.96" xlink:href="#Degradado_sin_nombre_11"/><linearGradient id="Degradado_sin_nombre_11-3" x1="540.73" y1="1068.44" x2="573.72" y2="1068.44" xlink:href="#Degradado_sin_nombre_11"/><linearGradient id="Degradado_sin_nombre_11-4" x1="511.31" y1="1042.98" x2="514.91" y2="1042.98" xlink:href="#Degradado_sin_nombre_11"/><linearGradient id="Degradado_sin_nombre_11-5" x1="516.23" y1="1047.23" x2="524.71" y2="1047.23" xlink:href="#Degradado_sin_nombre_11"/><linearGradient id="Degradado_sin_nombre_11-6" x1="552.1" y1="1074.03" x2="593.32" y2="1074.03" xlink:href="#Degradado_sin_nombre_11"/><linearGradient id="Degradado_sin_nombre_11-7" x1="521.13" y1="1051.47" x2="534.51" y2="1051.47" xlink:href="#Degradado_sin_nombre_11"/><linearGradient id="Degradado_sin_nombre_11-8" x1="526.03" y1="1055.71" x2="544.31" y2="1055.71" xlink:href="#Degradado_sin_nombre_11"/><linearGradient id="Degradado_sin_nombre_11-9" x1="535.83" y1="1064.2" x2="563.92" y2="1064.2" xlink:href="#Degradado_sin_nombre_11"/><linearGradient id="Degradado_sin_nombre_11-10" x1="630.51" y1="1074.03" x2="671.72" y2="1074.03" xlink:href="#Degradado_sin_nombre_11"/><linearGradient id="Degradado_sin_nombre_11-11" x1="620.71" y1="1074.03" x2="661.92" y2="1074.03" xlink:href="#Degradado_sin_nombre_11"/><linearGradient id="Degradado_sin_nombre_11-12" x1="640.31" y1="1074.03" x2="681.52" y2="1074.03" xlink:href="#Degradado_sin_nombre_11"/><linearGradient id="Degradado_sin_nombre_11-13" x1="610.91" y1="1074.03" x2="652.12" y2="1074.03" xlink:href="#Degradado_sin_nombre_11"/><linearGradient id="Degradado_sin_nombre_11-14" x1="561.9" y1="1074.03" x2="603.12" y2="1074.03" xlink:href="#Degradado_sin_nombre_11"/><linearGradient id="Degradado_sin_nombre_11-15" x1="601.1" y1="1074.03" x2="642.31" y2="1074.03" xlink:href="#Degradado_sin_nombre_11"/><linearGradient id="Degradado_sin_nombre_11-16" x1="581.5" y1="1074.03" x2="622.72" y2="1074.03" xlink:href="#Degradado_sin_nombre_11"/><linearGradient id="Degradado_sin_nombre_11-17" x1="571.7" y1="1074.03" x2="612.92" y2="1074.03" xlink:href="#Degradado_sin_nombre_11"/><linearGradient id="Degradado_sin_nombre_11-18" x1="591.31" y1="1074.03" x2="632.52" y2="1074.03" xlink:href="#Degradado_sin_nombre_11"/><linearGradient id="Degradado_sin_nombre_718" x1="869.88" y1="960.49" x2="1060.32" y2="1150.93" gradientTransform="translate(1107.73 -511.31) rotate(90)" gradientUnits="userSpaceOnUse"><stop offset="0" stop-color="#1121b4"/><stop offset="1" stop-color="#000677"/></linearGradient><linearGradient id="Degradado_sin_nombre_10" x1="786.06" y1="930.26" x2="1015.86" y2="1160.06" gradientTransform="translate(1107.73 -511.31) rotate(90)" gradientUnits="userSpaceOnUse"><stop offset="0" stop-color="#cd00c3"/><stop offset="1" stop-color="#7a34c5"/></linearGradient><linearGradient id="Degradado_sin_nombre_7" x1="1084.81" y1="961.31" x2="1104.47" y2="980.97" gradientTransform="translate(1107.73 -511.31) rotate(90)" gradientUnits="userSpaceOnUse"><stop offset="0.21" stop-color="#ff51ff"/><stop offset="0.83" stop-color="#cd00c3"/></linearGradient><linearGradient id="Degradado_sin_nombre_6" x1="669.94" y1="981.36" x2="693.1" y2="1004.52" gradientTransform="translate(1107.73 -511.31) rotate(90)" gradientUnits="userSpaceOnUse"><stop offset="0" stop-color="#294ca0"/><stop offset="0.48" stop-color="#172a67"/></linearGradient><linearGradient id="Degradado_sin_nombre_6-2" x1="950.66" y1="1048.57" x2="1026.4" y2="1124.31" xlink:href="#Degradado_sin_nombre_6"/><linearGradient id="Degradado_sin_nombre_717" x1="763.17" y1="900.05" x2="854.65" y2="991.53" gradientTransform="translate(1107.73 -511.31) rotate(90)" gradientUnits="userSpaceOnUse"><stop offset="0.12" stop-color="#559cfb"/><stop offset="1" stop-color="#2c44bc"/></linearGradient><linearGradient id="Degradado_sin_nombre_716" x1="825.72" y1="1021.05" x2="866.43" y2="1061.76" gradientTransform="translate(1107.73 -511.31) rotate(90)" gradientUnits="userSpaceOnUse"><stop offset="0" stop-color="#ffce35"/><stop offset="1" stop-color="#df9900"/></linearGradient><linearGradient id="Degradado_sin_nombre_4" x1="632.11" y1="993.12" x2="787.22" y2="1148.23" gradientTransform="translate(1107.73 -511.31) rotate(90)" gradientUnits="userSpaceOnUse"><stop offset="0.23" stop-color="#b3009f"/><stop offset="0.68" stop-color="#75006b"/></linearGradient><linearGradient id="Degradado_sin_nombre_2" x1="1012.84" y1="1025.58" x2="1118.52" y2="1131.26" gradientTransform="translate(1107.73 -511.31) rotate(90)" gradientUnits="userSpaceOnUse"><stop offset="0.12" stop-color="#72ceff"/><stop offset="1" stop-color="#2c68db"/></linearGradient></defs><title>shape2323</title><g id="OBJECTS"><polygon class="cls-1" points="264.27 473.05 204.82 438.73 201.73 440.51 264.27 476.62 264.27 473.05"/><polygon class="cls-2" points="264.27 443.65 230.28 424.03 227.2 425.81 264.27 447.22 264.27 443.65"/><polygon class="cls-3" points="264.27 463.25 213.31 433.83 210.22 435.61 264.27 466.82 264.27 463.25"/><polygon class="cls-4" points="261.14 406.21 264.27 408.01 264.27 404.41 261.14 406.21"/><polygon class="cls-5" points="264.27 414.25 255.75 409.33 252.66 411.11 264.27 417.81 264.27 414.25"/><polygon class="cls-6" points="264.27 482.85 196.33 443.63 193.25 445.41 264.27 486.42 264.27 482.85"/><polygon class="cls-7" points="264.27 424.05 247.26 414.23 244.17 416.01 264.27 427.62 264.27 424.05"/><polygon class="cls-8" points="264.27 433.85 238.77 419.13 235.68 420.91 264.27 437.42 264.27 433.85"/><polygon class="cls-9" points="264.27 453.45 221.79 428.93 218.71 430.71 264.27 457.02 264.27 453.45"/><polygon class="cls-10" points="264.27 564.82 264.27 561.26 128.71 482.99 128.43 482.83 125.35 484.61 263.44 564.34 264.27 564.82"/><polygon class="cls-11" points="264.27 555.02 264.27 551.46 137.2 478.09 136.92 477.93 133.84 479.71 263.44 554.54 264.27 555.02"/><polygon class="cls-12" points="264.27 571.06 120.22 487.89 119.95 487.73 116.86 489.51 263.44 574.14 264.27 574.62 264.27 571.06"/><polygon class="cls-13" points="264.27 545.22 264.27 541.66 145.69 473.19 145.41 473.03 142.32 474.81 263.44 544.74 264.27 545.22"/><polygon class="cls-14" points="264.27 492.65 187.84 448.53 184.76 450.31 264.27 496.22 264.27 492.65"/><polygon class="cls-15" points="264.27 535.42 264.27 531.86 154.17 468.29 153.9 468.13 150.81 469.91 263.44 534.94 264.27 535.42"/><polygon class="cls-16" points="264.27 515.82 264.27 512.25 171.15 458.49 170.87 458.33 167.78 460.11 263.44 515.34 264.27 515.82"/><polygon class="cls-17" points="264.27 506.02 264.27 502.45 179.63 453.59 179.36 453.43 176.27 455.21 263.44 505.54 264.27 506.02"/><polygon class="cls-18" points="264.27 525.62 264.27 522.05 162.66 463.39 162.38 463.23 159.3 465.01 263.44 525.14 264.27 525.62"/><polygon class="cls-19" points="66.31 68.64 6.86 34.32 3.78 36.1 66.31 72.21 66.31 68.64"/><polygon class="cls-20" points="66.31 39.24 32.32 19.62 29.24 21.4 66.31 42.81 66.31 39.24"/><polygon class="cls-21" points="66.31 58.84 15.35 29.42 12.26 31.2 66.31 62.41 66.31 58.84"/><polygon class="cls-22" points="63.19 1.8 66.31 3.61 66.31 0 63.19 1.8"/><polygon class="cls-23" points="66.31 9.84 57.79 4.92 54.7 6.7 66.31 13.41 66.31 9.84"/><polygon class="cls-24" points="66.31 82.01 46.78 70.73 43.31 68.73 31.41 61.86 1.1 44.35 1.1 40.79 34.5 60.07 46.4 66.94 46.78 67.16 66.31 78.44 66.31 82.01"/><polygon class="cls-25" points="66.31 19.64 49.3 9.82 46.21 11.6 66.31 23.21 66.31 19.64"/><polygon class="cls-26" points="66.31 29.44 40.81 14.72 37.73 16.5 66.31 33.01 66.31 29.44"/><polygon class="cls-27" points="66.31 49.04 23.84 24.52 20.75 26.3 66.31 52.61 66.31 49.04"/><polygon class="cls-28" points="66.31 160.41 65.48 159.93 46.78 149.13 1.1 122.76 1.1 119.2 46.78 145.57 66.31 156.85 66.31 160.41"/><polygon class="cls-29" points="66.31 150.61 65.48 150.13 46.78 139.33 1.1 112.96 1.1 109.4 46.78 135.77 66.31 147.05 66.31 150.61"/><polygon class="cls-30" points="66.31 170.21 65.48 169.73 46.78 158.93 1.1 132.56 1.1 129 46.78 155.37 66.31 166.65 66.31 170.21"/><polygon class="cls-31" points="66.31 140.81 65.48 140.33 46.78 129.53 1.1 103.16 1.1 99.6 46.78 125.97 66.31 137.25 66.31 140.81"/><polygon class="cls-32" points="66.31 91.81 46.78 80.53 34.82 73.63 22.92 66.76 1.1 54.16 1.1 50.59 26.01 64.97 37.91 71.84 46.78 76.96 66.31 88.24 66.31 91.81"/><polygon class="cls-33" points="66.31 131.01 65.48 130.53 46.78 119.73 1.1 93.36 1.1 89.8 3.96 91.44 46.78 116.17 66.31 127.45 66.31 131.01"/><polygon class="cls-34" points="66.31 111.41 65.48 110.93 46.78 100.13 17.85 83.43 5.95 76.55 1.1 73.76 1.1 70.19 9.03 74.77 20.93 81.64 46.78 96.56 66.31 107.84 66.31 111.41"/><polygon class="cls-35" points="66.31 101.61 65.48 101.13 46.78 90.33 26.33 78.53 14.43 71.65 1.1 63.95 1.1 60.39 17.52 69.87 29.42 76.74 46.78 86.76 66.31 98.04 66.31 101.61"/><polygon class="cls-36" points="66.31 121.21 65.48 120.73 46.78 109.93 9.36 88.33 1.1 83.56 1.1 80 12.44 86.55 46.78 106.37 66.31 117.65 66.31 121.21"/><line class="cls-37" x1="1.1" y1="99.6" x2="1.1" y2="93.36"/><polyline class="cls-37" points="1.1 93.09 3.96 91.44 9.36 88.33 12.44 86.55 17.85 83.43 20.93 81.64 26.33 78.53 29.42 76.74 34.82 73.63 37.91 71.84 43.31 68.73 46.4 66.94 46.78 66.72 51.79 63.83 54.87 62.04 54.88 62.04 60.28 58.93 63.36 57.15 63.37 57.14 131.84 17.61 131.84 199.98 131.84 199.99 131.84 200.22 131.84 262.16 131.84 268.95 131.84 273.39 131.84 296.96 131.84 297.6 131.84 333.04 131.84 389.65 131.84 389.92 131.84 417.03 131.84 428.54 131.84 447.65 115.29 438.09 105.32 432.34 94.48 426.08 84.31 420.21 31.38 389.65 1.1 372.17 1 372.11 1 317.42 1 314.38 1 221.42 1.1 221.48 1.1 198.41 1.1 132.56 1.1 129 1.1 122.76 1.1 119.2 1.1 112.96 1.1 109.4"/><polygon class="cls-38" points="1 593.2 1 314.38 1.1 314.44 46.78 340.81 55.42 345.8 71.67 355.18 71.68 355.18 84.31 362.48 94.48 368.35 131.37 389.65 131.84 389.92 155.31 403.47 155.32 403.47 165.28 409.23 210.6 435.39 211.87 436.13 242.46 453.79 242.09 454.01 236.68 457.12 233.6 458.91 228.2 462.03 225.11 463.81 219.71 466.92 216.62 468.71 211.22 471.82 208.13 473.61 202.74 476.73 199.65 478.51 194.25 481.63 191.16 483.41 185.76 486.53 182.67 488.31 177.28 491.43 174.19 493.21 168.79 496.33 165.7 498.11 160.3 501.23 157.21 503.01 151.81 506.13 148.73 507.91 101.62 535.1 68.25 554.37 1.1 593.14 1 593.2"/><polygon class="cls-39" points="242.46 453.79 1 453.79 1 314.38 1.1 314.44 46.78 340.81 55.42 345.8 71.67 355.18 71.68 355.18 84.31 362.48 94.48 368.35 131.37 389.65 131.84 389.92 155.31 403.47 155.32 403.47 165.28 409.23 210.6 435.39 211.87 436.13 242.46 453.79"/><polygon class="cls-40" points="1 557.88 1 221.42 1.1 221.48 46.78 247.85 84.31 269.52 94.48 275.39 101.7 279.56 131.84 296.96 132.95 297.6 186.46 328.5 235.82 356.99 245.79 362.75 292.38 389.65 264.27 405.88 262.43 406.95 262.42 406.95 257.02 410.06 253.94 411.85 248.54 414.97 248.53 414.97 245.45 416.75 240.05 419.87 240.04 419.87 236.96 421.65 231.56 424.77 228.48 426.55 228.47 426.55 223.07 429.66 219.99 431.45 214.59 434.57 214.58 434.57 211.87 436.13 211.5 436.35 206.1 439.47 203.01 441.25 197.61 444.37 194.53 446.15 189.13 449.27 189.12 449.27 186.04 451.05 181.29 453.79 180.64 454.17 177.55 455.95 172.15 459.07 169.07 460.85 163.66 463.97 160.58 465.75 155.17 468.87 152.09 470.65 146.69 473.77 143.6 475.55 138.2 478.67 135.12 480.45 129.71 483.57 126.63 485.35 121.22 488.47 118.14 490.25 71.03 517.45 58.9 524.45 53.93 527.32 7.08 554.37 1.1 557.82 1 557.88"/><polygon class="cls-39" points="292.38 389.65 1 389.65 1 221.42 1.1 221.48 46.78 247.85 84.31 269.52 94.48 275.39 101.7 279.56 131.84 296.96 132.95 297.6 186.46 328.5 235.82 356.99 245.79 362.75 292.38 389.65"/><polygon class="cls-41" points="94.48 178.41 329.77 314.26 94.48 450.11 94.48 178.41"/><polygon class="cls-41" points="84.31 172.78 319.6 308.63 84.31 444.47 84.31 172.78"/><polygon class="cls-42" points="141.86 597.73 116.94 583.33 141.86 568.94 141.86 597.73"/><polygon class="cls-39" points="141.86 583.33 116.94 583.33 141.86 568.94 141.86 583.33"/><polygon class="cls-43" points="121 187.17 91.63 170.21 121 153.25 121 187.17"/><polygon class="cls-44" points="121 170.21 91.63 170.21 121 153.25 121 170.21"/><polygon class="cls-45" points="1 532.67 1 421.77 1.1 421.83 56.46 453.79 97.04 477.22 49.2 504.84 34.83 513.14 28.76 516.64 1.1 532.61 1 532.67"/><polygon class="cls-44" points="97.04 477.22 1 477.22 1 421.77 1.1 421.83 56.46 453.79 97.04 477.22"/><path class="cls-46" d="M8.6,199.4A2.46,2.46,0,1,1,7.7,196,2.46,2.46,0,0,1,8.6,199.4Z"/><path class="cls-46" d="M16.5,204a2.46,2.46,0,1,1-.9-3.36A2.46,2.46,0,0,1,16.5,204Z"/><path class="cls-46" d="M24.4,208.52a2.46,2.46,0,1,1-.9-3.36A2.46,2.46,0,0,1,24.4,208.52Z"/><path class="cls-46" d="M32.3,213.09a2.46,2.46,0,1,1-.9-3.37A2.46,2.46,0,0,1,32.3,213.09Z"/><path class="cls-46" d="M40.2,217.65a2.46,2.46,0,1,1-.9-3.36A2.46,2.46,0,0,1,40.2,217.65Z"/><path class="cls-46" d="M48.1,222.21a2.46,2.46,0,1,1-.9-3.36A2.46,2.46,0,0,1,48.1,222.21Z"/><path class="cls-46" d="M56,226.77a2.46,2.46,0,1,1-.91-3.36A2.47,2.47,0,0,1,56,226.77Z"/><path class="cls-46" d="M63.91,231.34A2.46,2.46,0,1,1,63,228,2.48,2.48,0,0,1,63.91,231.34Z"/><path class="cls-46" d="M71.81,235.9a2.46,2.46,0,1,1-.9-3.36A2.46,2.46,0,0,1,71.81,235.9Z"/><path class="cls-46" d="M79.71,240.46a2.46,2.46,0,1,1-.9-3.36A2.46,2.46,0,0,1,79.71,240.46Z"/><path class="cls-46" d="M87.61,245a2.46,2.46,0,1,1-.9-3.37A2.47,2.47,0,0,1,87.61,245Z"/><path class="cls-46" d="M95.51,249.59a2.46,2.46,0,1,1-.9-3.36A2.46,2.46,0,0,1,95.51,249.59Z"/><path class="cls-46" d="M103.41,254.15a2.46,2.46,0,1,1-.9-3.36A2.46,2.46,0,0,1,103.41,254.15Z"/><path class="cls-46" d="M111.31,258.71a2.46,2.46,0,1,1-.9-3.36A2.46,2.46,0,0,1,111.31,258.71Z"/><path class="cls-46" d="M119.21,263.28a2.46,2.46,0,1,1-.9-3.37A2.46,2.46,0,0,1,119.21,263.28Z"/><path class="cls-46" d="M127.11,267.84a2.46,2.46,0,1,1-.9-3.36A2.45,2.45,0,0,1,127.11,267.84Z"/><path class="cls-46" d="M135,272.4a2.46,2.46,0,1,1-.9-3.36A2.47,2.47,0,0,1,135,272.4Z"/><path class="cls-46" d="M142.92,277a2.46,2.46,0,1,1-.9-3.36A2.47,2.47,0,0,1,142.92,277Z"/><path class="cls-46" d="M150.82,281.53a2.46,2.46,0,1,1-.9-3.37A2.47,2.47,0,0,1,150.82,281.53Z"/><path class="cls-46" d="M158.72,286.09a2.46,2.46,0,1,1-.9-3.36A2.46,2.46,0,0,1,158.72,286.09Z"/><path class="cls-46" d="M166.62,290.65a2.46,2.46,0,1,1-.9-3.36A2.46,2.46,0,0,1,166.62,290.65Z"/><polygon class="cls-47" points="186.46 364.57 70.46 297.6 186.46 230.63 186.46 364.57"/><polygon class="cls-39" points="186.46 297.6 70.46 297.6 186.46 230.63 186.46 297.6"/><polygon class="cls-48" points="55.42 364.57 107.04 334.77 55.42 304.96 55.42 364.57"/><polygon class="cls-39" points="55.42 334.77 107.04 334.77 55.42 304.96 55.42 334.77"/><polygon class="cls-49" points="46.78 343.85 1.1 317.48 1 317.42 1 221.42 1.1 221.48 1.1 80 0.54 79.67 1.1 79.35 5.95 76.55 9.03 74.77 14.43 71.65 17.52 69.87 22.92 66.76 26.01 64.97 31.41 61.86 34.5 60.07 39.89 56.96 39.9 56.96 42.97 55.17 42.98 55.17 46.78 52.98 46.78 343.85"/><polygon class="cls-39" points="46.78 198.41 1.1 198.41 1.1 80 0.54 79.67 1.1 79.35 5.95 76.55 9.03 74.77 14.43 71.65 17.52 69.87 22.92 66.76 26.01 64.97 31.41 61.86 34.5 60.07 39.89 56.96 39.9 56.96 42.97 55.17 42.98 55.17 46.78 52.98 46.78 198.41"/><polygon class="cls-50" points="1 631.73 1 477.01 1.1 477.07 1.36 477.22 49.2 504.84 71.03 517.45 101.62 535.1 134.99 554.37 1.1 631.67 1 631.73"/><polygon class="cls-39" points="134.99 554.37 1 554.37 1 477.01 1.1 477.07 1.36 477.22 49.2 504.84 71.03 517.45 101.62 535.1 134.99 554.37"/><path class="cls-51" d="M1.1,500.69l-.06,0,0,0V493.3a.53.53,0,0,1,.1-.06,4.27,4.27,0,1,1,0,7.45Z"/><path class="cls-51" d="M20.57,507A4.27,4.27,0,1,1,19,501.18,4.27,4.27,0,0,1,20.57,507Z"/><path class="cls-51" d="M34.28,514.93a4.27,4.27,0,1,1-1.56-5.84A4.27,4.27,0,0,1,34.28,514.93Z"/><path class="cls-51" d="M48,522.84A4.27,4.27,0,1,1,46.42,517,4.27,4.27,0,0,1,48,522.84Z"/><path class="cls-51" d="M61.69,530.75a4.27,4.27,0,1,1-1.57-5.83A4.28,4.28,0,0,1,61.69,530.75Z"/><polygon class="cls-52" points="1.1 79.35 1.1 80 0.54 79.67 1.1 79.35"/><polygon class="cls-52" points="1 631.73 1 221.42 1.1 221.48 1.1 631.67 1 631.73"/></g></svg>