<!--?xml version="1.0" standalone="no"?-->
              <svg id="sw-js-blob-svg" viewBox="0 0 100 100" xmlns="http://www.w3.org/2000/svg" version="1.1">
                    <defs> 
                        <linearGradient id="sw-gradient" x1="0" x2="1" y1="1" y2="0">
                            <stop id="stop1" stop-color="rgba(55, 244.731, 248, 1)" offset="0%"></stop>
                            <stop id="stop2" stop-color="rgba(31, 251, 210.012, 1)" offset="100%"></stop>
                        </linearGradient>
                    </defs>
                <path fill="url(#sw-gradient)" d="M18.5,-31.5C24.5,-28.6,30.3,-24.7,34.3,-19.3C38.3,-13.9,40.5,-6.9,41.5,0.6C42.6,8.1,42.4,16.2,39.4,23.4C36.4,30.5,30.5,36.6,23.5,39.3C16.4,42,8.2,41.4,0.6,40.2C-6.9,39.1,-13.9,37.6,-20.2,34.5C-26.5,31.3,-32.2,26.6,-36.8,20.6C-41.5,14.6,-45.1,7.3,-44.5,0.3C-43.9,-6.6,-39.1,-13.2,-34.6,-19.5C-30.1,-25.8,-25.9,-31.7,-20.2,-34.8C-14.5,-37.9,-7.3,-38,-0.5,-37.1C6.3,-36.2,12.5,-34.4,18.5,-31.5Z" width="100%" height="100%" transform="translate(50 50)" stroke-width="0" style="transition: all 0.3s ease 0s;"></path>
              </svg>