<svg width="44" height="44" viewBox="0 0 44 44" fill="none" xmlns="http://www.w3.org/2000/svg">
<g id="Group">
<path id="Vector" d="M44 6.78633C43.6795 7.49518 43.1384 7.76087 42.3575 7.74151C40.7687 7.70171 39.1789 7.73182 37.5902 7.7286C36.6952 7.72752 36.1886 7.21444 36.1832 6.31626C36.181 5.94624 36.1832 5.57729 36.1832 5.18037C34.4557 5.18037 32.7583 5.18037 30.9964 5.18037C31.1201 5.27718 31.2072 5.35247 31.3019 5.41809C35.3517 8.22017 37.7397 12.0635 38.5066 16.9212C38.5152 16.9771 38.5421 17.0341 38.5389 17.089C38.484 17.9603 38.8885 18.4346 39.6672 18.8724C41.014 19.6297 41.6045 21.3787 41.2356 22.876C40.8451 24.4605 39.5543 25.6103 37.9268 25.8255C36.4166 26.0245 34.8419 25.222 34.1093 23.8785C33.0197 21.881 33.7479 19.5512 35.797 18.5293C36.0369 18.4099 36.0681 18.2851 36.0412 18.0345C35.6152 14.004 33.82 10.7222 30.6608 8.19221C29.1807 7.00684 27.5005 6.20331 25.6729 5.69883C25.4126 5.62676 25.3535 5.77306 25.2513 5.93225C24.0046 7.86521 21.5015 8.32344 19.6772 6.92401C19.3115 6.64326 19.0555 6.22375 18.7274 5.88923C18.6328 5.79242 18.4413 5.69238 18.3305 5.72358C14.1968 6.87991 11.1924 9.40555 9.29821 13.2456C8.54525 14.7709 8.11714 16.3952 7.96117 18.0915C7.93965 18.3217 7.99451 18.4142 8.19028 18.5142C10.0598 19.4694 10.8525 21.341 10.1534 23.3063C9.61553 24.8186 8.47318 25.6781 6.88336 25.8255C5.3258 25.9696 4.06513 25.3403 3.25947 23.9979C1.99987 21.9004 2.82275 19.4511 5.05044 18.4389C5.19027 18.3755 5.33549 18.1646 5.35054 18.0097C5.59687 15.5626 6.26701 13.2499 7.47389 11.0986C8.76361 8.79888 10.4879 6.90142 12.6758 5.42669C12.7694 5.36431 12.8586 5.29546 13.0146 5.18359C11.2548 5.18359 9.56712 5.18359 7.82886 5.18359C7.82886 5.57836 7.83209 5.97421 7.82778 6.37005C7.82025 7.20583 7.29641 7.72645 6.45309 7.72753C4.76324 7.73183 3.07445 7.73183 1.3846 7.72753C0.542356 7.72538 0.017434 7.2026 0.0152827 6.36466C0.0109801 4.80388 0.0432525 3.24311 0.00130189 1.68448C-0.0202113 0.892799 0.22181 0.325924 0.95756 0C2.93354 0 4.90953 0 6.88551 0C8.12897 0.495878 7.76109 1.6264 7.84607 2.57835C11.3097 2.57835 14.7249 2.58158 18.1401 2.56652C18.2584 2.56652 18.4252 2.41377 18.4843 2.29115C18.8543 1.52098 19.3803 0.891721 20.1408 0.49803C20.5399 0.290428 20.982 0.1635 21.4037 0C21.8049 0 22.205 0 22.6062 0C22.7525 0.0505559 22.8967 0.106493 23.0462 0.150595C24.1681 0.476519 24.9802 1.17247 25.475 2.22124C25.6019 2.49015 25.7407 2.58695 26.043 2.58588C29.2882 2.57405 32.5324 2.57835 35.7777 2.57728C35.9014 2.57728 36.0261 2.56437 36.1746 2.55576C36.2316 1.59197 35.9014 0.494802 37.1265 0C39.1025 0 41.0785 0 43.0545 0C43.488 0.196845 43.8032 0.512016 44 0.94443C44 2.89245 44 4.83939 44 6.78633Z" fill="#10191F"/>
<path id="Vector_2" d="M23.337 11.3428C24.702 13.3876 26.0186 15.3614 27.3352 17.3353C29.2789 20.2503 31.2226 23.1653 33.1663 26.0793C33.7999 27.0291 33.7676 27.4916 32.9931 28.3134C30.8526 30.5895 29.4876 33.2636 28.868 36.3217C28.8432 36.4465 28.8024 36.5669 28.7669 36.6982C28.2549 36.5669 27.7665 36.4067 27.2653 36.3217C26.7317 36.2313 26.1864 36.1711 25.6453 36.1668C23.2262 36.1506 20.8059 36.1184 18.3879 36.1786C17.3434 36.2044 16.3054 36.44 15.2297 36.5852C15.1103 36.1227 14.9726 35.5418 14.8102 34.9685C14.0949 32.4472 12.831 30.2356 11.0347 28.3263C10.2494 27.4916 10.2129 27.0355 10.841 26.0943C14.0293 21.3109 17.2186 16.5285 20.4079 11.7461C20.4832 11.6321 20.5682 11.5245 20.7177 11.3191C20.7177 11.5514 20.7177 11.673 20.7177 11.7945C20.7177 15.5733 20.7134 19.3521 20.7253 23.1309C20.7263 23.4385 20.622 23.5741 20.3509 23.6988C18.9515 24.3399 18.0254 25.948 18.1534 27.3303C18.3405 29.3546 19.6862 30.5798 21.2125 30.91C23.0756 31.3145 25.0472 30.2033 25.6184 28.4748C26.2778 26.4794 25.47 24.5432 23.6048 23.6655C23.409 23.573 23.2907 23.4902 23.2918 23.2342C23.3025 19.3413 23.2993 15.4475 23.3004 11.5547C23.2993 11.5149 23.3122 11.4761 23.337 11.3428Z" fill="#10191F"/>
<path id="Vector_3" d="M21.9904 43.9783C19.5282 43.9783 17.065 43.9922 14.6028 43.9621C14.2618 43.9578 13.8735 43.804 13.5949 43.5985C13.1829 43.2952 13.0872 42.8294 13.2529 42.3239C13.9348 40.2479 15.9291 38.7602 18.1137 38.7452C20.705 38.728 23.2963 38.729 25.8875 38.7452C28.0754 38.7592 30.0622 40.2317 30.7538 42.3142C31.0324 43.1532 30.4311 43.9686 29.505 43.974C27.615 43.9847 25.7251 43.9772 23.8352 43.9772C23.221 43.9782 22.6057 43.9783 21.9904 43.9783Z" fill="#10191F"/>
<path id="Vector_4" d="M23.2917 27.1442C23.2917 27.8702 22.7141 28.4393 21.9837 28.4296C21.277 28.421 20.7188 27.853 20.7188 27.1442C20.7188 26.4181 21.2964 25.8491 22.0267 25.8588C22.7335 25.8663 23.2917 26.4342 23.2917 27.1442Z" fill="#10191F"/>
</g>
</svg>
