<svg width="44" height="44" viewBox="0 0 44 44" fill="none" xmlns="http://www.w3.org/2000/svg">
<g id="Group">
<path id="Vector" d="M39.0124 13.5266C41.6807 15.5112 43.3221 18.0796 43.8253 21.3266C43.9533 22.1537 44.002 23.0231 43.8944 23.8476C43.7382 25.0486 42.9662 25.9218 41.9995 26.6119C40.4695 27.7041 38.7026 28.1829 36.8896 28.5056C34.2495 28.9755 31.594 29.0305 28.9295 28.7143C28.676 28.6848 28.548 28.6426 28.4981 28.3455C27.7567 23.9552 25.5519 20.4892 21.8824 17.9605C21.8312 17.9247 21.789 17.876 21.7441 17.835C22.4086 16.3191 24.0949 14.3704 25.4546 13.5599C27.3099 15.442 29.5505 16.474 32.229 16.4714C34.8935 16.4676 37.1213 15.4446 39.0124 13.5266Z" fill="white"/>
<path id="Vector_2" d="M32.2262 0.0166152C36.2376 0.0242974 39.4423 3.25082 39.4359 7.27628C39.4295 11.2505 36.18 14.4655 32.1904 14.4463C28.2046 14.4258 24.9781 11.1878 24.9883 7.21738C24.9973 3.24825 28.2545 0.00893302 32.2262 0.0166152Z" fill="white"/>
<path id="Vector_3" d="M11.6423 3.10744C9.69483 3.10744 7.74611 3.10488 5.79868 3.10873C4.15085 3.11257 3.10735 4.15222 3.10479 5.79493C3.10095 8.42992 3.10992 11.0636 3.10095 13.6986C3.09711 14.8612 2.11891 15.6307 1.09078 15.285C0.482608 15.0801 0.108743 14.6512 0.031921 13.9957C0.0191173 13.8855 0.0114347 13.7729 0.0114347 13.6615C0.0101543 10.9945 -0.018014 8.32749 0.0191165 5.66177C0.0626489 2.45702 2.42492 0.0627387 5.63351 0.0256081C9.68843 -0.020485 13.7446 0.00768333 17.8008 0.0179262C18.7893 0.020487 19.4499 0.67091 19.4422 1.56844C19.4346 2.45574 18.7432 3.10104 17.7752 3.10488C15.7292 3.11256 13.6857 3.10744 11.6423 3.10744Z" fill="white"/>
<path id="Vector_4" d="M35.0675 43.9874C33.7909 43.9874 32.5131 44.013 31.2366 43.9797C29.9626 43.9464 29.2431 42.6814 29.8858 41.6443C30.2187 41.1078 30.7283 40.8953 31.3467 40.8966C33.613 40.8991 35.8792 40.8991 38.1467 40.8966C39.856 40.894 40.8867 39.8672 40.8906 38.163C40.8944 36.5344 40.8816 34.907 40.897 33.2784C40.9046 32.4731 41.4219 31.879 42.1927 31.7241C42.838 31.5947 43.5486 31.966 43.8328 32.6113C43.9199 32.8098 43.9737 33.0416 43.9737 33.2579C43.9813 35.03 44.0364 36.8033 43.9583 38.5727C43.82 41.7071 41.4411 43.94 38.276 43.9874C37.2069 44.004 36.1378 43.9899 35.0675 43.9899C35.0675 43.9887 35.0675 43.9874 35.0675 43.9874Z" fill="white"/>
<path id="Vector_5" d="M1.28516 36.1318C1.82931 36.1318 2.32097 36.1318 2.81391 36.1318C4.20311 36.1318 5.59358 36.1625 6.98149 36.1164C7.52693 36.0985 7.70746 36.2841 7.81117 36.795C8.13766 38.4108 8.66773 39.9626 9.5307 41.38C10.2451 42.5541 11.1708 43.49 12.569 43.8908C8.87899 44.4375 2.47077 40.051 1.28516 36.1318Z" fill="white"/>
<path id="Vector_6" d="M13.9941 17.4409C18.9479 17.56 23.7172 20.9466 25.4252 25.2345C23.3165 25.2345 21.2167 25.2345 19.1258 25.2345C18.8326 24.2358 18.6188 23.2166 18.2321 22.2679C17.8199 21.2577 17.309 20.2731 16.7226 19.3525C16.1183 18.405 15.2079 17.7751 13.9941 17.4409Z" fill="white"/>
<path id="Vector_7" d="M12.6098 17.4475C10.6714 18.0429 9.61121 19.5166 8.89293 21.2553C8.40383 22.4409 8.1055 23.7046 7.70475 24.9274C7.6625 25.0554 7.50629 25.2398 7.4013 25.2411C5.37576 25.2603 3.35151 25.2552 1.31445 25.2552C2.65243 21.546 7.20157 17.6242 12.6098 17.4475Z" fill="white"/>
<path id="Vector_8" d="M14.1934 43.9065C16.0473 43.306 17.0793 41.8899 17.7809 40.2178C18.32 38.9323 18.7054 37.5828 19.1829 36.1936C21.179 36.1936 23.2903 36.1936 25.4106 36.1936C23.7513 40.2908 19.1125 43.7926 14.1934 43.9065Z" fill="white"/>
<path id="Vector_9" d="M7.17883 33.0717C4.8793 33.0717 2.59129 33.0717 0.286632 33.0717C-0.0180944 31.4828 -0.0206549 29.9233 0.282791 28.3369C2.59129 28.3369 4.88058 28.3369 7.18011 28.3369C7.17883 29.913 7.17883 31.4674 7.17883 33.0717Z" fill="white"/>
<path id="Vector_10" d="M19.5527 28.3496C21.8612 28.3496 24.139 28.3496 26.4385 28.3496C26.7356 29.8758 26.7189 31.3802 26.4641 32.8834C26.4475 32.9807 26.1863 33.101 26.0378 33.1023C24.2171 33.1164 22.3977 33.11 20.577 33.11C20.2441 33.11 19.91 33.11 19.5527 33.11C19.5527 31.5121 19.5527 29.9449 19.5527 28.3496Z" fill="white"/>
<path id="Vector_11" d="M16.4614 28.3433C16.4614 29.9258 16.4614 31.4827 16.4614 33.0716C14.3859 33.0716 12.3668 33.0716 10.2695 33.0716C10.2695 31.4968 10.2695 29.9284 10.2695 28.3433C12.3488 28.3433 14.3705 28.3433 16.4614 28.3433Z" fill="white"/>
<path id="Vector_12" d="M10.7578 25.2258C11.1266 23.6996 11.5504 22.2348 12.5478 21.0185C13.1559 20.2771 13.5464 20.2771 14.1649 21.0159C15.079 22.1068 15.4964 23.4307 15.8537 24.7763C15.8895 24.9133 15.9177 25.0529 15.9574 25.2258C14.234 25.2258 12.5362 25.2258 10.7578 25.2258Z" fill="white"/>
<path id="Vector_13" d="M15.9512 36.1909C15.6567 37.4534 15.2829 38.6492 14.6235 39.7375C14.4839 39.968 14.3226 40.1908 14.1459 40.3944C13.5621 41.0717 13.1664 41.0858 12.5839 40.4072C11.6774 39.3509 11.2689 38.0551 10.8976 36.7479C10.8503 36.5814 10.8221 36.4099 10.7734 36.1909C12.4994 36.1909 14.1933 36.1909 15.9512 36.1909Z" fill="white"/>
</g>
</svg>
